<svg width="4440" height="2392" viewBox="0 0 4440 2392" fill="none" xmlns="http://www.w3.org/2000/svg" xmlns:xlink="http://www.w3.org/1999/xlink">
<mask id="mask_0_25_41" style="mask-type:alpha" maskUnits="userSpaceOnUse" x="1415.076172" y="-27.568716" width="1107.984258" height="1132.150448">
<path d="M3418.543,1753.56C3416.917,1797.232 3420.171,1840.904 3427.837,1883.182C3450.129,2006.764 3511.009,2121.524 3603.229,2209.564L1442.889,2154.484L1497.83,-0.396L2349.685,21.323C2947.419,-19.794 3445.489,453.162 3445.489,1042.268C3445.489,1048.772 3445.269,1055.044 3445.269,1061.548L3445.489,1061.316L3436.897,1282.23L3418.543,1753.56Z" transform="rotate(-2.921 2523.06 1104.582)" fill="url(#pf_0_25_41)"/>
</mask>
<rect  x="1560" y="126" width="2880" height="2048" fill="#FFFFFF"/>
<rect  x="0" y="2392" width="4028" height="2266" transform="rotate(0 0 2392)" fill="url(#pattern_0_25_42)"/>
<g opacity="0.6" style="isolation:isolate">
<path d="M3418.543,1753.56C3416.917,1797.232 3420.171,1840.904 3427.837,1883.182C3450.129,2006.764 3511.009,2121.524 3603.229,2209.564L1442.889,2154.484L1497.83,-0.396L2349.685,21.323C2947.419,-19.794 3445.489,453.162 3445.489,1042.268C3445.489,1048.772 3445.269,1055.044 3445.269,1061.548L3445.489,1061.316L3436.897,1282.23L3418.543,1753.56Z" transform="rotate(-2.921 2523.06 1104.582)" fill="url(#pf_0_25_43)"/>
</g>
<defs>
<linearGradient id="pf_0_25_43" x1="1564.637" y1="827.331" x2="3427.646" y2="1669.543" gradientUnits="userSpaceOnUse">
<stop offset="0" stop-color="#FC5252"/>
<stop offset="0.999" stop-color="#9D00C6"/>
</linearGradient>
</defs>
</svg>
