<svg width="360" height="360" viewBox="0 0 360 360" fill="none" xmlns="http://www.w3.org/2000/svg" xmlns:xlink="http://www.w3.org/1999/xlink">
<circle cx="180" cy="180" r="180" fill="#242259" fill-opacity="0.2"/>
<path d="M333,180C347.912,180 360.208,192.155 357.978,206.9C355.1,225.94 349.176,244.456 340.382,261.718C327.486,287.028 308.782,308.926 285.802,325.624C262.82,342.32 236.214,353.34 208.158,357.784C180.102,362.228 151.393,359.968 124.377,351.19C97.361,342.412 72.807,327.366 52.721,307.28C32.635,287.194 17.588,262.638 8.81,235.624C0.032,208.608 -2.228,179.898 2.216,151.842C5.247,132.706 11.337,114.245 20.201,97.149C27.065,83.91 44.157,81.304 56.22,90.069L56.22,90.069C68.284,98.834 70.645,115.658 64.646,129.31C60.313,139.17 57.248,149.579 55.551,160.289C52.441,179.929 54.022,200.026 60.167,218.936C66.311,237.848 76.844,255.036 90.905,269.096C104.965,283.156 122.153,293.688 141.064,299.834C159.975,305.978 180.071,307.56 199.711,304.448C219.35,301.338 237.974,293.624 254.06,281.936C270.148,270.248 283.24,254.92 292.266,237.202C297.19,227.54 300.828,217.318 303.118,206.794C306.29,192.223 318.088,180 333,180L333,180Z" fill="#9E028F"/>
<path d="M200.128,177.997C197.914,188.628 188.492,196.615 177.203,196.615C165.914,196.615 156.492,188.628 154.278,177.997L165.378,177.997C165.903,180.233 167.045,182.229 168.614,183.798C170.811,185.997 173.848,187.358 177.205,187.358C180.281,187.358 183.105,186.193 185.259,184.276C185.444,184.129 185.622,183.97 185.794,183.798C187.363,182.229 188.505,180.233 189.03,177.997L200.128,177.997ZM155.258,210.579L173.183,210.579L173.183,206.154C165.622,205.242 158.842,201.789 153.727,196.672C147.716,190.662 144,182.361 144,173.192C144,164.025 147.716,155.725 153.727,149.715C155.792,147.65 158.113,145.77 160.653,144.262C170.323,138.523 184.488,138.573 194.084,144.454C196.497,145.933 198.706,147.739 200.681,149.715C206.691,155.725 210.406,164.025 210.406,173.193C210.406,182.361 206.691,190.662 200.681,196.672C195.564,201.789 188.784,205.242 181.222,206.154L181.222,210.579L199.147,210.579C202.244,210.579 204.775,213.122 204.775,216.208L204.775,219.917L149.63,219.917L149.63,216.208C149.63,213.111 152.163,210.579 155.258,210.579ZM177.203,145.047C192.752,145.047 205.355,157.65 205.355,173.198C205.355,188.745 192.752,201.35 177.203,201.35C161.655,201.35 149.052,188.745 149.052,173.198C149.052,157.65 161.655,145.047 177.203,145.047ZM163.798,153.929C163.336,153.129 163.608,152.106 164.406,151.642C165.206,151.179 166.23,151.453 166.692,152.251L168.784,155.873C169.247,156.672 168.975,157.697 168.175,158.159C167.377,158.622 166.352,158.35 165.889,157.551L163.798,153.929ZM156.006,163.345C155.208,162.887 154.931,161.865 155.391,161.065C155.848,160.267 156.87,159.992 157.669,160.45L161.291,162.54C162.089,162.998 162.366,164.02 161.906,164.82C161.448,165.618 160.427,165.893 159.628,165.436L156.006,163.345ZM196.737,159.506C197.536,159.048 198.558,159.323 199.016,160.122C199.475,160.922 199.198,161.943 198.4,162.401L194.778,164.492C193.98,164.95 192.958,164.675 192.5,163.876C192.041,163.076 192.317,162.054 193.116,161.597L196.737,159.506ZM187.314,151.714C187.772,150.915 188.794,150.64 189.592,151.098C190.392,151.556 190.667,152.578 190.209,153.378L188.119,156.998C187.659,157.797 186.639,158.073 185.839,157.614C185.041,157.156 184.766,156.134 185.223,155.336L187.314,151.714ZM175.255,149.667C175.255,148.742 176.005,147.99 176.93,147.99C177.856,147.99 178.606,148.742 178.606,149.667L178.606,153.85C178.606,154.775 177.856,155.526 176.93,155.526C176.005,155.526 175.255,154.775 175.255,153.85L175.255,149.667ZM179.872,170.248C181.634,171.198 182.834,173.064 182.834,175.209C182.834,178.318 180.314,180.839 177.205,180.839C174.095,180.839 171.573,178.318 171.573,175.209C171.573,173.064 172.773,171.198 174.539,170.248L174.539,161.409L177.205,158.743L179.872,161.409L179.872,170.248Z" clip-rule="evenodd" fill-rule="evenodd" fill="#242259"/>
</svg>
