<svg width="360" height="360" viewBox="0 0 360 360" fill="none" xmlns="http://www.w3.org/2000/svg" xmlns:xlink="http://www.w3.org/1999/xlink">
<circle cx="180" cy="180" r="180" fill="#9E028F" fill-opacity="0.2"/>
<path d="M333,180C347.912,180 360.208,192.155 357.978,206.9C354.042,232.944 344.42,257.92 329.664,280.002C309.886,309.604 281.774,332.674 248.884,346.298C215.992,359.922 179.8,363.486 144.884,356.542C109.967,349.596 77.894,332.452 52.721,307.28C27.547,282.106 10.404,250.032 3.459,215.116C-3.487,180.2 0.078,144.008 13.702,111.117C27.325,78.226 50.397,50.114 79.997,30.335C102.08,15.58 127.057,5.957 153.101,2.021C167.845,-0.207 180,12.088 180,27L180,27C180,41.912 167.776,53.711 153.206,56.882C137.858,60.222 123.19,66.42 109.998,75.235C89.278,89.08 73.128,108.758 63.591,131.782C54.055,154.805 51.559,180.14 56.421,204.582C61.283,229.022 73.283,251.474 90.905,269.096C108.526,286.716 130.977,298.718 155.419,303.578C179.86,308.44 205.194,305.946 228.218,296.408C251.242,286.872 270.92,270.722 284.766,250.002C293.58,236.81 299.778,222.142 303.118,206.794C306.29,192.224 318.088,180 333,180L333,180Z" fill="#9E028F"/>
<path d="M171.104,142.413L147.185,142.413C144.281,142.413 142.06,144.634 142.06,147.538L142.06,215.879C142.06,216.733 142.914,217.587 143.768,217.587L150.602,217.587C151.627,217.587 152.311,216.904 152.311,215.879L152.311,205.628C152.311,204.603 152.994,203.919 154.019,203.919L164.27,203.919C165.295,203.919 165.979,204.603 165.979,205.628L165.979,215.879C165.979,216.904 166.662,217.587 167.687,217.587L172.813,217.587C174.692,217.587 176.23,216.05 176.23,214.17L176.23,147.538C176.23,144.634 174.009,142.413 171.104,142.413ZM155.728,196.231C155.728,196.743 155.386,197.085 154.873,197.085L149.748,197.085C149.235,197.085 148.894,196.743 148.894,196.231L148.894,187.688C148.894,187.176 149.235,186.834 149.748,186.834L154.873,186.834C155.386,186.834 155.728,187.176 155.728,187.688L155.728,196.231ZM155.728,179.146C155.728,179.658 155.386,180 154.873,180L149.748,180C149.235,180 148.894,179.658 148.894,179.146L148.894,170.603C148.894,170.091 149.235,169.749 149.748,169.749L154.873,169.749C155.386,169.749 155.728,170.091 155.728,170.603L155.728,179.146ZM155.728,162.061C155.728,162.573 155.386,162.915 154.873,162.915L149.748,162.915C149.235,162.915 148.894,162.573 148.894,162.061L148.894,153.518C148.894,153.006 149.235,152.664 149.748,152.664L154.873,152.664C155.386,152.664 155.728,153.006 155.728,153.518L155.728,162.061ZM169.396,196.231C169.396,196.743 169.054,197.085 168.542,197.085L163.416,197.085C162.903,197.085 162.562,196.743 162.562,196.231L162.562,187.688C162.562,187.176 162.903,186.834 163.416,186.834L168.542,186.834C169.054,186.834 169.396,187.176 169.396,187.688L169.396,196.231ZM169.396,179.146C169.396,179.658 169.054,180 168.542,180L163.416,180C162.903,180 162.562,179.658 162.562,179.146L162.562,170.603C162.562,170.091 162.903,169.749 163.416,169.749L168.542,169.749C169.054,169.749 169.396,170.091 169.396,170.603L169.396,179.146ZM169.396,162.061C169.396,162.573 169.054,162.915 168.542,162.915L163.416,162.915C162.903,162.915 162.562,162.573 162.562,162.061L162.562,153.518C162.562,153.006 162.903,152.664 163.416,152.664L168.542,152.664C169.054,152.664 169.396,153.006 169.396,153.518L169.396,162.061Z" fill="#242259"/>
<path d="M212.109,159.498L188.19,159.498C185.285,159.498 183.064,161.719 183.064,164.623L183.064,215.879C183.064,216.733 183.918,217.587 184.772,217.587L191.607,217.587C192.632,217.587 193.315,216.904 193.315,215.879L193.315,205.628C193.315,204.603 193.998,203.919 195.024,203.919L205.275,203.919C206.3,203.919 206.983,204.603 206.983,205.628L206.983,215.879C206.983,216.904 207.667,217.587 208.692,217.587L213.817,217.587C215.697,217.587 217.234,216.05 217.234,214.17L217.234,164.623C217.234,161.719 215.013,159.498 212.109,159.498ZM196.732,196.231C196.732,196.743 196.39,197.085 195.878,197.085L190.752,197.085C190.24,197.085 189.898,196.743 189.898,196.231L189.898,187.688C189.898,187.176 190.24,186.834 190.752,186.834L195.878,186.834C196.39,186.834 196.732,187.176 196.732,187.688L196.732,196.231ZM196.732,179.146C196.732,179.658 196.39,180 195.878,180L190.752,180C190.24,180 189.898,179.658 189.898,179.146L189.898,170.603C189.898,170.091 190.24,169.749 190.752,169.749L195.878,169.749C196.39,169.749 196.732,170.091 196.732,170.603L196.732,179.146ZM210.4,196.231C210.4,196.743 210.058,197.085 209.546,197.085L204.42,197.085C203.908,197.085 203.566,196.743 203.566,196.231L203.566,187.688C203.566,187.176 203.908,186.834 204.42,186.834L209.546,186.834C210.058,186.834 210.4,187.176 210.4,187.688L210.4,196.231ZM210.4,179.146C210.4,179.658 210.058,180 209.546,180L204.42,180C203.908,180 203.566,179.658 203.566,179.146L203.566,170.603C203.566,170.091 203.908,169.749 204.42,169.749L209.546,169.749C210.058,169.749 210.4,170.091 210.4,170.603L210.4,179.146Z" fill="#242259"/>
</svg>
