<svg width="360" height="360" viewBox="0 0 360 360" fill="none" xmlns="http://www.w3.org/2000/svg" xmlns:xlink="http://www.w3.org/1999/xlink">
<circle cx="180" cy="180" r="180" fill="#242259" fill-opacity="0.2"/>
<path d="M333,180C347.912,180 360.208,192.156 357.98,206.9C352.98,239.974 338.828,271.194 316.874,296.9C289.038,329.49 250.49,351.08 208.158,357.784C165.827,364.488 122.493,355.868 85.95,333.476C49.407,311.082 22.054,276.384 8.81,235.624C-4.434,194.862 -2.7,150.713 13.702,111.117C30.103,71.521 60.094,39.076 98.282,19.619C136.469,0.161 180.346,-5.032 222.02,4.973C254.892,12.865 284.692,29.804 308.176,53.624C318.646,64.243 315.844,81.304 303.78,90.069L303.78,90.069C291.716,98.834 274.986,95.879 263.856,85.956C248.438,72.209 229.768,62.368 209.414,57.481C180.242,50.478 149.528,54.113 122.797,67.733C96.066,81.353 75.072,104.065 63.591,131.782C52.11,159.499 50.896,190.404 60.167,218.936C69.438,247.468 88.585,271.758 114.165,287.432C139.745,303.108 170.079,309.142 199.711,304.448C229.342,299.756 256.328,284.644 275.812,261.83C289.406,245.914 298.726,226.978 303.118,206.794C306.29,192.224 318.088,180 333,180L333,180Z" fill="#9E028F"/>
<path d="M165.97,169.742C165.97,164.077 170.562,159.484 176.228,159.484L179.647,159.484C180.371,159.484 181.1,159.572 181.812,159.691C182.998,159.888 184.631,160.29 186.305,161.127C187.993,161.971 189.785,163.291 191.148,165.334C192.524,167.399 193.325,169.998 193.325,173.161C193.325,176.324 192.524,178.923 191.148,180.988C189.785,183.032 187.994,184.351 186.305,185.195C184.631,186.032 182.998,186.434 181.812,186.632C181.104,186.75 180.382,186.834 179.663,186.839L172.808,186.839L172.808,197.097C172.808,198.985 171.278,200.516 169.389,200.516C167.501,200.516 165.97,198.985 165.97,197.097L165.97,169.742ZM172.808,169.742L172.808,180L179.648,179.999C180.879,179.958 182.149,179.627 183.247,179.078C184.123,178.64 184.896,178.037 185.457,177.195C186.004,176.374 186.486,175.127 186.486,173.161C186.486,171.195 186.004,169.948 185.457,169.128C184.896,168.286 184.124,167.682 183.247,167.244C182.149,166.695 180.879,166.364 179.649,166.323L176.228,166.323C174.339,166.323 172.808,167.854 172.808,169.742Z" clip-rule="evenodd" fill-rule="evenodd" fill="#242259"/>
<path d="M179.647,217.613C200.42,217.613 217.26,200.773 217.26,180C217.26,159.227 200.42,142.387 179.647,142.387C158.874,142.387 142.034,159.227 142.034,180C142.034,200.773 158.874,217.613 179.647,217.613ZM179.647,210.751C162.664,210.751 148.896,196.983 148.896,180C148.896,163.017 162.664,149.249 179.647,149.249C196.63,149.249 210.398,163.017 210.398,180C210.398,196.983 196.63,210.751 179.647,210.751Z" clip-rule="evenodd" fill-rule="evenodd" fill="#242259"/>
</svg>
