<svg width="360" height="360" viewBox="0 0 360 360" fill="none" xmlns="http://www.w3.org/2000/svg" xmlns:xlink="http://www.w3.org/1999/xlink">
<circle cx="180" cy="180" r="180" fill="#242259" fill-opacity="0.2"/>
<path d="M333,180C347.912,180 360.208,192.155 357.978,206.9C354.748,228.272 347.684,248.964 337.05,267.952C322,294.822 300.31,317.384 274.05,333.476C247.79,349.568 217.84,358.652 187.067,359.862C156.293,361.07 125.723,354.364 98.282,340.382C70.841,326.4 47.446,305.61 30.335,280.002C13.225,254.396 2.971,224.826 0.555,194.123C-1.861,163.42 3.64,132.61 16.534,104.641C25.645,84.877 38.232,66.999 53.625,51.823C64.243,41.354 81.304,44.157 90.069,56.22L90.069,56.22C98.834,68.284 95.88,85.015 85.956,96.145C77.694,105.411 70.813,115.885 65.574,127.249C56.548,146.827 52.697,168.394 54.388,189.886C56.08,211.378 63.258,232.076 75.235,250.002C87.212,267.928 103.588,282.48 122.797,292.266C142.006,302.054 163.405,306.75 184.947,305.902C206.488,305.056 227.454,298.696 245.834,287.432C264.216,276.168 279.4,260.376 289.934,241.566C296.048,230.648 300.478,218.926 303.118,206.794C306.29,192.224 318.088,180 333,180L333,180Z" fill="#9E028F"/>
<path d="M198.716,163.607C199.718,163.607 200.532,162.793 200.532,161.791L200.532,152.711C200.532,149.708 198.088,147.264 195.084,147.264L192.025,147.264C189.98,142.976 185.614,140 180.557,140L166.03,140C160.972,140 156.607,142.976 154.562,147.264L151.502,147.264C148.499,147.264 146.055,149.708 146.055,152.711L146.055,214.453C146.055,217.456 148.499,219.9 151.502,219.9L195.084,219.9C198.088,219.9 200.532,217.456 200.532,214.453L200.532,205.373C200.532,204.37 199.718,203.557 198.716,203.557C197.714,203.557 196.9,204.37 196.9,205.373L196.9,214.452C196.9,215.453 196.085,216.268 195.084,216.268L151.502,216.268C150.502,216.268 149.686,215.453 149.686,214.452L149.686,152.711C149.686,151.711 150.502,150.895 151.502,150.895L153.464,150.895C153.378,151.491 153.318,152.094 153.318,152.711L153.318,156.343C153.318,157.346 154.132,158.159 155.134,158.159L191.452,158.159C192.455,158.159 193.268,157.346 193.268,156.343L193.268,152.711C193.268,152.094 193.209,151.491 193.123,150.895L195.084,150.895C196.085,150.895 196.9,151.711 196.9,152.711L196.9,161.791C196.9,162.793 197.714,163.607 198.716,163.607ZM189.637,154.527L156.95,154.527L156.95,152.711C156.95,147.705 161.023,143.632 166.03,143.632L180.557,143.632C185.563,143.632 189.636,147.705 189.636,152.711L189.636,154.527L189.637,154.527Z" fill="#242259"/>
<path d="M173.294,150.895C174.296,150.895 175.109,150.082 175.109,149.079C175.109,148.076 174.296,147.263 173.294,147.263C172.291,147.263 171.478,148.076 171.478,149.079C171.478,150.082 172.291,150.895 173.294,150.895Z" fill="#242259"/>
<path d="M187.821,163.607L158.766,163.607C157.764,163.607 156.95,164.421 156.95,165.423C156.95,166.425 157.764,167.239 158.766,167.239L187.821,167.239C188.823,167.239 189.637,166.425 189.637,165.423C189.637,164.42 188.823,163.607 187.821,163.607Z" fill="#242259"/>
<path d="M178.741,172.687L158.766,172.687C157.764,172.687 156.95,173.5 156.95,174.502C156.95,175.505 157.764,176.318 158.766,176.318L178.741,176.318C179.744,176.318 180.557,175.505 180.557,174.502C180.557,173.5 179.744,172.687 178.741,172.687Z" fill="#242259"/>
<path d="M176.925,181.766L158.766,181.766C157.764,181.766 156.95,182.579 156.95,183.582C156.95,184.584 157.764,185.398 158.766,185.398L176.925,185.398C177.928,185.398 178.741,184.584 178.741,183.582C178.741,182.579 177.928,181.766 176.925,181.766Z" fill="#242259"/>
<path d="M187.821,199.925L173.294,199.925C172.291,199.925 171.478,200.739 171.478,201.741C171.478,202.743 172.291,203.557 173.294,203.557L187.821,203.557C188.823,203.557 189.637,202.743 189.637,201.741C189.637,200.739 188.823,199.925 187.821,199.925Z" fill="#242259"/>
<path d="M166.03,199.925L158.766,199.925C157.764,199.925 156.95,200.739 156.95,201.741C156.95,202.743 157.764,203.557 158.766,203.557L166.03,203.557C167.032,203.557 167.846,202.743 167.846,201.741C167.846,200.739 167.032,199.925 166.03,199.925Z" fill="#242259"/>
<path d="M178.741,190.846L158.766,190.846C157.764,190.846 156.95,191.659 156.95,192.662C156.95,193.664 157.764,194.477 158.766,194.477L178.741,194.477C179.744,194.477 180.557,193.664 180.557,192.662C180.557,191.659 179.744,190.846 178.741,190.846Z" fill="#242259"/>
<path d="M198.716,167.239C189.706,167.239 182.373,174.571 182.373,183.582C182.373,192.593 189.706,199.925 198.716,199.925C207.727,199.925 215.059,192.593 215.059,183.582C215.059,174.571 207.727,167.239 198.716,167.239Z" fill="#242259"/>
<path d="M205.099,176.578C204.238,176.062 203.123,176.34 202.607,177.201L198.356,184.286L194.553,180.484C193.843,179.774 192.696,179.774 191.986,180.484C191.276,181.194 191.276,182.342 191.986,183.052L197.433,188.499C197.773,188.841 198.236,189.03 198.716,189.03C198.79,189.03 198.864,189.026 198.937,189.017C199.493,188.948 199.985,188.628 200.272,188.149L205.719,179.069C206.237,178.208 205.957,177.094 205.099,176.578Z" fill="#FFFFFF"/>
</svg>
