<svg width="360" height="360" viewBox="0 0 360 360" fill="none" xmlns="http://www.w3.org/2000/svg" xmlns:xlink="http://www.w3.org/1999/xlink">
<circle cx="180" cy="180" r="180" fill="#9E028F" fill-opacity="0.2"/>
<path d="M333,180C347.912,180 360.208,192.155 357.978,206.9C354.396,230.606 346.098,253.452 333.476,274.05C316.13,302.354 291.296,325.31 261.718,340.382C232.14,355.452 198.971,362.05 165.877,359.446C132.784,356.84 101.055,345.136 74.199,325.624C47.343,306.11 26.405,279.552 13.702,248.884C0.998,218.214 -2.977,184.629 2.216,151.842C7.409,119.054 21.568,88.342 43.127,63.099C58.816,44.73 77.979,29.778 99.419,19.044C112.753,12.369 128.112,20.307 132.72,34.488L132.72,34.488C137.328,48.67 129.349,63.669 116.472,71.188C104.329,78.277 93.403,87.381 84.189,98.17C69.097,115.839 59.186,137.338 55.551,160.289C51.916,183.24 54.699,206.75 63.591,228.218C72.484,249.686 87.14,268.278 105.939,281.936C124.738,295.594 146.949,303.788 170.114,305.612C193.28,307.434 216.498,302.816 237.202,292.266C257.908,281.718 275.292,265.648 287.432,245.834C294.846,233.738 300.128,220.534 303.118,206.794C306.29,192.224 318.088,180 333,180L333,180Z" fill="#9E028F"/>
<path d="M136,200.742C136,210.889 144.214,219.172 154.43,219.172L156.293,219.172C166.44,219.172 174.723,210.958 174.723,200.742L174.723,180.449L136,180.449L136,200.742ZM139.658,184.176L170.927,184.176L170.927,200.742C170.927,208.887 164.3,215.444 156.224,215.444L154.361,215.444C146.216,215.444 139.658,208.818 139.658,200.742L139.658,184.176ZM223.041,192.735L188.39,206.816C191.496,213.028 197.777,217.239 205.025,217.239C215.379,217.239 223.731,208.611 223.731,197.912C223.731,196.186 223.524,194.392 223.041,192.735ZM205.025,178.654C194.671,178.654 186.319,187.282 186.319,197.981C186.319,199.776 186.595,201.501 187.009,203.158L221.66,189.077C218.485,182.865 212.273,178.654 205.025,178.654ZM156.224,140L154.361,140C144.214,140 136,148.214 136,158.361L136,178.585L174.654,178.585L174.654,158.361C174.654,148.214 166.44,140 156.224,140Z" fill="#242259"/>
</svg>
