<svg width="34" height="14" viewBox="0 0 34 14" fill="none" xmlns="http://www.w3.org/2000/svg" xmlns:xlink="http://www.w3.org/1999/xlink">
<path d="M30.042,11.399C30.321,12.179 31.179,12.585 31.959,12.307C32.74,12.028 33.146,11.17 32.867,10.39L30.042,11.399ZM25.74,4.48L24.992,5.78L25.74,4.48ZM16,2L16,3.5L16,2ZM-0.867,10.39C-1.146,11.17 -0.74,12.028 0.041,12.307C0.821,12.585 1.679,12.179 1.958,11.399L-0.867,10.39ZM32.867,10.39C31.814,7.441 29.53,4.93 26.488,3.18L24.992,5.78C27.539,7.246 29.272,9.244 30.042,11.399L32.867,10.39ZM26.488,3.18C23.446,1.429 19.76,0.5 16,0.5L16,3.5C19.285,3.5 22.446,4.315 24.992,5.78L26.488,3.18ZM16,0.5C12.24,0.5 8.554,1.429 5.512,3.18L7.008,5.78C9.554,4.315 12.715,3.5 16,3.5L16,0.5ZM5.512,3.18C2.47,4.93 0.186,7.441 -0.867,10.39L1.958,11.399C2.728,9.244 4.461,7.246 7.008,5.78L5.512,3.18Z" fill="#030229"/>
</svg>
