<svg width="360" height="276" viewBox="0 0 360 276" fill="none" xmlns="http://www.w3.org/2000/svg" xmlns:xlink="http://www.w3.org/1999/xlink">
<path d="M333,96C347.912,96 360.208,108.155 357.978,122.9C355.1,141.94 349.176,160.456 340.382,177.718C327.486,203.028 308.782,224.926 285.802,241.624C262.82,258.32 236.214,269.34 208.158,273.784C180.102,278.228 151.393,275.968 124.377,267.19C97.361,258.412 72.807,243.366 52.721,223.28C32.635,203.194 17.588,178.638 8.81,151.624C0.032,124.608 -2.228,95.898 2.216,67.842C5.247,48.706 11.337,30.245 20.201,13.149C27.065,-0.09 44.157,-2.696 56.22,6.069L56.22,6.069C68.284,14.834 70.645,31.658 64.646,45.31C60.313,55.17 57.248,65.579 55.551,76.289C52.441,95.929 54.022,116.026 60.167,134.936C66.311,153.848 76.844,171.036 90.905,185.096C104.965,199.156 122.153,209.688 141.064,215.834C159.975,221.978 180.071,223.56 199.711,220.448C219.35,217.338 237.974,209.624 254.06,197.936C270.148,186.248 283.24,170.92 292.266,153.202C297.19,143.54 300.828,133.318 303.118,122.794C306.29,108.223 318.088,96 333,96L333,96Z" fill="#8C8C8C"/>
</svg>
