<svg width="32" height="32" viewBox="0 0 32 32" fill="none" xmlns="http://www.w3.org/2000/svg" xmlns:xlink="http://www.w3.org/1999/xlink">
<path d="M26.366,23.764C24.467,23.132 22.425,22.66 20.276,22.355C20.569,20.636 20.724,18.835 20.774,16.992L28.712,16.992C28.535,19.492 27.695,21.805 26.366,23.764ZM18.272,29.446C18.932,27.851 19.473,26.126 19.888,24.309C21.671,24.573 23.381,24.963 25.001,25.474C23.212,27.381 20.889,28.785 18.272,29.446ZM15.83,29.835C15.51,29.858 15.192,29.883 14.867,29.883C14.541,29.883 14.224,29.858 13.904,29.835C13.06,28.078 12.377,26.122 11.871,24.046C12.857,23.96 13.855,23.91 14.867,23.91C15.878,23.91 16.877,23.96 17.863,24.046C17.357,26.122 16.673,28.078 15.83,29.835ZM4.733,25.474C6.352,24.963 8.062,24.573 9.845,24.309C10.26,26.126 10.801,27.851 11.461,29.446C8.844,28.785 6.523,27.381 4.733,25.474ZM3.367,23.764C2.038,21.805 1.199,19.492 1.021,16.992L8.959,16.992C9.009,18.835 9.165,20.636 9.457,22.355C7.308,22.66 5.266,23.132 3.367,23.764ZM3.367,8.236C5.266,8.868 7.308,9.341 9.457,9.645C9.165,11.364 9.009,13.165 8.959,15.008L1.021,15.008C1.199,12.508 2.038,10.195 3.367,8.236ZM11.461,2.554C10.801,4.15 10.26,5.874 9.845,7.691C8.062,7.428 6.352,7.037 4.733,6.526C6.523,4.619 8.844,3.215 11.461,2.554ZM13.904,2.165C14.224,2.143 14.541,2.117 14.867,2.117C15.192,2.117 15.51,2.143 15.83,2.165C16.673,3.923 17.357,5.879 17.863,7.954C16.877,8.04 15.878,8.09 14.867,8.09C13.855,8.09 12.857,8.04 11.871,7.954C12.377,5.879 13.06,3.923 13.904,2.165ZM18.788,16.992C18.734,18.738 18.575,20.456 18.277,22.105C17.16,22.008 16.025,21.95 14.867,21.95C13.708,21.95 12.573,22.008 11.457,22.105C11.158,20.456 10.999,18.738 10.947,16.992L18.788,16.992ZM10.947,15.008C10.999,13.262 11.158,11.544 11.457,9.895C12.573,9.993 13.708,10.05 14.867,10.05C16.025,10.05 17.16,9.993 18.276,9.895C18.575,11.544 18.734,13.262 18.788,15.008L10.947,15.008ZM25.001,6.526C23.381,7.037 21.671,7.428 19.888,7.691C19.473,5.874 18.932,4.15 18.272,2.554C20.889,3.215 23.212,4.619 25.001,6.526ZM26.366,8.236C27.695,10.195 28.535,12.508 28.712,15.008L20.774,15.008C20.724,13.165 20.569,11.364 20.276,9.645C22.425,9.341 24.467,8.868 26.366,8.236ZM14.867,0.133C6.104,0.133 -1,7.237 -1,16C-1,24.763 6.104,31.867 14.867,31.867C23.629,31.867 30.733,24.763 30.733,16C30.733,7.237 23.629,0.133 14.867,0.133Z" clip-rule="evenodd" fill-rule="evenodd" fill="#242259"/>
</svg>
