<svg width="32" height="32" viewBox="0 0 32 32" fill="none" xmlns="http://www.w3.org/2000/svg" xmlns:xlink="http://www.w3.org/1999/xlink">
<path d="M27.366,23.764C25.467,23.132 23.425,22.66 21.276,22.355C21.569,20.636 21.724,18.835 21.774,16.992L29.712,16.992C29.535,19.492 28.695,21.805 27.366,23.764ZM19.272,29.446C19.932,27.851 20.473,26.126 20.888,24.309C22.671,24.573 24.381,24.963 26.001,25.474C24.212,27.381 21.889,28.785 19.272,29.446ZM16.83,29.835C16.51,29.858 16.192,29.883 15.867,29.883C15.541,29.883 15.224,29.858 14.904,29.835C14.06,28.078 13.377,26.122 12.871,24.046C13.857,23.96 14.855,23.91 15.867,23.91C16.878,23.91 17.877,23.96 18.863,24.046C18.357,26.122 17.673,28.078 16.83,29.835ZM5.733,25.474C7.352,24.963 9.062,24.573 10.845,24.309C11.26,26.126 11.801,27.851 12.461,29.446C9.844,28.785 7.523,27.381 5.733,25.474ZM4.367,23.764C3.038,21.805 2.199,19.492 2.021,16.992L9.959,16.992C10.009,18.835 10.165,20.636 10.457,22.355C8.308,22.66 6.266,23.132 4.367,23.764ZM4.367,8.236C6.266,8.868 8.308,9.341 10.457,9.645C10.165,11.364 10.009,13.165 9.959,15.008L2.021,15.008C2.199,12.508 3.038,10.195 4.367,8.236ZM12.461,2.554C11.801,4.15 11.26,5.874 10.845,7.691C9.062,7.428 7.352,7.037 5.733,6.526C7.523,4.619 9.844,3.215 12.461,2.554ZM14.904,2.165C15.224,2.143 15.541,2.117 15.867,2.117C16.192,2.117 16.51,2.143 16.83,2.165C17.673,3.922 18.357,5.879 18.863,7.954C17.877,8.04 16.878,8.09 15.867,8.09C14.855,8.09 13.857,8.04 12.871,7.954C13.377,5.879 14.06,3.922 14.904,2.165ZM19.788,16.992C19.734,18.738 19.575,20.456 19.277,22.105C18.16,22.008 17.025,21.95 15.867,21.95C14.708,21.95 13.573,22.008 12.457,22.105C12.158,20.456 11.999,18.738 11.947,16.992L19.788,16.992ZM11.947,15.008C11.999,13.262 12.158,11.544 12.457,9.895C13.573,9.992 14.708,10.05 15.867,10.05C17.025,10.05 18.16,9.992 19.276,9.895C19.575,11.544 19.734,13.262 19.788,15.008L11.947,15.008ZM26.001,6.526C24.381,7.037 22.671,7.428 20.888,7.691C20.473,5.874 19.932,4.15 19.272,2.554C21.889,3.215 24.212,4.619 26.001,6.526ZM27.366,8.236C28.695,10.195 29.535,12.508 29.712,15.008L21.774,15.008C21.724,13.165 21.569,11.364 21.276,9.645C23.425,9.341 25.467,8.868 27.366,8.236ZM15.867,0.133C7.104,0.133 0,7.237 0,16C0,24.763 7.104,31.867 15.867,31.867C24.629,31.867 31.733,24.763 31.733,16C31.733,7.237 24.629,0.133 15.867,0.133Z" clip-rule="evenodd" fill-rule="evenodd" fill="#9E028F"/>
</svg>
