<svg width="28" height="28" viewBox="0 0 28 28" fill="none" xmlns="http://www.w3.org/2000/svg" xmlns:xlink="http://www.w3.org/1999/xlink">
<path d="M22.537,20.393C20.973,19.873 19.291,19.485 17.522,19.233C17.762,17.818 17.891,16.335 17.932,14.816L24.469,14.816C24.323,16.875 23.631,18.781 22.537,20.393ZM15.871,25.073C16.415,23.759 16.86,22.339 17.202,20.843C18.671,21.06 20.079,21.381 21.412,21.802C19.939,23.373 18.026,24.528 15.871,25.073ZM13.86,25.393C13.597,25.412 13.335,25.433 13.067,25.433C12.799,25.433 12.537,25.412 12.274,25.393C11.579,23.946 11.016,22.336 10.6,20.626C11.411,20.555 12.234,20.514 13.067,20.514C13.9,20.514 14.722,20.555 15.535,20.626C15.117,22.336 14.555,23.946 13.86,25.393ZM4.721,21.802C6.055,21.381 7.463,21.06 8.931,20.843C9.273,22.339 9.718,23.759 10.262,25.073C8.107,24.528 6.195,23.373 4.721,21.802ZM3.597,20.393C2.502,18.781 1.811,16.875 1.664,14.816L8.202,14.816C8.243,16.335 8.371,17.818 8.612,19.233C6.842,19.485 5.161,19.873 3.597,20.393ZM3.597,7.606C5.161,8.126 6.842,8.516 8.612,8.767C8.371,10.182 8.243,11.665 8.202,13.183L1.664,13.183C1.811,11.124 2.502,9.219 3.597,7.606ZM10.262,2.927C9.718,4.241 9.273,5.661 8.931,7.157C7.463,6.94 6.055,6.619 4.721,6.197C6.195,4.627 8.107,3.471 10.262,2.927ZM12.274,2.606C12.537,2.588 12.799,2.566 13.067,2.566C13.335,2.566 13.597,2.588 13.86,2.606C14.555,4.054 15.117,5.665 15.535,7.373C14.722,7.444 13.9,7.486 13.067,7.486C12.234,7.486 11.411,7.444 10.6,7.373C11.016,5.665 11.579,4.054 12.274,2.606ZM16.296,14.816C16.252,16.255 16.121,17.669 15.875,19.027C14.956,18.947 14.021,18.9 13.067,18.9C12.113,18.9 11.178,18.947 10.259,19.027C10.012,17.669 9.882,16.255 9.838,14.816L16.296,14.816ZM9.838,13.183C9.882,11.745 10.012,10.33 10.259,8.972C11.178,9.052 12.113,9.1 13.067,9.1C14.021,9.1 14.956,9.052 15.874,8.972C16.121,10.33 16.252,11.745 16.296,13.183L9.838,13.183ZM21.412,6.197C20.079,6.619 18.671,6.94 17.202,7.157C16.86,5.661 16.415,4.241 15.871,2.927C18.026,3.471 19.939,4.627 21.412,6.197ZM22.537,7.606C23.631,9.219 24.323,11.124 24.469,13.183L17.932,13.183C17.891,11.665 17.762,10.182 17.522,8.767C19.291,8.516 20.973,8.126 22.537,7.606ZM13.067,0.933C5.851,0.933 0,6.783 0,14C0,21.217 5.851,27.067 13.067,27.067C20.283,27.067 26.133,21.217 26.133,14C26.133,6.783 20.283,0.933 13.067,0.933Z" clip-rule="evenodd" fill-rule="evenodd" fill="#242259"/>
</svg>
