<svg width="24" height="22" viewBox="0 0 24 22" fill="none" xmlns="http://www.w3.org/2000/svg" xmlns:xlink="http://www.w3.org/1999/xlink">
<path d="M2.186,10.349C2.186,9.797 1.738,9.349 1.186,9.349C0.633,9.349 0.186,9.797 0.186,10.349L2.186,10.349ZM1.186,18.488L0.186,18.488L1.186,18.488ZM23.116,10.349C23.116,9.797 22.668,9.349 22.116,9.349C21.564,9.349 21.116,9.797 21.116,10.349L23.116,10.349ZM0.186,10.349L0.186,18.488L2.186,18.488L2.186,10.349L0.186,10.349ZM0.186,18.488C0.186,19.37 0.536,20.216 1.16,20.84L2.574,19.426C2.325,19.177 2.186,18.84 2.186,18.488L0.186,18.488ZM1.16,20.84C1.783,21.464 2.629,21.814 3.511,21.814L3.511,19.814C3.16,19.814 2.822,19.674 2.574,19.426L1.16,20.84ZM3.511,21.814L19.79,21.814L19.79,19.814L3.511,19.814L3.511,21.814ZM19.79,21.814C20.672,21.814 21.518,21.464 22.142,20.84L20.728,19.426C20.479,19.674 20.142,19.814 19.79,19.814L19.79,21.814ZM22.142,20.84C22.765,20.216 23.116,19.37 23.116,18.488L21.116,18.488C21.116,18.84 20.976,19.177 20.728,19.426L22.142,20.84ZM23.116,18.488L23.116,10.349L21.116,10.349L21.116,18.488L23.116,18.488Z" fill="#000000"/>
<path d="M7.581,9.633C7.186,9.247 6.553,9.255 6.167,9.65C5.781,10.046 5.789,10.679 6.184,11.065L7.581,9.633ZM11.65,15L10.952,15.716C11.34,16.095 11.96,16.095 12.349,15.716L11.65,15ZM17.116,11.065C17.511,10.679 17.519,10.046 17.133,9.65C16.748,9.255 16.115,9.247 15.719,9.633L17.116,11.065ZM6.184,11.065L10.952,15.716L12.349,14.284L7.581,9.633L6.184,11.065ZM12.349,15.716L17.116,11.065L15.719,9.633L10.952,14.284L12.349,15.716Z" fill="#000000"/>
<line x1="10.65" y1="-0.814" x2="10.65" y2="12.558" stroke="#000000" stroke-width="1" stroke-miterlimit="3.999327" stroke-linecap="round" stroke-linejoin="round"/>
</svg>
