<svg width="24" height="22" viewBox="0 0 24 22" fill="none" xmlns="http://www.w3.org/2000/svg" xmlns:xlink="http://www.w3.org/1999/xlink">
<path d="M2.187,10.349C2.187,9.797 1.739,9.349 1.187,9.349C0.634,9.349 0.187,9.797 0.187,10.349L2.187,10.349ZM1.187,18.488L0.187,18.488L1.187,18.488ZM23.117,10.349C23.117,9.797 22.669,9.349 22.117,9.349C21.565,9.349 21.117,9.797 21.117,10.349L23.117,10.349ZM0.187,10.349L0.187,18.488L2.187,18.488L2.187,10.349L0.187,10.349ZM0.187,18.488C0.187,19.37 0.537,20.216 1.161,20.84L2.575,19.426C2.326,19.177 2.187,18.84 2.187,18.488L0.187,18.488ZM1.161,20.84C1.784,21.464 2.63,21.814 3.512,21.814L3.512,19.814C3.161,19.814 2.823,19.674 2.575,19.426L1.161,20.84ZM3.512,21.814L19.791,21.814L19.791,19.814L3.512,19.814L3.512,21.814ZM19.791,21.814C20.673,21.814 21.519,21.464 22.143,20.84L20.729,19.426C20.48,19.674 20.143,19.814 19.791,19.814L19.791,21.814ZM22.143,20.84C22.766,20.216 23.117,19.37 23.117,18.488L21.117,18.488C21.117,18.84 20.977,19.177 20.729,19.426L22.143,20.84ZM23.117,18.488L23.117,10.349L21.117,10.349L21.117,18.488L23.117,18.488Z" fill="#000000"/>
<path d="M7.582,9.633C7.187,9.247 6.554,9.255 6.168,9.65C5.782,10.046 5.79,10.679 6.185,11.065L7.582,9.633ZM11.651,15L10.953,15.716C11.341,16.095 11.961,16.095 12.35,15.716L11.651,15ZM17.117,11.065C17.512,10.679 17.52,10.046 17.134,9.65C16.749,9.255 16.116,9.247 15.72,9.633L17.117,11.065ZM6.185,11.065L10.953,15.716L12.35,14.284L7.582,9.633L6.185,11.065ZM12.35,15.716L17.117,11.065L15.72,9.633L10.953,14.284L12.35,15.716Z" fill="#000000"/>
<line x1="10.651" y1="-0.814" x2="10.651" y2="12.558" stroke="#000000" stroke-width="1" stroke-miterlimit="3.999327" stroke-linecap="round" stroke-linejoin="round"/>
</svg>
