<svg width="58" height="50" viewBox="0 0 58 50" fill="none" xmlns="http://www.w3.org/2000/svg" xmlns:xlink="http://www.w3.org/1999/xlink">
<path d="M56.89,44.357L32.191,1.565C30.812,-1.146 26.937,-1.146 25.558,1.565L0.858,44.357C-0.402,46.832 1.396,49.768 4.175,49.768L5.956,49.768C7.356,49.768 8.489,49.349 10.008,46.502L28.874,13.308L47.872,46.718C49.031,48.664 50.385,49.755 51.776,49.759L53.578,49.768C56.353,49.768 58.151,46.832 56.89,44.357Z" fill="#242259"/>
<path d="M30.558,31.921L27.182,31.921C25.127,31.921 23.46,33.588 23.46,35.643L23.46,37.132C23.46,39.188 25.127,40.855 27.182,40.855L30.558,40.855C32.614,40.855 34.281,39.188 34.281,37.132L34.281,35.643C34.281,33.588 32.614,31.921 30.558,31.921Z" fill="#242259"/>
</svg>
