<svg width="58" height="50" viewBox="0 0 58 50" fill="none" xmlns="http://www.w3.org/2000/svg" xmlns:xlink="http://www.w3.org/1999/xlink">
<path d="M56.891,44.357L32.191,1.565C30.812,-1.146 26.938,-1.146 25.559,1.565L0.859,44.357C-0.402,46.832 1.396,49.768 4.175,49.768L5.956,49.768C7.356,49.768 8.49,49.349 10.009,46.502L28.875,13.308L47.872,46.718C49.031,48.664 50.385,49.755 51.777,49.759L53.579,49.768C56.354,49.768 58.152,46.832 56.891,44.357Z" fill="#242259"/>
<path d="M30.559,31.921L27.183,31.921C25.127,31.921 23.46,33.588 23.46,35.643L23.46,37.132C23.46,39.188 25.127,40.855 27.183,40.855L30.559,40.855C32.614,40.855 34.281,39.188 34.281,37.132L34.281,35.643C34.281,33.588 32.614,31.921 30.559,31.921Z" fill="#242259"/>
</svg>
