<svg width="24" height="22" viewBox="0 0 24 22" fill="none" xmlns="http://www.w3.org/2000/svg" xmlns:xlink="http://www.w3.org/1999/xlink">
<path d="M2.319,10.349C2.319,9.797 1.872,9.349 1.319,9.349C0.767,9.349 0.319,9.797 0.319,10.349L2.319,10.349ZM1.319,18.488L0.319,18.488L1.319,18.488ZM23.25,10.349C23.25,9.797 22.802,9.349 22.25,9.349C21.697,9.349 21.25,9.797 21.25,10.349L23.25,10.349ZM0.319,10.349L0.319,18.488L2.319,18.488L2.319,10.349L0.319,10.349ZM0.319,18.488C0.319,19.37 0.67,20.216 1.293,20.84L2.708,19.426C2.459,19.177 2.319,18.84 2.319,18.488L0.319,18.488ZM1.293,20.84C1.917,21.464 2.763,21.814 3.645,21.814L3.645,19.814C3.293,19.814 2.956,19.674 2.708,19.426L1.293,20.84ZM3.645,21.814L19.924,21.814L19.924,19.814L3.645,19.814L3.645,21.814ZM19.924,21.814C20.806,21.814 21.652,21.464 22.276,20.84L20.861,19.426C20.613,19.674 20.276,19.814 19.924,19.814L19.924,21.814ZM22.276,20.84C22.899,20.216 23.25,19.37 23.25,18.488L21.25,18.488C21.25,18.84 21.11,19.177 20.861,19.426L22.276,20.84ZM23.25,18.488L23.25,10.349L21.25,10.349L21.25,18.488L23.25,18.488Z" fill="#9E028F"/>
<path d="M7.715,9.633C7.32,9.247 6.687,9.255 6.301,9.651C5.916,10.046 5.923,10.679 6.319,11.065L7.715,9.633ZM11.785,15L11.086,15.716C11.475,16.095 12.094,16.095 12.483,15.716L11.785,15ZM17.25,11.065C17.646,10.679 17.653,10.046 17.268,9.651C16.882,9.255 16.249,9.247 15.854,9.633L17.25,11.065ZM6.319,11.065L11.086,15.716L12.483,14.284L7.715,9.633L6.319,11.065ZM12.483,15.716L17.25,11.065L15.854,9.633L11.086,14.284L12.483,15.716Z" fill="#9E028F"/>
<line x1="10.785" y1="-0.814" x2="10.785" y2="12.558" stroke="#9E028F" stroke-width="1" stroke-miterlimit="3.999327" stroke-linecap="round" stroke-linejoin="round"/>
</svg>
