<svg width="58" height="50" viewBox="0 0 58 50" fill="none" xmlns="http://www.w3.org/2000/svg" xmlns:xlink="http://www.w3.org/1999/xlink">
<path d="M56.891,44.357L32.191,1.565C30.812,-1.146 26.938,-1.146 25.559,1.565L0.859,44.357C-0.402,46.832 1.396,49.767 4.175,49.767L5.956,49.767C7.356,49.767 8.49,49.348 10.009,46.502L28.875,13.308L47.872,46.717C49.031,48.663 50.385,49.755 51.777,49.759L53.579,49.767C56.354,49.767 58.152,46.832 56.891,44.357Z" fill="#242259"/>
<path d="M30.559,31.92L27.183,31.92C25.127,31.92 23.46,33.587 23.46,35.643L23.46,37.132C23.46,39.188 25.127,40.854 27.183,40.854L30.559,40.854C32.614,40.854 34.281,39.188 34.281,37.132L34.281,35.643C34.281,33.587 32.614,31.92 30.559,31.92Z" fill="#242259"/>
</svg>
