<svg width="42" height="36" viewBox="0 0 42 36" fill="none" xmlns="http://www.w3.org/2000/svg" xmlns:xlink="http://www.w3.org/1999/xlink">
<path d="M41.228,31.908L23.261,0.781C22.258,-1.191 19.44,-1.191 18.437,0.781L0.471,31.908C-0.446,33.708 0.861,35.843 2.883,35.843L4.178,35.843C5.197,35.843 6.021,35.538 7.126,33.468L20.849,9.323L34.668,33.625C35.511,35.04 36.495,35.834 37.508,35.837L38.818,35.843C40.837,35.843 42.145,33.708 41.228,31.908Z" fill="#242259"/>
<path d="M22.074,22.861L19.618,22.861C18.123,22.861 16.911,24.074 16.911,25.569L16.911,26.652C16.911,28.147 18.123,29.36 19.618,29.36L22.074,29.36C23.569,29.36 24.781,28.147 24.781,26.652L24.781,25.569C24.781,24.074 23.569,22.861 22.074,22.861Z" fill="#242259"/>
</svg>
