<svg width="32" height="22" viewBox="0 0 32 22" fill="none" xmlns="http://www.w3.org/2000/svg" xmlns:xlink="http://www.w3.org/1999/xlink">
<path d="M12.399,15.192C13.391,15.74 14.6,16.071 15.887,16.071C19.298,16.071 22.073,13.79 22.073,10.987C22.073,9.93 21.67,8.936 21.003,8.121L19.313,9.51C19.592,9.943 19.747,10.452 19.747,10.987C19.747,12.733 18.011,14.16 15.887,14.16C15.236,14.16 14.616,14.032 14.089,13.803L12.399,15.192ZM26.104,3.93C28.352,5.611 30.258,7.879 31.685,10.606C31.809,10.848 31.809,11.128 31.685,11.357C28.367,17.702 22.46,21.499 15.887,21.499L15.871,21.499C12.879,21.499 10.011,20.696 7.484,19.231L4.476,21.703C4.244,21.894 3.949,21.983 3.655,21.983C3.36,21.983 3.05,21.894 2.833,21.703C2.445,21.384 2.383,20.875 2.694,20.505L2.74,20.454L25.669,1.611C25.7,1.585 25.731,1.56 25.747,1.534C25.778,1.509 25.809,1.483 25.825,1.458L27.282,0.26C27.747,-0.109 28.476,-0.109 28.925,0.26C29.39,0.63 29.39,1.241 28.925,1.611L26.104,3.93ZM9.69,10.993C9.69,11.324 9.736,11.655 9.798,11.961L4.062,16.675C2.512,15.197 1.163,13.413 0.093,11.362C-0.031,11.133 -0.031,10.853 0.093,10.611C3.411,4.266 9.318,0.482 15.875,0.482L15.891,0.482C18.108,0.482 20.263,0.915 22.247,1.73L17.069,5.986C16.697,5.935 16.294,5.896 15.891,5.896C12.465,5.896 9.69,8.177 9.69,10.993Z" clip-rule="evenodd" fill-rule="evenodd" fill="#030229"/>
</svg>
