<svg width="32" height="22" viewBox="0 0 32 22" fill="none" xmlns="http://www.w3.org/2000/svg" xmlns:xlink="http://www.w3.org/1999/xlink">
<path d="M12.399,15.209C13.391,15.757 14.6,16.088 15.887,16.088C19.298,16.088 22.073,13.807 22.073,11.004C22.073,9.947 21.67,8.953 21.003,8.138L19.313,9.526C19.592,9.96 19.747,10.469 19.747,11.004C19.747,12.75 18.011,14.177 15.887,14.177C15.236,14.177 14.616,14.049 14.089,13.82L12.399,15.209ZM26.104,3.946C28.352,5.628 30.258,7.896 31.685,10.623C31.809,10.865 31.809,11.145 31.685,11.374C28.367,17.719 22.46,21.516 15.887,21.516L15.871,21.516C12.879,21.516 10.011,20.713 7.484,19.248L4.476,21.72C4.244,21.911 3.949,22 3.655,22C3.36,22 3.05,21.911 2.833,21.72C2.445,21.401 2.383,20.892 2.694,20.522L2.74,20.471L25.669,1.628C25.7,1.602 25.731,1.577 25.747,1.551C25.778,1.526 25.809,1.5 25.825,1.475L27.282,0.277C27.747,-0.092 28.476,-0.092 28.925,0.277C29.39,0.647 29.39,1.258 28.925,1.628L26.104,3.946ZM9.69,11.01C9.69,11.341 9.736,11.672 9.798,11.978L4.062,16.692C2.512,15.214 1.163,13.43 0.093,11.379C-0.031,11.15 -0.031,10.87 0.093,10.627C3.411,4.283 9.318,0.499 15.875,0.499L15.891,0.499C18.108,0.499 20.263,0.932 22.247,1.747L17.069,6.003C16.697,5.952 16.294,5.913 15.891,5.913C12.465,5.913 9.69,8.194 9.69,11.01Z" clip-rule="evenodd" fill-rule="evenodd" fill="#535353"/>
</svg>
