<svg width="40" height="32" viewBox="0 0 40 32" fill="none" xmlns="http://www.w3.org/2000/svg" xmlns:xlink="http://www.w3.org/1999/xlink">
<path d="M2.085,1.893C3.472,0.506 5.306,-0.191 7.134,-0.191C8.967,-0.191 10.796,0.501 12.184,1.893L19.591,9.301L9.492,19.4L2.085,11.993C-0.691,9.212 -0.691,4.669 2.085,1.893Z" fill="#242259"/>
<path d="M32.49,-0.191C30.661,-0.191 28.828,0.506 27.44,1.889L20.028,9.301L30.128,19.4L37.54,11.993C40.32,9.217 40.32,4.669 37.54,1.893C36.147,0.506 34.319,-0.191 32.49,-0.191ZM22.567,18.449C21.885,18.449 21.333,19.001 21.333,19.683C21.333,20.365 21.885,20.918 22.567,20.918C23.249,20.918 23.802,20.365 23.802,19.683C23.802,19.001 23.249,18.449 22.567,18.449Z" fill="#242259"/>
<path d="M15.953,19.632C15.953,18.95 16.505,18.397 17.187,18.397C17.87,18.397 18.427,18.95 18.422,19.632C18.422,20.314 17.87,20.867 17.187,20.867C16.505,20.867 15.953,20.314 15.953,19.632Z" fill="#242259"/>
<path d="M21.267,25.902C21.267,25.22 21.819,24.668 22.502,24.668C23.184,24.668 23.741,25.225 23.736,25.902C23.736,26.585 23.184,27.137 22.502,27.137C21.819,27.137 21.267,26.585 21.267,25.902Z" fill="#242259"/>
<path d="M15.893,25.851C15.893,25.169 16.445,24.617 17.127,24.617C17.809,24.617 18.362,25.169 18.362,25.851C18.362,26.533 17.809,27.086 17.127,27.086C16.445,27.086 15.893,26.533 15.893,25.851Z" fill="#242259"/>
<path d="M23.718,23.169C23.718,22.486 24.27,21.934 24.952,21.934C25.635,21.934 26.191,22.486 26.187,23.169C26.187,23.851 25.635,24.403 24.952,24.403C24.27,24.403 23.718,23.851 23.718,23.169Z" fill="#242259"/>
<path d="M13.266,22.941C13.266,22.259 13.818,21.707 14.5,21.707C15.182,21.707 15.735,22.264 15.735,22.941C15.735,23.623 15.182,24.176 14.5,24.176C13.818,24.176 13.266,23.623 13.266,22.941Z" fill="#242259"/>
<path d="M18.524,22.756C18.524,22.073 19.076,21.521 19.759,21.521C20.441,21.521 20.993,22.073 20.993,22.756C20.993,23.438 20.441,23.99 19.759,23.99C19.076,23.99 18.524,23.438 18.524,22.756Z" fill="#242259"/>
<path d="M18.584,16.624C18.584,15.942 19.137,15.39 19.819,15.39C20.501,15.39 21.058,15.942 21.054,16.624C21.054,17.307 20.501,17.859 19.819,17.859C19.137,17.859 18.584,17.307 18.584,16.624Z" fill="#242259"/>
<path d="M18.464,28.965C18.464,28.283 19.016,27.731 19.698,27.731C20.381,27.731 20.933,28.283 20.933,28.965C20.933,29.648 20.381,30.2 19.698,30.2C19.016,30.2 18.464,29.648 18.464,28.965Z" fill="#242259"/>
</svg>
