<svg width="42" height="40" viewBox="0 0 42 40" fill="none" xmlns="http://www.w3.org/2000/svg" xmlns:xlink="http://www.w3.org/1999/xlink">
<path d="M15.481,18.098C14.623,18.098 13.945,18.765 13.945,19.608C13.945,20.431 14.623,21.118 15.481,21.118L27.451,21.118L27.451,30.49C27.451,35.294 23.481,39.216 18.573,39.216L8.858,39.216C3.97,39.216 0,35.314 0,30.51L0,8.725C0,3.902 3.99,0 8.878,0L18.613,0C23.481,0 27.451,3.902 27.451,8.706L27.451,18.098L15.481,18.098ZM34.569,12.824L40.295,18.53C40.589,18.824 40.746,19.196 40.746,19.608C40.746,20 40.589,20.393 40.295,20.667L34.569,26.373C34.275,26.667 33.883,26.824 33.51,26.824C33.118,26.824 32.726,26.667 32.432,26.373C31.844,25.785 31.844,24.824 32.432,24.236L35.569,21.118L27.451,21.118L27.451,18.098L35.569,18.098L32.432,14.981C31.844,14.393 31.844,13.432 32.432,12.844C33.02,12.236 33.981,12.236 34.569,12.824Z" clip-rule="evenodd" fill-rule="evenodd" fill="#FFFFFF"/>
</svg>
