<svg width="3096" height="2272" viewBox="0 0 3096 2272" fill="none" xmlns="http://www.w3.org/2000/svg" xmlns:xlink="http://www.w3.org/1999/xlink">
<mask id="mask_0_65_2411" style="mask-type:alpha" maskUnits="userSpaceOnUse" x="519.076172" y="0.431162" width="1107.984258" height="1132.150448">
<path d="M2522.543,1781.56C2520.917,1825.232 2524.171,1868.904 2531.837,1911.182C2554.129,2034.764 2615.009,2149.524 2707.229,2237.564L546.889,2182.484L601.83,27.604L1453.685,49.323C2051.419,8.206 2549.489,481.162 2549.489,1070.268C2549.489,1076.772 2549.269,1083.044 2549.269,1089.548L2549.489,1089.316L2540.897,1310.23L2522.543,1781.56Z" transform="rotate(-2.921 1627.06 1132.582)" fill="#9E028F"/>
</mask>
<g mask="url(#mask_0_65_2411)">
<g style="isolation:isolate">
<path d="M1789.174,1559.858C1940.872,1559.858 2063.9,1436.836 2063.9,1285.146C2063.9,1133.456 1940.872,1010.434 1789.174,1010.434C1637.478,1010.434 1514.452,1133.456 1514.452,1285.146C1514.452,1436.836 1637.478,1559.858 1789.174,1559.858ZM984.066,1784.48C885.298,1784.48 805.276,1864.5 805.276,1963.264C805.276,2062.028 885.298,2142.048 984.066,2142.048C1082.834,2142.048 1162.856,2062.028 1162.856,1963.264C1162.856,1864.5 1082.834,1784.48 984.066,1784.48ZM3094.1,1301.528C3077.1,1095.652 2909.18,929.626 2702.98,914.978C2515.04,901.746 2350.76,1011.222 2282.22,1171.418L2281.76,1172.52C2281.76,1172.52 2281.76,1172.678 2281.6,1172.992L2160.94,1460.78C2102.18,1600.814 1985.766,1708.714 1841.788,1756.756L1841.63,1756.756C1740.184,1790.466 1627.87,1765.42 1550.524,1691.072C1519.492,1661.3 1494.762,1637.516 1494.762,1637.516C1432.224,1577.816 1390.952,1500.002 1375.83,1416.202C1370.632,1387.534 1368.426,1357.92 1369.528,1328.306L1381.974,1008.7L1387.802,858.9L1387.644,859.058C1387.644,854.648 1387.802,850.394 1387.802,845.984C1387.802,446.516 1050.068,125.809 644.756,153.69C302.456,177.318 25.37,454.708 1.742,796.68C-2.512,857.01 1.112,915.764 11.666,972.156C71.053,1295.07 353.966,1539.696 694.22,1539.696C709.814,1539.696 998.716,1560.488 1111.346,1624.442L1189.164,1668.546C1264.932,1711.548 1323.848,1778.652 1356.454,1859.144L1453.176,2097.47L1453.332,2097.312C1478.064,2197.5 1568.482,2272 1676.544,2272C1749.95,2272 1815.008,2237.66 1857.224,2184.42C1891.88,2140.63 2143.76,1885.922 2143.76,1885.922C2203.78,1825.12 2283.8,1788.418 2369.18,1782.59L2705.66,1759.75C2880.98,1746.046 3026.54,1625.544 3076.94,1463.142C3089.38,1423.448 3096,1381.39 3096,1337.442C3095.52,1325.628 3095.22,1313.656 3094.1,1301.528Z" fill="url(#pf_0_65_2409)"/>
</g>
</g>
<defs>
<linearGradient id="pf_0_65_2409" x1="185.296" y1="922.102" x2="2822.748" y2="1776.247" gradientUnits="userSpaceOnUse">
<stop offset="0" stop-color="#FC5252"/>
<stop offset="0.999" stop-color="#9D00C6"/>
</linearGradient>
</defs>
</svg>
