<svg width="34" height="34" viewBox="0 0 34 34" fill="none" xmlns="http://www.w3.org/2000/svg" xmlns:xlink="http://www.w3.org/1999/xlink">
<path d="M29.158,0.146L23.936,0.146L23.936,2.546L29.158,2.546L29.158,0.146ZM23.936,0.146C21.35,0.146 19.254,2.242 19.254,4.827L21.654,4.827C21.654,3.567 22.676,2.546 23.936,2.546L23.936,0.146ZM19.254,4.827L19.254,10.05L21.654,10.05L21.654,4.827L19.254,4.827ZM19.254,10.05C19.254,12.635 21.35,14.731 23.936,14.731L23.936,12.331C22.676,12.331 21.654,11.31 21.654,10.05L19.254,10.05ZM23.936,14.731L29.158,14.731L29.158,12.331L23.936,12.331L23.936,14.731ZM29.158,14.731C31.744,14.731 33.84,12.635 33.84,10.05L31.44,10.05C31.44,11.31 30.418,12.331 29.158,12.331L29.158,14.731ZM33.84,10.05L33.84,4.827L31.44,4.827L31.44,10.05L33.84,10.05ZM33.84,4.827C33.84,2.242 31.744,0.146 29.158,0.146L29.158,2.546C30.418,2.546 31.44,3.567 31.44,4.827L33.84,4.827Z" fill="#242259"/>
<path d="M10.01,0.146L4.787,0.146L4.787,2.546L10.01,2.546L10.01,0.146ZM4.787,0.146C2.202,0.146 0.106,2.242 0.106,4.827L2.506,4.827C2.506,3.567 3.527,2.546 4.787,2.546L4.787,0.146ZM0.106,4.827L0.106,10.05L2.506,10.05L2.506,4.827L0.106,4.827ZM0.106,10.05C0.106,12.635 2.202,14.731 4.787,14.731L4.787,12.331C3.527,12.331 2.506,11.31 2.506,10.05L0.106,10.05ZM4.787,14.731L10.01,14.731L10.01,12.331L4.787,12.331L4.787,14.731ZM10.01,14.731C12.595,14.731 14.691,12.635 14.691,10.05L12.291,10.05C12.291,11.31 11.27,12.331 10.01,12.331L10.01,14.731ZM14.691,10.05L14.691,4.827L12.291,4.827L12.291,10.05L14.691,10.05ZM14.691,4.827C14.691,2.242 12.595,0.146 10.01,0.146L10.01,2.546C11.27,2.546 12.291,3.567 12.291,4.827L14.691,4.827Z" fill="#242259"/>
<path d="M29.158,19.295L23.936,19.295L23.936,21.695L29.158,21.695L29.158,19.295ZM23.936,19.295C21.35,19.295 19.254,21.391 19.254,23.976L21.654,23.976C21.654,22.716 22.676,21.695 23.936,21.695L23.936,19.295ZM19.254,23.976L19.254,29.199L21.654,29.199L21.654,23.976L19.254,23.976ZM19.254,29.199C19.254,31.784 21.35,33.88 23.936,33.88L23.936,31.48C22.676,31.48 21.654,30.459 21.654,29.199L19.254,29.199ZM23.936,33.88L29.158,33.88L29.158,31.48L23.936,31.48L23.936,33.88ZM29.158,33.88C31.744,33.88 33.84,31.784 33.84,29.199L31.44,29.199C31.44,30.459 30.418,31.48 29.158,31.48L29.158,33.88ZM33.84,29.199L33.84,23.976L31.44,23.976L31.44,29.199L33.84,29.199ZM33.84,23.976C33.84,21.391 31.744,19.295 29.158,19.295L29.158,21.695C30.418,21.695 31.44,22.716 31.44,23.976L33.84,23.976Z" fill="#242259"/>
<path d="M10.01,19.295L4.787,19.295L4.787,21.695L10.01,21.695L10.01,19.295ZM4.787,19.295C2.202,19.295 0.106,21.391 0.106,23.976L2.506,23.976C2.506,22.716 3.527,21.695 4.787,21.695L4.787,19.295ZM0.106,23.976L0.106,29.199L2.506,29.199L2.506,23.976L0.106,23.976ZM0.106,29.199C0.106,31.784 2.202,33.88 4.787,33.88L4.787,31.48C3.527,31.48 2.506,30.459 2.506,29.199L0.106,29.199ZM4.787,33.88L10.01,33.88L10.01,31.48L4.787,31.48L4.787,33.88ZM10.01,33.88C12.595,33.88 14.691,31.784 14.691,29.199L12.291,29.199C12.291,30.459 11.27,31.48 10.01,31.48L10.01,33.88ZM14.691,29.199L14.691,23.976L12.291,23.976L12.291,29.199L14.691,29.199ZM14.691,23.976C14.691,21.391 12.595,19.295 10.01,19.295L10.01,21.695C11.27,21.695 12.291,22.716 12.291,23.976L14.691,23.976Z" fill="#242259"/>
</svg>
