<svg width="38" height="40" viewBox="0 0 38 40" fill="none" xmlns="http://www.w3.org/2000/svg" xmlns:xlink="http://www.w3.org/1999/xlink">
<path d="M16.707,40C13.262,40 10.457,37.197 10.457,33.75C10.457,33.06 11.017,32.5 11.707,32.5C12.397,32.5 12.957,33.06 12.957,33.75C12.957,35.818 14.64,37.5 16.707,37.5C18.774,37.5 20.457,35.818 20.457,33.75C20.457,33.06 21.017,32.5 21.707,32.5C22.397,32.5 22.957,33.06 22.957,33.75C22.957,37.197 20.152,40 16.707,40L16.707,40Z" fill="#030229"/>
<path d="M30.457,35L2.957,35C1.349,35 0.041,33.692 0.041,32.083C0.041,31.23 0.412,30.422 1.061,29.867C1.102,29.83 1.147,29.797 1.194,29.767C3.641,27.632 5.041,24.56 5.041,21.317L5.041,16.667C5.041,10.233 10.276,5 16.707,5C16.974,5 17.262,5.005 17.529,5.05C18.211,5.163 18.671,5.808 18.557,6.488C18.444,7.168 17.787,7.628 17.119,7.515C16.986,7.493 16.839,7.5 16.707,7.5C11.654,7.5 7.541,11.612 7.541,16.667L7.541,21.317C7.541,25.343 5.776,29.153 2.702,31.768C2.677,31.788 2.656,31.807 2.629,31.825C2.584,31.882 2.541,31.968 2.541,32.083C2.541,32.31 2.731,32.5 2.957,32.5L30.457,32.5C30.684,32.5 30.874,32.31 30.874,32.083C30.874,31.967 30.831,31.882 30.784,31.825C30.759,31.807 30.737,31.788 30.712,31.768C27.637,29.152 25.874,25.343 25.874,21.317L25.874,19.5C25.874,18.81 26.434,18.25 27.124,18.25C27.814,18.25 28.374,18.81 28.374,19.5L28.374,21.317C28.374,24.562 29.776,27.635 32.226,29.772C32.271,29.802 32.314,29.833 32.354,29.868C33.002,30.422 33.374,31.23 33.374,32.083C33.374,33.692 32.066,35 30.457,35L30.457,35Z" fill="#030229"/>
<path d="M28.374,16.667C23.779,16.667 20.041,12.928 20.041,8.333C20.041,3.738 23.779,0 28.374,0C32.969,0 36.707,3.738 36.707,8.333C36.707,12.928 32.969,16.667 28.374,16.667L28.374,16.667ZM28.374,2.5C25.157,2.5 22.541,5.117 22.541,8.333C22.541,11.55 25.157,14.167 28.374,14.167C31.591,14.167 34.207,11.55 34.207,8.333C34.207,5.117 31.591,2.5 28.374,2.5L28.374,2.5Z" fill="#030229"/>
</svg>
