<svg width="32" height="34" viewBox="0 0 32 34" fill="none" xmlns="http://www.w3.org/2000/svg" xmlns:xlink="http://www.w3.org/1999/xlink">
<path d="M10.188,12.64C10.188,10.233 12.139,8.281 14.547,8.281L16,8.281C16.308,8.281 16.618,8.318 16.921,8.369C17.424,8.453 18.118,8.623 18.83,8.979C19.547,9.338 20.309,9.899 20.888,10.767C21.473,11.645 21.813,12.749 21.813,14.094C21.813,15.438 21.473,16.542 20.888,17.42C20.309,18.289 19.548,18.849 18.83,19.208C18.118,19.564 17.424,19.735 16.921,19.819C16.619,19.869 16.313,19.905 16.007,19.907L13.094,19.907L13.094,24.266C13.094,25.069 12.443,25.719 11.641,25.719C10.838,25.719 10.188,25.069 10.188,24.266L10.188,12.64ZM13.094,12.64L13.094,17L16.001,17C16.524,16.982 17.064,16.842 17.53,16.608C17.903,16.422 18.231,16.166 18.47,15.808C18.702,15.459 18.907,14.929 18.907,14.094C18.907,13.258 18.702,12.728 18.47,12.379C18.231,12.022 17.903,11.765 17.53,11.579C17.064,11.346 16.524,11.205 16.001,11.187L14.547,11.187C13.745,11.187 13.094,11.838 13.094,12.64Z" clip-rule="evenodd" fill-rule="evenodd" fill="#242259"/>
<path d="M16,32.986C24.829,32.986 31.986,25.829 31.986,17C31.986,8.172 24.829,1.015 16,1.015C7.172,1.015 0.015,8.172 0.015,17C0.015,25.829 7.172,32.986 16,32.986ZM16,30.069C8.782,30.069 2.931,24.218 2.931,17C2.931,9.782 8.782,3.931 16,3.931C23.218,3.931 29.069,9.782 29.069,17C29.069,24.218 23.218,30.069 16,30.069Z" clip-rule="evenodd" fill-rule="evenodd" fill="#242259"/>
</svg>
