<svg width="40" height="40" viewBox="0 0 40 40" fill="none" xmlns="http://www.w3.org/2000/svg" xmlns:xlink="http://www.w3.org/1999/xlink">
<path d="M21.255,40L18.745,40C16.714,40 15.062,38.348 15.062,36.318L15.062,35.468C14.199,35.193 13.361,34.845 12.555,34.428L11.953,35.029C10.495,36.489 8.16,36.446 6.745,35.029L4.97,33.255C3.553,31.838 3.512,29.504 4.971,28.046L5.572,27.445C5.155,26.639 4.807,25.801 4.531,24.938L3.682,24.938C1.652,24.938 0,23.286 0,21.255L0,18.745C0,16.714 1.652,15.063 3.682,15.063L4.532,15.063C4.807,14.199 5.155,13.361 5.572,12.555L4.971,11.953C3.512,10.496 3.552,8.162 4.971,6.745L6.745,4.971C8.164,3.55 10.499,3.514 11.954,4.971L12.555,5.572C13.361,5.155 14.199,4.807 15.063,4.531L15.063,3.682C15.063,1.652 16.714,0 18.745,0L21.255,0C23.286,0 24.938,1.652 24.938,3.682L24.938,4.532C25.801,4.807 26.639,5.155 27.445,5.572L28.047,4.971C29.505,3.511 31.84,3.554 33.255,4.971L35.029,6.745C36.447,8.162 36.488,10.496 35.029,11.954L34.428,12.555C34.845,13.361 35.193,14.199 35.468,15.063L36.318,15.063C38.348,15.063 40,16.714 40,18.745L40,21.255C40,23.286 38.348,24.938 36.318,24.938L35.468,24.938C35.193,25.801 34.845,26.639 34.428,27.445L35.029,28.047C36.488,29.504 36.447,31.838 35.029,33.255L33.255,35.03C31.836,36.45 29.501,36.486 28.046,35.029L27.445,34.428C26.639,34.845 25.801,35.193 24.938,35.469L24.938,36.318C24.938,38.348 23.286,40 21.255,40L21.255,40ZM12.947,31.966C14.066,32.628 15.271,33.128 16.527,33.453C17.045,33.586 17.406,34.053 17.406,34.587L17.406,36.318C17.406,37.056 18.007,37.656 18.745,37.656L21.255,37.656C21.993,37.656 22.594,37.056 22.594,36.318L22.594,34.587C22.594,34.053 22.955,33.586 23.473,33.453C24.729,33.128 25.934,32.628 27.053,31.966C27.514,31.694 28.1,31.768 28.479,32.146L29.704,33.372C30.233,33.901 31.081,33.889 31.597,33.373L33.372,31.597C33.887,31.084 33.904,30.235 33.373,29.705L32.147,28.479C31.768,28.1 31.694,27.514 31.967,27.053C32.629,25.934 33.129,24.729 33.453,23.473C33.586,22.955 34.053,22.594 34.588,22.594L36.318,22.594C37.056,22.594 37.656,21.993 37.656,21.255L37.656,18.745C37.656,18.007 37.056,17.406 36.318,17.406L34.588,17.406C34.053,17.406 33.586,17.045 33.453,16.527C33.129,15.271 32.628,14.066 31.967,12.947C31.694,12.486 31.768,11.9 32.147,11.522L33.372,10.296C33.902,9.767 33.888,8.918 33.373,8.403L31.597,6.628C31.083,6.113 30.234,6.098 29.705,6.628L28.479,7.854C28.1,8.232 27.514,8.306 27.054,8.034C25.934,7.372 24.73,6.872 23.473,6.547C22.955,6.414 22.594,5.947 22.594,5.413L22.594,3.682C22.594,2.944 21.993,2.344 21.255,2.344L18.745,2.344C18.007,2.344 17.406,2.944 17.406,3.682L17.406,5.413C17.406,5.947 17.045,6.414 16.527,6.547C15.271,6.872 14.066,7.372 12.947,8.034C12.486,8.306 11.9,8.232 11.521,7.854L10.296,6.628C9.767,6.099 8.919,6.111 8.403,6.627L6.628,8.403C6.114,8.916 6.096,9.765 6.627,10.295L7.854,11.521C8.232,11.9 8.306,12.486 8.034,12.947C7.372,14.066 6.872,15.271 6.547,16.527C6.414,17.045 5.947,17.406 5.413,17.406L3.682,17.406C2.944,17.406 2.344,18.007 2.344,18.745L2.344,21.255C2.344,21.993 2.944,22.594 3.682,22.594L5.413,22.594C5.947,22.594 6.414,22.955 6.547,23.473C6.872,24.729 7.372,25.934 8.034,27.053C8.306,27.514 8.232,28.1 7.853,28.478L6.628,29.704C6.098,30.233 6.112,31.082 6.627,31.597L8.403,33.372C8.917,33.887 9.766,33.903 10.295,33.373L11.521,32.146C11.8,31.868 12.38,31.631 12.947,31.966L12.947,31.966Z" fill="#030229"/>
<path d="M20,28.703C15.201,28.703 11.297,24.799 11.297,20C11.297,15.201 15.201,11.297 20,11.297C24.799,11.297 28.703,15.201 28.703,20C28.703,24.799 24.799,28.703 20,28.703L20,28.703ZM20,13.641C16.493,13.641 13.641,16.493 13.641,20C13.641,23.507 16.493,26.359 20,26.359C23.507,26.359 26.359,23.507 26.359,20C26.359,16.493 23.507,13.641 20,13.641L20,13.641Z" fill="#030229"/>
</svg>
