<svg width="18" height="20" viewBox="0 0 18 20" fill="none" xmlns="http://www.w3.org/2000/svg" xmlns:xlink="http://www.w3.org/1999/xlink">
<path d="M7.259,18.36C5.795,18.36 4.583,18.096 3.623,17.568C2.663,17.016 1.943,16.2 1.463,15.12C1.007,14.04 0.779,12.696 0.779,11.088L0.779,2.376C0.779,1.608 0.971,1.044 1.355,0.684C1.739,0.3 2.291,0.108 3.011,0.108C3.731,0.108 4.283,0.3 4.667,0.684C5.075,1.044 5.279,1.608 5.279,2.376L5.279,11.16C5.279,12.408 5.531,13.332 6.035,13.932C6.539,14.532 7.343,14.832 8.447,14.832C9.647,14.832 10.631,14.424 11.399,13.608C12.167,12.768 12.551,11.664 12.551,10.296L12.551,2.376C12.551,1.608 12.743,1.044 13.127,0.684C13.511,0.3 14.063,0.108 14.783,0.108C15.503,0.108 16.055,0.3 16.439,0.684C16.847,1.044 17.051,1.608 17.051,2.376L17.051,15.984C17.051,17.52 16.319,18.288 14.855,18.288C14.159,18.288 13.619,18.096 13.235,17.712C12.851,17.304 12.659,16.728 12.659,15.984L12.659,13.248L13.163,14.328C12.659,15.624 11.891,16.62 10.859,17.316C9.851,18.012 8.651,18.36 7.259,18.36Z" fill="#9E028F"/>
</svg>
