<svg width="14" height="26" viewBox="0 0 14 26" fill="none" xmlns="http://www.w3.org/2000/svg" xmlns:xlink="http://www.w3.org/1999/xlink">
<path d="M11.796,0.287L1.631,0.287C0.396,0.287 -0.548,1.231 -0.548,2.465L-0.548,24.248C-0.548,24.612 -0.185,24.975 0.178,24.975L3.083,24.975C3.518,24.975 3.809,24.684 3.809,24.248L3.809,19.892C3.809,19.456 4.099,19.166 4.535,19.166L8.892,19.166C9.327,19.166 9.618,19.456 9.618,19.892L9.618,24.248C9.618,24.684 9.908,24.975 10.344,24.975L12.522,24.975C13.321,24.975 13.975,24.321 13.975,23.522L13.975,2.465C13.975,1.231 13.031,0.287 11.796,0.287ZM5.261,15.898C5.261,16.116 5.116,16.261 4.898,16.261L2.72,16.261C2.502,16.261 2.357,16.116 2.357,15.898L2.357,12.268C2.357,12.05 2.502,11.905 2.72,11.905L4.898,11.905C5.116,11.905 5.261,12.05 5.261,12.268L5.261,15.898ZM5.261,8.637C5.261,8.855 5.116,9 4.898,9L2.72,9C2.502,9 2.357,8.855 2.357,8.637L2.357,5.006C2.357,4.789 2.502,4.643 2.72,4.643L4.898,4.643C5.116,4.643 5.261,4.789 5.261,5.006L5.261,8.637ZM11.07,15.898C11.07,16.116 10.925,16.261 10.707,16.261L8.529,16.261C8.311,16.261 8.166,16.116 8.166,15.898L8.166,12.268C8.166,12.05 8.311,11.905 8.529,11.905L10.707,11.905C10.925,11.905 11.07,12.05 11.07,12.268L11.07,15.898ZM11.07,8.637C11.07,8.855 10.925,9 10.707,9L8.529,9C8.311,9 8.166,8.855 8.166,8.637L8.166,5.006C8.166,4.789 8.311,4.643 8.529,4.643L10.707,4.643C10.925,4.643 11.07,4.789 11.07,5.006L11.07,8.637Z" fill="#242259"/>
</svg>
