<svg width="16" height="20" viewBox="0 0 16 20" fill="none" xmlns="http://www.w3.org/2000/svg" xmlns:xlink="http://www.w3.org/1999/xlink">
<path d="M5.714,18.36C4.442,18.36 3.302,18.12 2.294,17.64C1.31,17.136 0.53,16.464 -0.046,15.624C-0.598,14.784 -0.874,13.836 -0.874,12.78C-0.874,11.484 -0.538,10.464 0.134,9.72C0.806,8.952 1.898,8.4 3.41,8.064C4.922,7.728 6.95,7.56 9.494,7.56L11.294,7.56L11.294,10.152L9.53,10.152C8.042,10.152 6.854,10.224 5.966,10.368C5.078,10.512 4.442,10.764 4.058,11.124C3.698,11.46 3.518,11.94 3.518,12.564C3.518,13.356 3.794,14.004 4.346,14.508C4.898,15.012 5.666,15.264 6.65,15.264C7.442,15.264 8.138,15.084 8.738,14.724C9.362,14.34 9.854,13.824 10.214,13.176C10.574,12.528 10.754,11.784 10.754,10.944L10.754,6.804C10.754,5.604 10.49,4.74 9.962,4.212C9.434,3.684 8.546,3.42 7.298,3.42C6.602,3.42 5.846,3.504 5.03,3.672C4.238,3.84 3.398,4.128 2.51,4.536C2.054,4.752 1.646,4.812 1.286,4.716C0.95,4.62 0.686,4.428 0.494,4.14C0.302,3.828 0.206,3.492 0.206,3.132C0.206,2.772 0.302,2.424 0.494,2.088C0.686,1.728 1.01,1.464 1.466,1.296C2.57,0.84 3.626,0.516 4.634,0.324C5.666,0.132 6.602,0.036 7.442,0.036C9.17,0.036 10.586,0.3 11.69,0.828C12.818,1.356 13.658,2.16 14.21,3.24C14.762,4.296 15.038,5.664 15.038,7.344L15.038,15.984C15.038,16.728 14.858,17.304 14.498,17.712C14.138,18.096 13.622,18.288 12.95,18.288C12.278,18.288 11.75,18.096 11.366,17.712C11.006,17.304 10.826,16.728 10.826,15.984L10.826,14.256L11.114,14.256C10.946,15.096 10.61,15.828 10.106,16.452C9.626,17.052 9.014,17.52 8.27,17.856C7.526,18.192 6.674,18.36 5.714,18.36Z" fill="#9E028F"/>
</svg>
