<svg width="34" height="34" viewBox="0 0 34 34" fill="none" xmlns="http://www.w3.org/2000/svg" xmlns:xlink="http://www.w3.org/1999/xlink">
<path d="M32.217,30.611L24.554,22.948C26.454,20.632 27.598,17.666 27.598,14.433C27.598,7.017 21.581,1 14.165,1C6.743,1 0.732,7.017 0.732,14.433C0.732,21.849 6.743,27.866 14.165,27.866C17.399,27.866 20.358,26.728 22.674,24.828L30.337,32.485C30.858,33.005 31.697,33.005 32.217,32.485C32.738,31.971 32.738,31.125 32.217,30.611ZM14.165,25.192C8.226,25.192 3.4,20.366 3.4,14.433C3.4,8.5 8.226,3.667 14.165,3.667C20.098,3.667 24.931,8.5 24.931,14.433C24.931,20.366 20.098,25.192 14.165,25.192Z" fill="#242259"/>
</svg>
