<svg width="26" height="28" viewBox="0 0 26 28" fill="none" xmlns="http://www.w3.org/2000/svg" xmlns:xlink="http://www.w3.org/1999/xlink">
<path d="M1.139,26.288C0.467,26.288 -0.049,26.096 -0.409,25.712C-0.769,25.328 -0.949,24.8 -0.949,24.128L-0.949,2.492C-0.949,1.796 -0.757,1.268 -0.373,0.908C0.011,0.524 0.539,0.332 1.211,0.332C1.811,0.332 2.279,0.452 2.615,0.692C2.975,0.908 3.299,1.292 3.587,1.844L12.479,18.296L11.327,18.296L20.219,1.844C20.507,1.292 20.819,0.908 21.155,0.692C21.491,0.452 21.959,0.332 22.559,0.332C23.231,0.332 23.747,0.524 24.107,0.908C24.467,1.268 24.647,1.796 24.647,2.492L24.647,24.128C24.647,24.8 24.467,25.328 24.107,25.712C23.771,26.096 23.255,26.288 22.559,26.288C21.887,26.288 21.371,26.096 21.011,25.712C20.651,25.328 20.471,24.8 20.471,24.128L20.471,7.46L21.263,7.46L13.703,21.248C13.463,21.656 13.211,21.956 12.947,22.148C12.683,22.34 12.323,22.436 11.867,22.436C11.411,22.436 11.039,22.34 10.751,22.148C10.463,21.932 10.211,21.632 9.995,21.248L2.363,7.424L3.227,7.424L3.227,24.128C3.227,24.8 3.047,25.328 2.687,25.712C2.351,26.096 1.835,26.288 1.139,26.288Z" fill="#9E028F"/>
</svg>
