<svg width="38" height="42" viewBox="0 0 38 42" fill="none" xmlns="http://www.w3.org/2000/svg" xmlns:xlink="http://www.w3.org/1999/xlink">
<path d="M17.556,-0.37C13.234,-0.37 9.089,1.347 6.033,4.403C2.977,7.459 1.26,11.604 1.26,15.926L1.26,19.796C0.645,20.332 0.147,20.988 -0.203,21.724C-0.554,22.459 -0.749,23.259 -0.777,24.074C-0.731,25.255 -0.329,26.395 0.376,27.344C1.082,28.292 2.057,29.006 3.175,29.391C5.823,35.726 11.139,40.37 17.556,40.37L23.667,40.37L23.667,36.296L17.556,36.296C12.952,36.296 8.776,32.833 6.678,27.354L6.25,26.233L5.049,26.111C4.559,26.042 4.112,25.797 3.789,25.422C3.467,25.048 3.292,24.568 3.297,24.074C3.299,23.719 3.394,23.37 3.573,23.062C3.751,22.755 4.007,22.5 4.315,22.322L5.334,21.731L5.334,17.963C5.334,17.423 5.548,16.905 5.93,16.523C6.312,16.141 6.831,15.926 7.371,15.926L27.741,15.926C28.281,15.926 28.8,16.141 29.182,16.523C29.564,16.905 29.778,17.423 29.778,17.963L29.778,28.148L21.447,28.148C21.262,27.63 20.94,27.171 20.516,26.82C20.092,26.469 19.58,26.239 19.036,26.155C18.492,26.071 17.936,26.135 17.425,26.341C16.914,26.547 16.469,26.887 16.136,27.326C15.803,27.764 15.594,28.284 15.532,28.831C15.471,29.378 15.558,29.932 15.785,30.434C16.011,30.935 16.37,31.366 16.821,31.681C17.273,31.996 17.801,32.183 18.35,32.222L33.852,32.222C34.933,32.222 35.969,31.793 36.733,31.029C37.497,30.265 37.926,29.229 37.926,28.148L37.926,24.074C37.926,22.994 37.497,21.957 36.733,21.193C35.969,20.429 34.933,20 33.852,20L33.852,15.926C33.852,11.604 32.135,7.459 29.079,4.403C26.023,1.347 21.878,-0.37 17.556,-0.37Z" fill="#000000"/>
</svg>
