<svg width="16" height="20" viewBox="0 0 16 20" fill="none" xmlns="http://www.w3.org/2000/svg" xmlns:xlink="http://www.w3.org/1999/xlink">
<path d="M6.714,18.36C5.682,18.36 4.59,18.252 3.438,18.036C2.286,17.82 1.254,17.448 0.342,16.92C-0.042,16.68 -0.318,16.404 -0.486,16.092C-0.63,15.756 -0.69,15.432 -0.666,15.12C-0.618,14.784 -0.498,14.496 -0.306,14.256C-0.09,14.016 0.174,13.86 0.486,13.788C0.822,13.716 1.182,13.776 1.566,13.968C2.526,14.424 3.426,14.748 4.266,14.94C5.106,15.108 5.934,15.192 6.75,15.192C7.902,15.192 8.754,15 9.306,14.616C9.882,14.208 10.17,13.68 10.17,13.032C10.17,12.48 9.978,12.06 9.594,11.772C9.234,11.46 8.682,11.232 7.938,11.088L4.338,10.404C2.85,10.116 1.71,9.576 0.918,8.784C0.15,7.968 -0.234,6.924 -0.234,5.652C-0.234,4.5 0.078,3.504 0.702,2.664C1.35,1.824 2.238,1.176 3.366,0.72C4.494,0.264 5.79,0.036 7.254,0.036C8.31,0.036 9.294,0.156 10.206,0.396C11.142,0.612 12.042,0.96 12.906,1.44C13.266,1.632 13.506,1.884 13.626,2.196C13.77,2.508 13.806,2.832 13.734,3.168C13.662,3.48 13.518,3.768 13.302,4.032C13.086,4.272 12.81,4.428 12.474,4.5C12.162,4.548 11.802,4.476 11.394,4.284C10.65,3.9 9.93,3.624 9.234,3.456C8.562,3.288 7.914,3.204 7.29,3.204C6.114,3.204 5.238,3.408 4.662,3.816C4.11,4.224 3.834,4.764 3.834,5.436C3.834,5.94 4.002,6.36 4.338,6.696C4.674,7.032 5.19,7.26 5.886,7.38L9.486,8.064C11.046,8.352 12.222,8.88 13.014,9.648C13.83,10.416 14.238,11.448 14.238,12.744C14.238,14.496 13.554,15.876 12.186,16.884C10.818,17.868 8.994,18.36 6.714,18.36Z" fill="#9E028F"/>
</svg>
