<svg width="26" height="26" viewBox="0 0 26 26" fill="none" xmlns="http://www.w3.org/2000/svg" xmlns:xlink="http://www.w3.org/1999/xlink">
<path d="M0.905,8.441L-0.079,8.617L-0.079,8.619L0.905,8.441ZM6.839,0.814L6.761,-0.183L6.76,-0.183L6.839,0.814ZM12.518,5.67L13.48,5.395L13.462,5.333L13.436,5.273L12.518,5.67ZM12.646,5.67L11.706,5.327L11.694,5.361L11.684,5.395L12.646,5.67ZM18.366,0.839L18.466,1.834L18.472,1.834L18.366,0.839ZM24.264,7.866L25.253,8.019L25.253,8.014L24.264,7.866ZM12.508,23.024L11.947,23.852L12.539,24.253L13.111,23.822L12.508,23.024ZM1.889,8.265C1.292,4.934 3.462,2.085 6.918,1.811L6.76,-0.183C2.131,0.184 -0.886,4.118 -0.079,8.617L1.889,8.265ZM6.917,1.811C8.225,1.708 9.268,2.43 10.104,3.458C10.936,4.484 11.419,5.647 11.601,6.066L13.436,5.273C13.262,4.869 12.685,3.464 11.656,2.198C10.63,0.934 9.012,-0.36 6.761,-0.183L6.917,1.811ZM11.557,5.944C11.621,6.167 11.755,6.363 11.94,6.503L13.144,4.906C13.306,5.028 13.424,5.2 13.48,5.395L11.557,5.944ZM11.94,6.503C12.125,6.642 12.35,6.718 12.582,6.718L12.582,4.718C12.785,4.718 12.982,4.784 13.144,4.906L11.94,6.503ZM12.582,6.718C12.814,6.718 13.039,6.642 13.224,6.503L12.02,4.906C12.182,4.784 12.379,4.718 12.582,4.718L12.582,6.718ZM13.224,6.503C13.409,6.363 13.544,6.167 13.607,5.944L11.684,5.395C11.74,5.2 11.858,5.028 12.02,4.906L13.224,6.503ZM13.585,6.012C14.34,3.942 15.363,2.96 16.228,2.462C17.114,1.952 17.935,1.888 18.466,1.834L18.266,-0.156C17.74,-0.103 16.526,-0.017 15.23,0.729C13.912,1.487 12.603,2.867 11.706,5.327L13.585,6.012ZM18.472,1.834C19.621,1.711 20.992,2.099 21.982,3.04C22.936,3.946 23.616,5.442 23.275,7.718L25.253,8.014C25.68,5.161 24.835,2.99 23.36,1.589C21.921,0.223 19.959,-0.337 18.259,-0.155L18.472,1.834ZM23.276,7.714C23.032,9.295 22.243,10.994 21.129,12.689C20.02,14.374 18.63,15.997 17.255,17.42C15.883,18.84 14.542,20.045 13.543,20.895C13.044,21.32 12.632,21.655 12.346,21.882C12.203,21.996 12.091,22.083 12.016,22.141C11.979,22.17 11.951,22.192 11.932,22.206C11.923,22.213 11.916,22.218 11.911,22.222C11.909,22.223 11.908,22.224 11.907,22.225C11.906,22.225 11.906,22.226 11.906,22.226C11.906,22.226 11.906,22.226 11.906,22.226C11.906,22.226 11.906,22.226 12.508,23.024C13.111,23.822 13.111,23.822 13.111,23.822C13.111,23.822 13.111,23.822 13.112,23.822C13.112,23.821 13.113,23.821 13.114,23.82C13.115,23.819 13.118,23.817 13.121,23.815C13.127,23.81 13.135,23.804 13.146,23.795C13.168,23.779 13.199,23.754 13.24,23.723C13.322,23.66 13.441,23.567 13.591,23.447C13.892,23.207 14.321,22.859 14.839,22.418C15.873,21.539 17.264,20.289 18.694,18.81C20.121,17.333 21.601,15.611 22.8,13.787C23.993,11.972 24.947,9.997 25.253,8.019L23.276,7.714ZM12.508,23.024C13.07,22.196 13.07,22.197 13.07,22.197C13.07,22.197 13.07,22.197 13.07,22.197C13.07,22.197 13.07,22.196 13.069,22.196C13.069,22.196 13.067,22.195 13.065,22.193C13.061,22.191 13.055,22.186 13.046,22.18C13.029,22.168 13.002,22.15 12.967,22.125C12.896,22.075 12.79,22 12.654,21.902C12.381,21.704 11.987,21.411 11.508,21.035C10.55,20.283 9.26,19.202 7.929,17.89C5.23,15.228 2.525,11.768 1.889,8.262L-0.079,8.619C0.673,12.767 3.77,16.598 6.525,19.314C7.922,20.692 9.272,21.822 10.273,22.608C10.774,23.001 11.189,23.31 11.48,23.521C11.625,23.626 11.74,23.708 11.82,23.763C11.859,23.791 11.89,23.813 11.912,23.827C11.922,23.835 11.931,23.84 11.937,23.844C11.94,23.846 11.942,23.848 11.944,23.849C11.944,23.85 11.945,23.85 11.946,23.851C11.946,23.851 11.946,23.851 11.946,23.851C11.947,23.851 11.947,23.852 12.508,23.024Z" fill="#9E028F"/>
</svg>
