<svg width="16" height="32" viewBox="0 0 16 32" fill="none" xmlns="http://www.w3.org/2000/svg" xmlns:xlink="http://www.w3.org/1999/xlink">
<path d="M12.369,-0.975L2.204,-0.975C0.969,-0.975 0.025,-0.031 0.025,1.204L0.025,30.248C0.025,30.612 0.388,30.975 0.752,30.975L3.656,30.975C4.092,30.975 4.382,30.684 4.382,30.248L4.382,25.892C4.382,25.456 4.673,25.166 5.108,25.166L9.465,25.166C9.901,25.166 10.191,25.456 10.191,25.892L10.191,30.248C10.191,30.684 10.481,30.975 10.917,30.975L13.096,30.975C13.894,30.975 14.548,30.321 14.548,29.522L14.548,1.204C14.548,-0.031 13.604,-0.975 12.369,-0.975ZM5.834,21.898C5.834,22.116 5.689,22.261 5.471,22.261L3.293,22.261C3.075,22.261 2.93,22.116 2.93,21.898L2.93,18.268C2.93,18.05 3.075,17.904 3.293,17.904L5.471,17.904C5.689,17.904 5.834,18.05 5.834,18.268L5.834,21.898ZM5.834,14.637C5.834,14.855 5.689,15 5.471,15L3.293,15C3.075,15 2.93,14.855 2.93,14.637L2.93,11.006C2.93,10.788 3.075,10.643 3.293,10.643L5.471,10.643C5.689,10.643 5.834,10.788 5.834,11.006L5.834,14.637ZM5.834,7.376C5.834,7.594 5.689,7.739 5.471,7.739L3.293,7.739C3.075,7.739 2.93,7.594 2.93,7.376L2.93,3.745C2.93,3.527 3.075,3.382 3.293,3.382L5.471,3.382C5.689,3.382 5.834,3.527 5.834,3.745L5.834,7.376ZM11.643,21.898C11.643,22.116 11.498,22.261 11.28,22.261L9.102,22.261C8.884,22.261 8.739,22.116 8.739,21.898L8.739,18.268C8.739,18.05 8.884,17.904 9.102,17.904L11.28,17.904C11.498,17.904 11.643,18.05 11.643,18.268L11.643,21.898ZM11.643,14.637C11.643,14.855 11.498,15 11.28,15L9.102,15C8.884,15 8.739,14.855 8.739,14.637L8.739,11.006C8.739,10.788 8.884,10.643 9.102,10.643L11.28,10.643C11.498,10.643 11.643,10.788 11.643,11.006L11.643,14.637ZM11.643,7.376C11.643,7.594 11.498,7.739 11.28,7.739L9.102,7.739C8.884,7.739 8.739,7.594 8.739,7.376L8.739,3.745C8.739,3.527 8.884,3.382 9.102,3.382L11.28,3.382C11.498,3.382 11.643,3.527 11.643,3.745L11.643,7.376Z" fill="#242259"/>
</svg>
