<svg width="30" height="34" viewBox="0 0 30 34" fill="none" xmlns="http://www.w3.org/2000/svg" xmlns:xlink="http://www.w3.org/1999/xlink">
<path d="M23.854,16.149C22.913,20.667 18.909,24.062 14.111,24.062C9.313,24.062 5.309,20.667 4.368,16.149L9.086,16.149C9.309,17.099 9.794,17.948 10.461,18.614C11.395,19.549 12.686,20.127 14.112,20.127C15.42,20.127 16.62,19.632 17.535,18.818C17.614,18.755 17.689,18.687 17.762,18.614C18.429,17.948 18.915,17.099 19.138,16.149L23.854,16.149ZM4.785,29.996L12.403,29.996L12.403,28.116C9.189,27.728 6.308,26.26 4.134,24.086C1.579,21.532 0,18.003 0,14.107C0,10.211 1.579,6.683 4.134,4.129C5.012,3.251 5.998,2.452 7.078,1.812C11.187,-0.628 17.207,-0.606 21.286,1.893C22.311,2.521 23.25,3.289 24.09,4.129C26.644,6.683 28.223,10.211 28.223,14.107C28.223,18.003 26.644,21.532 24.09,24.086C21.915,26.26 19.033,27.728 15.819,28.116L15.819,29.996L23.437,29.996C24.754,29.996 25.829,31.077 25.829,32.388L25.829,33.965L2.393,33.965L2.393,32.388C2.393,31.072 3.469,29.996 4.785,29.996ZM14.111,2.145C20.719,2.145 26.076,7.501 26.076,14.109C26.076,20.717 20.719,26.074 14.111,26.074C7.503,26.074 2.147,20.717 2.147,14.109C2.147,7.501 7.503,2.145 14.111,2.145ZM8.414,5.92C8.218,5.58 8.333,5.145 8.673,4.948C9.013,4.751 9.448,4.868 9.644,5.207L10.533,6.746C10.73,7.086 10.614,7.521 10.274,7.718C9.935,7.914 9.499,7.799 9.303,7.459L8.414,5.92ZM5.103,9.922C4.763,9.727 4.646,9.293 4.841,8.953C5.036,8.614 5.47,8.497 5.809,8.691L7.349,9.58C7.688,9.774 7.805,10.209 7.61,10.549C7.416,10.888 6.981,11.005 6.642,10.81L5.103,9.922ZM22.413,8.29C22.753,8.096 23.187,8.212 23.382,8.552C23.577,8.892 23.459,9.326 23.12,9.521L21.581,10.409C21.241,10.604 20.807,10.487 20.612,10.148C20.417,9.808 20.535,9.373 20.874,9.179L22.413,8.29ZM18.408,4.979C18.603,4.639 19.037,4.522 19.377,4.717C19.717,4.911 19.834,5.346 19.639,5.686L18.75,7.224C18.555,7.564 18.122,7.681 17.782,7.486C17.442,7.291 17.325,6.857 17.52,6.518L18.408,4.979ZM13.283,4.109C13.283,3.715 13.602,3.396 13.995,3.396C14.389,3.396 14.708,3.715 14.708,4.109L14.708,5.886C14.708,6.279 14.389,6.599 13.995,6.599C13.602,6.599 13.283,6.279 13.283,5.886L13.283,4.109ZM15.246,12.856C15.995,13.259 16.505,14.052 16.505,14.964C16.505,16.286 15.433,17.357 14.112,17.357C12.79,17.357 11.719,16.286 11.719,14.964C11.719,14.052 12.229,13.259 12.979,12.856L12.979,9.099L14.112,7.966L15.246,9.099L15.246,12.856Z" clip-rule="evenodd" fill-rule="evenodd" fill="#242259"/>
</svg>
