<svg width="26" height="28" viewBox="0 0 26 28" fill="none" xmlns="http://www.w3.org/2000/svg" xmlns:xlink="http://www.w3.org/1999/xlink">
<path d="M3.024,26.288C2.448,26.288 1.98,26.156 1.62,25.892C1.284,25.628 1.08,25.28 1.008,24.848C0.936,24.392 1.02,23.888 1.26,23.336L10.764,2.276C11.076,1.58 11.448,1.088 11.88,0.8C12.336,0.488 12.852,0.332 13.428,0.332C13.98,0.332 14.472,0.488 14.904,0.8C15.36,1.088 15.744,1.58 16.056,2.276L25.596,23.336C25.86,23.888 25.956,24.392 25.884,24.848C25.812,25.304 25.608,25.664 25.272,25.928C24.936,26.168 24.492,26.288 23.94,26.288C23.268,26.288 22.74,26.132 22.356,25.82C21.996,25.484 21.672,24.98 21.384,24.308L19.044,18.872L20.988,20.132L5.796,20.132L7.74,18.872L5.436,24.308C5.124,25.004 4.8,25.508 4.464,25.82C4.128,26.132 3.648,26.288 3.024,26.288ZM13.356,5.624L8.316,17.612L7.38,16.46L19.404,16.46L18.504,17.612L13.428,5.624L13.356,5.624Z" fill="#9E028F"/>
</svg>
