<svg width="40" height="36" viewBox="0 0 40 36" fill="none" xmlns="http://www.w3.org/2000/svg" xmlns:xlink="http://www.w3.org/1999/xlink">
<path d="M0,27.334C0,31.9 3.696,35.627 8.293,35.627L9.132,35.627C13.698,35.627 17.425,31.931 17.425,27.334L17.425,18.202L0,18.202L0,27.334ZM1.646,19.879L15.717,19.879L15.717,27.334C15.717,30.999 12.735,33.95 9.101,33.95L8.262,33.95C4.597,33.95 1.646,30.968 1.646,27.334L1.646,19.879ZM39.168,23.731L23.575,30.067C24.973,32.863 27.8,34.758 31.061,34.758C35.72,34.758 39.479,30.875 39.479,26.06C39.479,25.284 39.386,24.476 39.168,23.731ZM31.061,17.394C26.402,17.394 22.644,21.277 22.644,26.091C22.644,26.899 22.768,27.676 22.954,28.421L38.547,22.085C37.118,19.289 34.323,17.394 31.061,17.394ZM9.101,0L8.262,0C3.696,0 0,3.696 0,8.262L0,17.363L17.394,17.363L17.394,8.262C17.394,3.696 13.698,0 9.101,0Z" fill="#FFFFFF"/>
</svg>
