<svg width="16" height="20" viewBox="0 0 16 20" fill="none" xmlns="http://www.w3.org/2000/svg" xmlns:xlink="http://www.w3.org/1999/xlink">
<path d="M1.72,18.288C1,18.288 0.448,18.096 0.064,17.712C-0.32,17.304 -0.512,16.728 -0.512,15.984L-0.512,2.376C-0.512,1.632 -0.32,1.068 0.064,0.684C0.448,0.3 0.988,0.108 1.684,0.108C2.38,0.108 2.92,0.3 3.304,0.684C3.688,1.068 3.88,1.632 3.88,2.376L3.88,4.824L3.484,3.924C4.012,2.652 4.828,1.692 5.932,1.044C7.06,0.372 8.332,0.036 9.748,0.036C11.164,0.036 12.328,0.3 13.24,0.828C14.152,1.356 14.836,2.16 15.292,3.24C15.748,4.296 15.976,5.64 15.976,7.272L15.976,15.984C15.976,16.728 15.784,17.304 15.4,17.712C15.016,18.096 14.464,18.288 13.744,18.288C13.024,18.288 12.46,18.096 12.052,17.712C11.668,17.304 11.476,16.728 11.476,15.984L11.476,7.488C11.476,6.12 11.212,5.124 10.684,4.5C10.18,3.876 9.388,3.564 8.308,3.564C6.988,3.564 5.932,3.984 5.14,4.824C4.372,5.64 3.988,6.732 3.988,8.1L3.988,15.984C3.988,17.52 3.232,18.288 1.72,18.288Z" fill="#9E028F"/>
</svg>
