<svg width="52" height="50" viewBox="0 0 52 50" fill="none" xmlns="http://www.w3.org/2000/svg" xmlns:xlink="http://www.w3.org/1999/xlink">
<path d="M50.331,3.304L50.331,44.649C50.331,48.773 45.593,51.104 42.328,48.587L41.372,47.851L9.159,12.678L9.159,45.998C9.159,48.054 7.493,49.721 5.437,49.721L3.918,49.721C1.862,49.721 0.196,48.054 0.196,45.998L0.196,4.56C0.196,0.436 4.933,-1.895 8.199,0.622L9.155,1.358L41.367,36.531L41.367,3.299C41.367,1.244 43.034,-0.423 45.09,-0.423L46.604,-0.423C48.664,-0.419 50.331,1.248 50.331,3.304Z" fill="#9E028F"/>
</svg>
