<svg width="50" height="50" viewBox="0 0 50 50" fill="none" xmlns="http://www.w3.org/2000/svg" xmlns:xlink="http://www.w3.org/1999/xlink">
<path d="M24.568,-0.402C38.384,-0.402 49.606,10.791 49.606,24.636C49.606,30.77 47.402,36.426 43.684,40.774C43.236,41.311 42.762,41.844 42.254,42.352C37.728,46.908 31.476,49.704 24.568,49.704L3.223,49.704C1.167,49.704 -0.5,48.037 -0.5,45.981L-0.5,3.321C-0.5,1.265 1.167,-0.402 3.223,-0.402L24.568,-0.402ZM8.434,40.77L24.572,40.77C33.443,40.77 40.681,33.536 40.681,24.632C40.681,15.761 33.447,8.524 24.572,8.524L8.434,8.524L8.434,40.77Z" fill="#242259"/>
</svg>
