<svg width="44" height="36" viewBox="0 0 44 36" fill="none" xmlns="http://www.w3.org/2000/svg" xmlns:xlink="http://www.w3.org/1999/xlink">
<path d="M24.02,0C14.08,0 6.02,8.06 6.02,18L0.02,18L7.8,25.78L7.94,26.06L16.02,18L10.02,18C10.02,10.26 16.28,4 24.02,4C31.76,4 38.02,10.26 38.02,18C38.02,25.74 31.76,32 24.02,32C20.16,32 16.66,30.42 14.14,27.88L11.3,30.72C14.56,33.98 19.04,36 24.02,36C33.96,36 42.02,27.94 42.02,18C42.02,8.06 33.96,0 24.02,0ZM22.02,10L22.02,20L30.58,25.08L32.02,22.66L25.02,18.5L25.02,10L22.02,10Z" fill="#FFFFFF"/>
</svg>
