<svg width="36" height="36" viewBox="0 0 36 36" fill="none" xmlns="http://www.w3.org/2000/svg" xmlns:xlink="http://www.w3.org/1999/xlink">
<path d="M5.717,9.172L5.717,12.572L32.551,12.572C34.046,12.572 35.259,13.785 35.259,15.28L35.259,16.363C35.259,17.858 34.046,19.071 32.551,19.071L5.717,19.071L5.717,25.957C5.717,27.803 7.228,29.314 9.074,29.314L32.96,29.314C34.455,29.314 35.668,30.526 35.668,32.021L35.668,33.101C35.668,34.597 34.455,35.809 32.96,35.809L9.052,35.809C3.622,35.809 -0.778,31.406 -0.778,25.978L-0.778,9.169C-0.778,3.738 3.625,-0.662 9.052,-0.662L32.96,-0.662C34.455,-0.662 35.668,0.551 35.668,2.046L35.668,3.129C35.668,4.625 34.455,5.837 32.96,5.837L9.052,5.837C7.209,5.837 5.717,7.329 5.717,9.172Z" fill="#242259"/>
</svg>
