<svg width="52" height="50" viewBox="0 0 52 50" fill="none" xmlns="http://www.w3.org/2000/svg" xmlns:xlink="http://www.w3.org/1999/xlink">
<path d="M9.55,13.101L9.55,17.775L46.441,17.775C48.497,17.775 50.163,19.441 50.163,21.497L50.163,22.986C50.163,25.042 48.497,26.709 46.441,26.709L9.55,26.709L9.55,36.176C9.55,38.714 11.627,40.791 14.165,40.791L47.003,40.791C49.059,40.791 50.726,42.457 50.726,44.513L50.726,45.998C50.726,48.054 49.059,49.721 47.003,49.721L14.135,49.721C6.669,49.721 0.62,43.667 0.62,36.205L0.62,13.096C0.62,5.63 6.673,-0.419 14.135,-0.419L47.003,-0.419C49.059,-0.419 50.726,1.248 50.726,3.304L50.726,4.793C50.726,6.848 49.059,8.515 47.003,8.515L14.135,8.515C11.602,8.515 9.55,10.567 9.55,13.101Z" fill="#242259"/>
</svg>
