<svg width="22" height="34" viewBox="0 0 22 34" fill="none" xmlns="http://www.w3.org/2000/svg" xmlns:xlink="http://www.w3.org/1999/xlink">
<path d="M-0.883,6.714C-1.224,7.764 -0.648,8.893 0.402,9.233C1.453,9.574 2.581,8.999 2.922,7.949L-0.883,6.714ZM3.778,3.2L5.077,4.721L5.078,4.721L3.778,3.2ZM8.288,1.12L7.974,-0.855L7.974,-0.855L8.288,1.12ZM13.222,1.703L13.987,-0.145L13.987,-0.145L13.222,1.703ZM17.122,4.777L18.74,3.602L18.74,3.601L17.122,4.777ZM17.873,14.308L16.091,13.4L16.091,13.4L17.873,14.308ZM14.503,17.957L13.458,16.252L13.458,16.252L14.503,17.957ZM9.722,19.306L9.722,17.306C8.617,17.306 7.722,18.201 7.722,19.306L9.722,19.306ZM7.722,21.592C7.722,22.697 8.617,23.592 9.722,23.592C10.827,23.592 11.722,22.697 11.722,21.592L7.722,21.592ZM9.836,30.742L11.836,30.742C11.836,29.637 10.94,28.742 9.836,28.742L9.836,30.742ZM9.836,30.97L9.84,32.97C10.943,32.968 11.836,32.073 11.836,30.97L9.836,30.97ZM9.608,30.971L7.608,30.971C7.608,31.502 7.819,32.011 8.195,32.386C8.571,32.762 9.081,32.972 9.612,32.971L9.608,30.971ZM9.608,30.742L9.608,28.742C8.503,28.742 7.608,29.637 7.608,30.742L9.608,30.742ZM2.922,7.949C3.329,6.695 4.075,5.578 5.077,4.721L2.479,1.68C0.916,3.016 -0.248,4.758 -0.883,6.714L2.922,7.949ZM5.078,4.721C6.08,3.864 7.299,3.302 8.601,3.095L7.974,-0.855C5.944,-0.533 4.042,0.344 2.479,1.68L5.078,4.721ZM8.601,3.095C9.904,2.889 11.239,3.046 12.457,3.551L13.987,-0.145C12.087,-0.932 10.006,-1.178 7.974,-0.855L8.601,3.095ZM12.457,3.551C13.675,4.055 14.729,4.886 15.504,5.953L18.74,3.601C17.531,1.939 15.888,0.642 13.987,-0.145L12.457,3.551ZM15.504,5.953C16.28,7.02 16.745,8.28 16.849,9.594L20.836,9.279C20.675,7.229 19.949,5.265 18.74,3.602L15.504,5.953ZM16.849,9.594C16.952,10.908 16.69,12.225 16.091,13.4L19.655,15.216C20.588,13.385 20.998,11.33 20.836,9.279L16.849,9.594ZM16.091,13.4C15.492,14.577 14.581,15.563 13.458,16.252L15.548,19.662C17.302,18.587 18.722,17.047 19.655,15.216L16.091,13.4ZM13.458,16.252C12.333,16.941 11.04,17.306 9.722,17.306L9.722,21.306C11.778,21.306 13.795,20.737 15.548,19.662L13.458,16.252ZM7.722,19.306L7.722,21.592L11.722,21.592L11.722,19.306L7.722,19.306ZM7.836,30.742L7.836,30.97L11.836,30.97L11.836,30.742L7.836,30.742ZM9.832,28.97L9.604,28.971L9.612,32.971L9.84,32.97L9.832,28.97ZM11.608,30.971L11.608,30.742L7.608,30.742L7.608,30.971L11.608,30.971ZM9.608,32.742L9.836,32.742L9.836,28.742L9.608,28.742L9.608,32.742Z" fill="#000000"/>
</svg>
