<svg width="14" height="26" viewBox="0 0 14 26" fill="none" xmlns="http://www.w3.org/2000/svg" xmlns:xlink="http://www.w3.org/1999/xlink">
<path d="M10.166,24.36C8.606,24.36 7.298,24.096 6.242,23.568C5.21,23.04 4.442,22.272 3.938,21.264C3.434,20.232 3.182,18.96 3.182,17.448L3.182,9.78L1.31,9.78C0.734,9.78 0.29,9.636 -0.022,9.348C-0.334,9.036 -0.49,8.616 -0.49,8.088C-0.49,7.536 -0.334,7.116 -0.022,6.828C0.29,6.54 0.734,6.396 1.31,6.396L3.182,6.396L3.182,3.12C3.182,2.376 3.374,1.812 3.758,1.428C4.166,1.044 4.73,0.852 5.45,0.852C6.17,0.852 6.722,1.044 7.106,1.428C7.49,1.812 7.682,2.376 7.682,3.12L7.682,6.396L11.498,6.396C12.074,6.396 12.518,6.54 12.83,6.828C13.142,7.116 13.298,7.536 13.298,8.088C13.298,8.616 13.142,9.036 12.83,9.348C12.518,9.636 12.074,9.78 11.498,9.78L7.682,9.78L7.682,17.196C7.682,18.348 7.934,19.212 8.438,19.788C8.942,20.364 9.758,20.652 10.886,20.652C11.294,20.652 11.654,20.616 11.966,20.544C12.278,20.472 12.554,20.424 12.794,20.4C13.082,20.376 13.322,20.472 13.514,20.688C13.706,20.88 13.802,21.288 13.802,21.912C13.802,22.392 13.718,22.824 13.55,23.208C13.406,23.568 13.13,23.82 12.722,23.964C12.41,24.06 12.002,24.144 11.498,24.216C10.994,24.312 10.55,24.36 10.166,24.36Z" fill="#9E028F"/>
</svg>
