<svg width="14" height="26" viewBox="0 0 14 26" fill="none" xmlns="http://www.w3.org/2000/svg" xmlns:xlink="http://www.w3.org/1999/xlink">
<path d="M9.67,24.36C8.11,24.36 6.802,24.096 5.746,23.568C4.714,23.04 3.946,22.272 3.442,21.264C2.938,20.232 2.686,18.96 2.686,17.448L2.686,9.78L0.814,9.78C0.238,9.78 -0.206,9.636 -0.518,9.348C-0.83,9.036 -0.986,8.616 -0.986,8.088C-0.986,7.536 -0.83,7.116 -0.518,6.828C-0.206,6.54 0.238,6.396 0.814,6.396L2.686,6.396L2.686,3.12C2.686,2.376 2.878,1.812 3.262,1.428C3.67,1.044 4.234,0.852 4.954,0.852C5.674,0.852 6.226,1.044 6.61,1.428C6.994,1.812 7.186,2.376 7.186,3.12L7.186,6.396L11.002,6.396C11.578,6.396 12.022,6.54 12.334,6.828C12.646,7.116 12.802,7.536 12.802,8.088C12.802,8.616 12.646,9.036 12.334,9.348C12.022,9.636 11.578,9.78 11.002,9.78L7.186,9.78L7.186,17.196C7.186,18.348 7.438,19.212 7.942,19.788C8.446,20.364 9.262,20.652 10.39,20.652C10.798,20.652 11.158,20.616 11.47,20.544C11.782,20.472 12.058,20.424 12.298,20.4C12.586,20.376 12.826,20.472 13.018,20.688C13.21,20.88 13.306,21.288 13.306,21.912C13.306,22.392 13.222,22.824 13.054,23.208C12.91,23.568 12.634,23.82 12.226,23.964C11.914,24.06 11.506,24.144 11.002,24.216C10.498,24.312 10.054,24.36 9.67,24.36Z" fill="#9E028F"/>
</svg>
