<svg width="16" height="20" viewBox="0 0 16 20" fill="none" xmlns="http://www.w3.org/2000/svg" xmlns:xlink="http://www.w3.org/1999/xlink">
<path d="M6.128,18.36C4.856,18.36 3.716,18.12 2.708,17.64C1.724,17.136 0.944,16.464 0.368,15.624C-0.184,14.784 -0.46,13.836 -0.46,12.78C-0.46,11.484 -0.124,10.464 0.548,9.72C1.22,8.952 2.312,8.4 3.824,8.064C5.336,7.728 7.364,7.56 9.908,7.56L11.708,7.56L11.708,10.152L9.944,10.152C8.456,10.152 7.268,10.224 6.38,10.368C5.492,10.512 4.856,10.764 4.472,11.124C4.112,11.46 3.932,11.94 3.932,12.564C3.932,13.356 4.208,14.004 4.76,14.508C5.312,15.012 6.08,15.264 7.064,15.264C7.856,15.264 8.552,15.084 9.152,14.724C9.776,14.34 10.268,13.824 10.628,13.176C10.988,12.528 11.168,11.784 11.168,10.944L11.168,6.804C11.168,5.604 10.904,4.74 10.376,4.212C9.848,3.684 8.96,3.42 7.712,3.42C7.016,3.42 6.26,3.504 5.444,3.672C4.652,3.84 3.812,4.128 2.924,4.536C2.468,4.752 2.06,4.812 1.7,4.716C1.364,4.62 1.1,4.428 0.908,4.14C0.716,3.828 0.62,3.492 0.62,3.132C0.62,2.772 0.716,2.424 0.908,2.088C1.1,1.728 1.424,1.464 1.88,1.296C2.984,0.84 4.04,0.516 5.048,0.324C6.08,0.132 7.016,0.036 7.856,0.036C9.584,0.036 11,0.3 12.104,0.828C13.232,1.356 14.072,2.16 14.624,3.24C15.176,4.296 15.452,5.664 15.452,7.344L15.452,15.984C15.452,16.728 15.272,17.304 14.912,17.712C14.552,18.096 14.036,18.288 13.364,18.288C12.692,18.288 12.164,18.096 11.78,17.712C11.42,17.304 11.24,16.728 11.24,15.984L11.24,14.256L11.528,14.256C11.36,15.096 11.024,15.828 10.52,16.452C10.04,17.052 9.428,17.52 8.684,17.856C7.94,18.192 7.088,18.36 6.128,18.36Z" fill="#9E028F"/>
</svg>
