<svg width="54" height="50" viewBox="0 0 54 50" fill="none" xmlns="http://www.w3.org/2000/svg" xmlns:xlink="http://www.w3.org/1999/xlink">
<path d="M53.837,2.872L53.837,46.024C53.837,48.08 52.17,49.746 50.114,49.746L48.6,49.746C46.544,49.746 44.877,48.08 44.877,46.024L44.877,24.721C44.877,23.536 43.316,23.113 42.716,24.137L30.838,44.425C28.849,46.908 25.068,46.908 23.08,44.425L11.201,24.137C10.605,23.118 9.04,23.541 9.04,24.725L9.04,46.028C9.04,48.084 7.373,49.75 5.317,49.75L3.799,49.75C1.743,49.75 0.076,48.084 0.076,46.028L0.076,2.872C0.076,-0.288 4.078,-1.654 6.011,0.846L24.793,30.948C26.514,33.27 27.564,33.405 29.226,30.948L47.91,0.842C49.839,-1.654 53.837,-0.288 53.837,2.872Z" fill="#242259"/>
</svg>
