<svg width="38" height="36" viewBox="0 0 38 36" fill="none" xmlns="http://www.w3.org/2000/svg" xmlns:xlink="http://www.w3.org/1999/xlink">
<path d="M36.874,2.062L36.874,33.092C36.874,34.588 35.662,35.8 34.166,35.8L33.08,35.8C31.585,35.8 30.372,34.588 30.372,33.092L30.372,19.074L6.929,19.074L6.929,33.083C6.929,34.578 5.717,35.791 4.222,35.791L3.133,35.791C1.637,35.791 0.425,34.578 0.425,33.083L0.425,2.052C0.425,0.557 1.637,-0.655 3.133,-0.655L4.222,-0.655C5.717,-0.655 6.929,0.557 6.929,2.052L6.929,12.575L30.372,12.575L30.372,2.062C30.372,0.566 31.585,-0.646 33.08,-0.646L34.166,-0.646C35.662,-0.646 36.874,0.566 36.874,2.062Z" fill="#242259"/>
</svg>
