<svg width="40" height="36" viewBox="0 0 40 36" fill="none" xmlns="http://www.w3.org/2000/svg" xmlns:xlink="http://www.w3.org/1999/xlink">
<path d="M39.923,1.732L39.923,33.12C39.923,34.615 38.711,35.828 37.215,35.828L36.114,35.828C34.618,35.828 33.406,34.615 33.406,33.12L33.406,17.625C33.406,16.763 32.271,16.455 31.834,17.2L23.194,31.957C21.748,33.763 18.997,33.763 17.551,31.957L8.911,17.2C8.477,16.458 7.338,16.766 7.338,17.628L7.338,33.123C7.338,34.618 6.126,35.831 4.631,35.831L3.526,35.831C2.031,35.831 0.818,34.618 0.818,33.123L0.818,1.732C0.818,-0.566 3.729,-1.56 5.135,0.258L18.797,22.154C20.049,23.843 20.812,23.941 22.021,22.154L35.612,0.255C37.015,-1.56 39.923,-0.566 39.923,1.732Z" fill="#242259"/>
</svg>
