<svg width="32" height="32" viewBox="0 0 32 32" fill="none" xmlns="http://www.w3.org/2000/svg" xmlns:xlink="http://www.w3.org/1999/xlink">
<path d="M31.485,28.611L23.822,20.948C25.721,18.632 26.866,15.666 26.866,12.433C26.866,5.017 20.849,-1 13.433,-1C6.011,-1 0,5.017 0,12.433C0,19.849 6.011,25.866 13.433,25.866C16.666,25.866 19.626,24.728 21.942,22.828L29.605,30.485C30.125,31.005 30.964,31.005 31.485,30.485C32.005,29.971 32.005,29.125 31.485,28.611ZM13.433,23.192C7.494,23.192 2.667,18.366 2.667,12.433C2.667,6.5 7.494,1.667 13.433,1.667C19.366,1.667 24.199,6.5 24.199,12.433C24.199,18.366 19.366,23.192 13.433,23.192Z" fill="#000000"/>
</svg>
