<svg width="38" height="36" viewBox="0 0 38 36" fill="none" xmlns="http://www.w3.org/2000/svg" xmlns:xlink="http://www.w3.org/1999/xlink">
<path d="M19.194,-0.649C29.243,-0.649 37.406,7.493 37.406,17.563C37.406,22.025 35.803,26.139 33.098,29.302C32.772,29.693 32.428,30.08 32.058,30.449C28.766,33.763 24.218,35.797 19.194,35.797L3.668,35.797C2.172,35.797 0.96,34.585 0.96,33.089L0.96,2.059C0.96,0.563 2.172,-0.649 3.668,-0.649L19.194,-0.649ZM7.458,29.299L19.197,29.299C25.649,29.299 30.914,24.037 30.914,17.56C30.914,11.108 25.652,5.843 19.197,5.843L7.458,5.843L7.458,29.299Z" fill="#242259"/>
</svg>
