<svg width="22" height="28" viewBox="0 0 22 28" fill="none" xmlns="http://www.w3.org/2000/svg" xmlns:xlink="http://www.w3.org/1999/xlink">
<path d="M10.747,26.36C9.691,26.36 8.635,26.276 7.579,26.108C6.523,25.964 5.527,25.736 4.591,25.424C3.655,25.088 2.815,24.68 2.071,24.2C1.639,23.912 1.339,23.564 1.171,23.156C1.003,22.748 0.943,22.352 0.991,21.968C1.063,21.56 1.219,21.212 1.459,20.924C1.723,20.612 2.047,20.42 2.431,20.348C2.815,20.276 3.235,20.384 3.691,20.672C4.747,21.296 5.863,21.752 7.039,22.04C8.215,22.328 9.451,22.472 10.747,22.472C12.643,22.472 14.023,22.16 14.887,21.536C15.751,20.888 16.183,20.06 16.183,19.052C16.183,18.212 15.871,17.552 15.247,17.072C14.647,16.592 13.603,16.196 12.115,15.884L8.155,15.056C5.875,14.576 4.171,13.772 3.043,12.644C1.939,11.492 1.387,9.98 1.387,8.108C1.387,6.932 1.627,5.864 2.107,4.904C2.587,3.944 3.259,3.116 4.123,2.42C5.011,1.724 6.055,1.196 7.255,0.836C8.479,0.452 9.823,0.26 11.287,0.26C12.727,0.26 14.095,0.44 15.391,0.8C16.687,1.16 17.851,1.688 18.883,2.384C19.267,2.648 19.519,2.972 19.639,3.356C19.783,3.74 19.819,4.124 19.747,4.508C19.675,4.868 19.507,5.18 19.243,5.444C18.979,5.708 18.643,5.864 18.235,5.912C17.851,5.96 17.407,5.84 16.903,5.552C16.015,5.048 15.115,4.688 14.203,4.472C13.291,4.256 12.307,4.148 11.251,4.148C10.147,4.148 9.199,4.304 8.407,4.616C7.615,4.928 7.003,5.372 6.571,5.948C6.163,6.5 5.959,7.16 5.959,7.928C5.959,8.792 6.247,9.488 6.823,10.016C7.399,10.52 8.383,10.916 9.775,11.204L13.699,12.032C16.075,12.536 17.839,13.328 18.991,14.408C20.167,15.488 20.755,16.928 20.755,18.728C20.755,19.88 20.515,20.924 20.035,21.86C19.579,22.796 18.907,23.6 18.019,24.272C17.155,24.944 16.111,25.46 14.887,25.82C13.663,26.18 12.283,26.36 10.747,26.36Z" fill="#9E028F"/>
</svg>
