<svg width="16" height="20" viewBox="0 0 16 20" fill="none" xmlns="http://www.w3.org/2000/svg" xmlns:xlink="http://www.w3.org/1999/xlink">
<path d="M5.794,18.36C4.33,18.36 3.118,18.096 2.158,17.568C1.198,17.016 0.478,16.2 -0.002,15.12C-0.458,14.04 -0.686,12.696 -0.686,11.088L-0.686,2.376C-0.686,1.608 -0.494,1.044 -0.11,0.684C0.274,0.3 0.826,0.108 1.546,0.108C2.266,0.108 2.818,0.3 3.202,0.684C3.61,1.044 3.814,1.608 3.814,2.376L3.814,11.16C3.814,12.408 4.066,13.332 4.57,13.932C5.074,14.532 5.878,14.832 6.982,14.832C8.182,14.832 9.166,14.424 9.934,13.608C10.702,12.768 11.086,11.664 11.086,10.296L11.086,2.376C11.086,1.608 11.278,1.044 11.662,0.684C12.046,0.3 12.598,0.108 13.318,0.108C14.038,0.108 14.59,0.3 14.974,0.684C15.382,1.044 15.586,1.608 15.586,2.376L15.586,15.984C15.586,17.52 14.854,18.288 13.39,18.288C12.694,18.288 12.154,18.096 11.77,17.712C11.386,17.304 11.194,16.728 11.194,15.984L11.194,13.248L11.698,14.328C11.194,15.624 10.426,16.62 9.394,17.316C8.386,18.012 7.186,18.36 5.794,18.36Z" fill="#9E028F"/>
</svg>
