<svg width="16" height="20" viewBox="0 0 16 20" fill="none" xmlns="http://www.w3.org/2000/svg" xmlns:xlink="http://www.w3.org/1999/xlink">
<path d="M1.24,18.288C0.52,18.288 -0.032,18.096 -0.416,17.712C-0.8,17.304 -0.992,16.728 -0.992,15.984L-0.992,2.376C-0.992,1.632 -0.8,1.068 -0.416,0.684C-0.032,0.3 0.508,0.108 1.204,0.108C1.9,0.108 2.44,0.3 2.824,0.684C3.208,1.068 3.4,1.632 3.4,2.376L3.4,4.824L3.004,3.924C3.532,2.652 4.348,1.692 5.452,1.044C6.58,0.372 7.852,0.036 9.268,0.036C10.684,0.036 11.848,0.3 12.76,0.828C13.672,1.356 14.356,2.16 14.812,3.24C15.268,4.296 15.496,5.64 15.496,7.272L15.496,15.984C15.496,16.728 15.304,17.304 14.92,17.712C14.536,18.096 13.984,18.288 13.264,18.288C12.544,18.288 11.98,18.096 11.572,17.712C11.188,17.304 10.996,16.728 10.996,15.984L10.996,7.488C10.996,6.12 10.732,5.124 10.204,4.5C9.7,3.876 8.908,3.564 7.828,3.564C6.508,3.564 5.452,3.984 4.66,4.824C3.892,5.64 3.508,6.732 3.508,8.1L3.508,15.984C3.508,17.52 2.752,18.288 1.24,18.288Z" fill="#9E028F"/>
</svg>
