<svg width="18" height="20" viewBox="0 0 18 20" fill="none" xmlns="http://www.w3.org/2000/svg" xmlns:xlink="http://www.w3.org/1999/xlink">
<path d="M6.919,18.36C5.455,18.36 4.243,18.096 3.283,17.568C2.323,17.016 1.603,16.2 1.123,15.12C0.667,14.04 0.439,12.696 0.439,11.088L0.439,2.376C0.439,1.608 0.631,1.044 1.015,0.684C1.399,0.3 1.951,0.108 2.671,0.108C3.391,0.108 3.943,0.3 4.327,0.684C4.735,1.044 4.939,1.608 4.939,2.376L4.939,11.16C4.939,12.408 5.191,13.332 5.695,13.932C6.199,14.532 7.003,14.832 8.107,14.832C9.307,14.832 10.291,14.424 11.059,13.608C11.827,12.768 12.211,11.664 12.211,10.296L12.211,2.376C12.211,1.608 12.403,1.044 12.787,0.684C13.171,0.3 13.723,0.108 14.443,0.108C15.163,0.108 15.715,0.3 16.099,0.684C16.507,1.044 16.711,1.608 16.711,2.376L16.711,15.984C16.711,17.52 15.979,18.288 14.515,18.288C13.819,18.288 13.279,18.096 12.895,17.712C12.511,17.304 12.319,16.728 12.319,15.984L12.319,13.248L12.823,14.328C12.319,15.624 11.551,16.62 10.519,17.316C9.511,18.012 8.311,18.36 6.919,18.36Z" fill="#9E028F"/>
</svg>
