<svg width="84" height="58" viewBox="0 0 84 58" fill="none" xmlns="http://www.w3.org/2000/svg" xmlns:xlink="http://www.w3.org/1999/xlink">
<path d="M48.274,38.215C52.348,38.215 55.651,34.911 55.651,30.838C55.651,26.764 52.348,23.46 48.274,23.46C44.201,23.46 40.897,26.764 40.897,30.838C40.897,34.911 44.201,38.215 48.274,38.215ZM26.654,44.247C24.002,44.247 21.853,46.396 21.853,49.048C21.853,51.7 24.002,53.849 26.654,53.849C29.306,53.849 31.455,51.7 31.455,49.048C31.455,46.396 29.306,44.247 26.654,44.247ZM83.316,31.277C82.86,25.749 78.35,21.29 72.813,20.897C67.766,20.541 63.355,23.481 61.514,27.783L61.502,27.813C61.502,27.813 61.502,27.817 61.497,27.826L58.257,35.554C56.679,39.315 53.553,42.212 49.687,43.502L49.683,43.502C46.959,44.408 43.942,43.735 41.865,41.739C41.032,40.939 40.368,40.3 40.368,40.3C38.689,38.697 37.58,36.607 37.174,34.357C37.035,33.587 36.975,32.792 37.005,31.997L37.339,23.414L37.496,19.391L37.492,19.395C37.492,19.277 37.496,19.162 37.496,19.044C37.496,8.316 28.426,-0.296 17.542,0.453C8.35,1.087 0.91,8.536 0.275,17.72C0.161,19.34 0.258,20.918 0.542,22.432C2.136,31.104 9.734,37.673 18.871,37.673C19.289,37.673 27.047,38.232 30.072,39.949L32.162,41.134C34.196,42.288 35.778,44.09 36.654,46.252L39.251,52.652L39.256,52.648C39.92,55.338 42.348,57.339 45.25,57.339C47.221,57.339 48.968,56.417 50.101,54.987C51.032,53.811 57.796,46.971 57.796,46.971C59.408,45.338 61.557,44.353 63.849,44.196L72.885,43.583C77.593,43.215 81.502,39.979 82.855,35.618C83.19,34.552 83.367,33.422 83.367,32.242C83.354,31.925 83.346,31.603 83.316,31.277Z" fill="url(#pf_0_25_235)"/>
<defs>
<linearGradient id="pf_0_25_235" x1="5.204" y1="21.088" x2="76.029" y2="44.026" gradientUnits="userSpaceOnUse">
<stop offset="0" stop-color="#FC5252"/>
<stop offset="0.999" stop-color="#9D00C6"/>
</linearGradient>
</defs>
</svg>
