<svg width="46" height="46" viewBox="0 0 46 46" fill="none" xmlns="http://www.w3.org/2000/svg" xmlns:xlink="http://www.w3.org/1999/xlink">
<path d="M44.449,41.804L33.631,30.986C36.312,27.716 37.929,23.529 37.929,18.964C37.929,8.495 29.434,0 18.964,0C8.486,0 0,8.495 0,18.964C0,29.434 8.486,37.929 18.964,37.929C23.529,37.929 27.707,36.321 30.977,33.64L41.795,44.449C42.53,45.184 43.714,45.184 44.449,44.449C45.184,43.723 45.184,42.53 44.449,41.804ZM18.964,34.154C10.58,34.154 3.765,27.34 3.765,18.964C3.765,10.589 10.58,3.765 18.964,3.765C27.34,3.765 34.163,10.589 34.163,18.964C34.163,27.34 27.34,34.154 18.964,34.154Z" fill="#FFFFFF"/>
</svg>
