<svg width="36" height="36" viewBox="0 0 36 36" fill="none" xmlns="http://www.w3.org/2000/svg" xmlns:xlink="http://www.w3.org/1999/xlink">
<path d="M35.708,2.046L35.708,32.12C35.708,35.12 32.262,36.815 29.886,34.985L29.191,34.449L5.76,8.865L5.76,33.102C5.76,34.597 4.548,35.809 3.053,35.809L1.948,35.809C0.453,35.809 -0.76,34.597 -0.76,33.102L-0.76,2.96C-0.76,-0.04 2.686,-1.735 5.062,0.095L5.757,0.631L29.188,26.215L29.188,2.043C29.188,0.548 30.4,-0.665 31.896,-0.665L32.997,-0.665C34.496,-0.661 35.708,0.551 35.708,2.046Z" fill="#9E028F"/>
</svg>
