<svg width="34" height="34" viewBox="0 0 34 34" fill="none" xmlns="http://www.w3.org/2000/svg" xmlns:xlink="http://www.w3.org/1999/xlink">
<path d="M14.167,31.167C14.167,32.732 15.435,34 17,34C18.565,34 19.833,32.732 19.833,31.167L19.833,19.833L31.167,19.833C32.732,19.833 34,18.565 34,17C34,15.435 32.732,14.167 31.167,14.167L19.833,14.167L19.833,2.833C19.833,1.269 18.565,0 17,0C15.435,0 14.167,1.269 14.167,2.833L14.167,14.167L2.833,14.167C1.269,14.167 0,15.435 0,17C0,18.565 1.269,19.833 2.833,19.833L14.167,19.833L14.167,31.167Z" clip-rule="evenodd" fill-rule="evenodd" fill="#000000"/>
</svg>
