<svg width="34" height="32" viewBox="0 0 34 32" fill="none" xmlns="http://www.w3.org/2000/svg" xmlns:xlink="http://www.w3.org/1999/xlink">
<path d="M0,23.039C0,26.895 3.121,30.042 7.003,30.042L7.711,30.042C11.567,30.042 14.715,26.921 14.715,23.039L14.715,15.328L0,15.328L0,23.039ZM1.39,16.744L13.272,16.744L13.272,23.039C13.272,26.134 10.754,28.626 7.685,28.626L6.977,28.626C3.882,28.626 1.39,26.108 1.39,23.039L1.39,16.744ZM33.075,19.997L19.908,25.347C21.089,27.708 23.475,29.308 26.23,29.308C30.164,29.308 33.338,26.029 33.338,21.964C33.338,21.308 33.259,20.626 33.075,19.997ZM26.23,14.646C22.295,14.646 19.121,17.924 19.121,21.99C19.121,22.672 19.226,23.328 19.384,23.957L32.551,18.606C31.344,16.246 28.984,14.646 26.23,14.646ZM7.685,-0.043L6.977,-0.043C3.121,-0.043 0,3.079 0,6.934L0,14.62L14.689,14.62L14.689,6.934C14.689,3.079 11.567,-0.043 7.685,-0.043Z" fill="#242259"/>
</svg>
