<svg width="50" height="50" viewBox="0 0 50 50" fill="none" xmlns="http://www.w3.org/2000/svg" xmlns:xlink="http://www.w3.org/1999/xlink">
<path d="M48.776,13.122C48.776,18.6 45.531,23.334 40.857,25.449C39.634,26.015 38.327,26.4 36.957,26.548C36.838,26.578 36.69,26.578 36.572,26.578L36.572,26.667L8.04,26.667L8.04,46.003C8.04,48.059 6.373,49.725 4.317,49.725L2.832,49.725C0.777,49.725 -0.89,48.059 -0.89,46.003L-0.89,3.312C-0.89,1.257 0.777,-0.41 2.832,-0.41L35.265,-0.423C39.017,-0.423 42.38,1.096 44.82,3.537C47.257,6.007 48.776,9.399 48.776,13.122ZM39.846,13.122C39.846,11.485 38.983,10.355 38.475,9.818C37.879,9.251 36.838,8.507 35.26,8.507L8.044,8.507L8.044,17.737L35.26,17.737C35.916,17.737 36.542,17.619 37.139,17.318C38.805,16.574 39.846,14.937 39.846,13.122Z" fill="#242259"/>
</svg>
