<svg width="50" height="50" viewBox="0 0 50 50" fill="none" xmlns="http://www.w3.org/2000/svg" xmlns:xlink="http://www.w3.org/1999/xlink">
<path d="M49.665,3.325L49.665,45.986C49.665,48.041 47.998,49.708 45.942,49.708L44.449,49.708C42.393,49.708 40.726,48.041 40.726,45.986L40.726,26.713L8.497,26.713L8.497,45.973C8.497,48.029 6.83,49.695 4.775,49.695L3.277,49.695C1.221,49.695 -0.445,48.029 -0.445,45.973L-0.445,3.312C-0.445,1.256 1.221,-0.41 3.277,-0.41L4.775,-0.41C6.83,-0.41 8.497,1.256 8.497,3.312L8.497,17.779L40.726,17.779L40.726,3.325C40.726,1.269 42.393,-0.398 44.449,-0.398L45.942,-0.398C47.998,-0.398 49.665,1.269 49.665,3.325Z" fill="#242259"/>
</svg>
