<svg width="32" height="34" viewBox="0 0 32 34" fill="none" xmlns="http://www.w3.org/2000/svg" xmlns:xlink="http://www.w3.org/1999/xlink">
<path d="M31.485,30.611L23.822,22.948C25.721,20.632 26.866,17.666 26.866,14.433C26.866,7.017 20.849,1 13.433,1C6.011,1 0,7.017 0,14.433C0,21.849 6.011,27.866 13.433,27.866C16.666,27.866 19.626,26.728 21.942,24.828L29.605,32.485C30.125,33.005 30.964,33.005 31.485,32.485C32.005,31.971 32.005,31.125 31.485,30.611ZM13.433,25.192C7.494,25.192 2.667,20.366 2.667,14.433C2.667,8.5 7.494,3.667 13.433,3.667C19.366,3.667 24.199,8.5 24.199,14.433C24.199,20.366 19.366,25.192 13.433,25.192Z" fill="#000000"/>
</svg>
