<svg width="36" height="36" viewBox="0 0 36 36" fill="none" xmlns="http://www.w3.org/2000/svg" xmlns:xlink="http://www.w3.org/1999/xlink">
<path d="M5.717,9.173L5.717,12.573L32.551,12.573C34.046,12.573 35.259,13.785 35.259,15.28L35.259,16.363C35.259,17.859 34.046,19.071 32.551,19.071L5.717,19.071L5.717,25.957C5.717,27.803 7.228,29.314 9.074,29.314L32.96,29.314C34.455,29.314 35.668,30.526 35.668,32.022L35.668,33.102C35.668,34.597 34.455,35.81 32.96,35.81L9.052,35.81C3.622,35.81 -0.778,31.406 -0.778,25.979L-0.778,9.17C-0.778,3.739 3.625,-0.661 9.052,-0.661L32.96,-0.661C34.455,-0.661 35.668,0.551 35.668,2.047L35.668,3.13C35.668,4.625 34.455,5.837 32.96,5.837L9.052,5.837C7.209,5.837 5.717,7.33 5.717,9.173Z" fill="#242259"/>
</svg>
