<svg width="12" height="20" viewBox="0 0 12 20" fill="none" xmlns="http://www.w3.org/2000/svg" xmlns:xlink="http://www.w3.org/1999/xlink">
<path d="M2.038,18.288C1.294,18.288 0.718,18.096 0.31,17.712C-0.074,17.304 -0.266,16.728 -0.266,15.984L-0.266,2.376C-0.266,1.632 -0.074,1.068 0.31,0.684C0.694,0.3 1.234,0.108 1.93,0.108C2.626,0.108 3.166,0.3 3.55,0.684C3.934,1.068 4.126,1.632 4.126,2.376L4.126,4.644L3.766,4.644C4.102,3.204 4.762,2.112 5.746,1.368C6.73,0.624 8.038,0.18 9.67,0.036C10.174,-0.012 10.57,0.12 10.858,0.432C11.17,0.72 11.35,1.176 11.398,1.8C11.446,2.4 11.302,2.892 10.966,3.276C10.654,3.636 10.174,3.852 9.526,3.924L8.734,3.996C7.27,4.14 6.166,4.596 5.422,5.364C4.678,6.108 4.306,7.164 4.306,8.532L4.306,15.984C4.306,16.728 4.114,17.304 3.73,17.712C3.346,18.096 2.782,18.288 2.038,18.288Z" fill="#9E028F"/>
</svg>
