<svg width="38" height="42" viewBox="0 0 38 42" fill="none" xmlns="http://www.w3.org/2000/svg" xmlns:xlink="http://www.w3.org/1999/xlink">
<path d="M17.556,-0.371C13.233,-0.371 9.088,1.346 6.032,4.402C2.976,7.459 1.259,11.604 1.259,15.926L1.259,19.796C0.645,20.331 0.147,20.988 -0.204,21.723C-0.554,22.459 -0.749,23.259 -0.778,24.074C-0.731,25.255 -0.329,26.395 0.376,27.343C1.081,28.292 2.056,29.006 3.174,29.391C5.822,35.726 11.139,40.37 17.556,40.37L23.667,40.37L23.667,36.296L17.556,36.296C12.952,36.296 8.776,32.833 6.678,27.353L6.25,26.233L5.048,26.111C4.559,26.042 4.111,25.797 3.789,25.422C3.466,25.047 3.291,24.568 3.296,24.074C3.298,23.718 3.394,23.37 3.572,23.062C3.751,22.755 4.007,22.5 4.315,22.322L5.333,21.731L5.333,17.963C5.333,17.422 5.548,16.904 5.93,16.522C6.312,16.14 6.83,15.926 7.37,15.926L27.741,15.926C28.281,15.926 28.799,16.14 29.181,16.522C29.563,16.904 29.778,17.422 29.778,17.963L29.778,28.148L21.446,28.148C21.261,27.629 20.94,27.17 20.515,26.82C20.091,26.469 19.58,26.239 19.036,26.155C18.492,26.07 17.935,26.135 17.425,26.341C16.914,26.547 16.469,26.887 16.135,27.325C15.802,27.764 15.594,28.284 15.532,28.831C15.47,29.378 15.557,29.932 15.784,30.433C16.011,30.935 16.369,31.366 16.821,31.681C17.272,31.996 17.801,32.183 18.35,32.222L33.852,32.222C34.932,32.222 35.969,31.793 36.733,31.029C37.497,30.265 37.926,29.228 37.926,28.148L37.926,24.074C37.926,22.993 37.497,21.957 36.733,21.193C35.969,20.429 34.932,20 33.852,20L33.852,15.926C33.852,11.604 32.135,7.459 29.079,4.402C26.023,1.346 21.878,-0.371 17.556,-0.371Z" fill="#030229"/>
</svg>
