<svg width="16" height="20" viewBox="0 0 16 20" fill="none" xmlns="http://www.w3.org/2000/svg" xmlns:xlink="http://www.w3.org/1999/xlink">
<path d="M8.155,18.36C6.307,18.36 4.699,17.988 3.331,17.244C1.963,16.476 0.907,15.396 0.163,14.004C-0.581,12.612 -0.953,10.98 -0.953,9.108C-0.953,7.692 -0.749,6.432 -0.341,5.328C0.091,4.2 0.703,3.252 1.495,2.484C2.287,1.692 3.247,1.092 4.375,0.684C5.503,0.252 6.763,0.036 8.155,0.036C8.947,0.036 9.799,0.144 10.711,0.36C11.647,0.576 12.523,0.936 13.339,1.44C13.723,1.68 13.975,1.968 14.095,2.304C14.215,2.64 14.239,2.988 14.167,3.348C14.095,3.684 13.939,3.984 13.699,4.248C13.483,4.488 13.207,4.644 12.871,4.716C12.535,4.764 12.163,4.68 11.755,4.464C11.227,4.152 10.687,3.924 10.135,3.78C9.583,3.612 9.055,3.528 8.551,3.528C7.759,3.528 7.063,3.66 6.463,3.924C5.863,4.164 5.347,4.524 4.915,5.004C4.507,5.46 4.195,6.036 3.979,6.732C3.763,7.428 3.655,8.232 3.655,9.144C3.655,10.92 4.075,12.324 4.915,13.356C5.779,14.364 6.991,14.868 8.551,14.868C9.055,14.868 9.571,14.796 10.099,14.652C10.651,14.508 11.203,14.28 11.755,13.968C12.163,13.752 12.523,13.68 12.835,13.752C13.171,13.824 13.447,13.992 13.663,14.256C13.879,14.496 14.011,14.796 14.059,15.156C14.107,15.492 14.059,15.828 13.915,16.164C13.795,16.5 13.555,16.776 13.195,16.992C12.403,17.472 11.563,17.82 10.675,18.036C9.787,18.252 8.947,18.36 8.155,18.36Z" fill="#9E028F"/>
</svg>
