<svg width="32" height="32" viewBox="0 0 32 32" fill="none" xmlns="http://www.w3.org/2000/svg" xmlns:xlink="http://www.w3.org/1999/xlink">
<path d="M31.218,28.611L23.555,20.948C25.455,18.632 26.599,15.666 26.599,12.433C26.599,5.017 20.582,-1 13.166,-1C5.744,-1 -0.267,5.017 -0.267,12.433C-0.267,19.849 5.744,25.866 13.166,25.866C16.399,25.866 19.359,24.728 21.675,22.828L29.338,30.485C29.859,31.005 30.698,31.005 31.218,30.485C31.739,29.971 31.739,29.125 31.218,28.611ZM13.166,23.192C7.227,23.192 2.4,18.366 2.4,12.433C2.4,6.5 7.227,1.667 13.166,1.667C19.099,1.667 23.932,6.5 23.932,12.433C23.932,18.366 19.099,23.192 13.166,23.192Z" fill="#242259"/>
</svg>
