<svg width="14" height="28" viewBox="0 0 14 28" fill="none" xmlns="http://www.w3.org/2000/svg" xmlns:xlink="http://www.w3.org/1999/xlink">
<path d="M4.85,26.288C4.13,26.288 3.566,26.096 3.158,25.712C2.774,25.304 2.582,24.728 2.582,23.984L2.582,11.78L0.926,11.78C0.35,11.78 -0.094,11.636 -0.406,11.348C-0.718,11.036 -0.874,10.616 -0.874,10.088C-0.874,9.536 -0.718,9.116 -0.406,8.828C-0.094,8.54 0.35,8.396 0.926,8.396L3.878,8.396L2.582,9.584L2.582,8.36C2.582,5.888 3.206,4.04 4.454,2.816C5.702,1.568 7.502,0.836 9.854,0.62L11.078,0.512C11.558,0.464 11.942,0.548 12.23,0.764C12.518,0.956 12.71,1.22 12.806,1.556C12.902,1.868 12.914,2.192 12.842,2.528C12.77,2.864 12.614,3.164 12.374,3.428C12.158,3.668 11.87,3.8 11.51,3.824L11.006,3.86C9.638,3.956 8.642,4.304 8.018,4.904C7.394,5.504 7.082,6.416 7.082,7.64L7.082,8.972L6.506,8.396L10.142,8.396C10.718,8.396 11.162,8.54 11.474,8.828C11.786,9.116 11.942,9.536 11.942,10.088C11.942,10.616 11.786,11.036 11.474,11.348C11.162,11.636 10.718,11.78 10.142,11.78L7.082,11.78L7.082,23.984C7.082,25.52 6.338,26.288 4.85,26.288Z" fill="#9E028F"/>
</svg>
