<svg width="3096" height="2120" viewBox="0 0 3096 2120" fill="none" xmlns="http://www.w3.org/2000/svg" xmlns:xlink="http://www.w3.org/1999/xlink">
<path d="M1789.174,1407.858C1940.872,1407.858 2063.9,1284.836 2063.9,1133.146C2063.9,981.456 1940.872,858.434 1789.174,858.434C1637.478,858.434 1514.452,981.456 1514.452,1133.146C1514.452,1284.836 1637.478,1407.858 1789.174,1407.858ZM984.066,1632.48C885.298,1632.48 805.276,1712.5 805.276,1811.264C805.276,1910.028 885.298,1990.048 984.066,1990.048C1082.834,1990.048 1162.856,1910.028 1162.856,1811.264C1162.856,1712.5 1082.834,1632.48 984.066,1632.48ZM3094.1,1149.528C3077.1,943.652 2909.18,777.626 2702.98,762.978C2515.04,749.746 2350.76,859.222 2282.22,1019.418L2281.76,1020.52C2281.76,1020.52 2281.76,1020.678 2281.6,1020.992L2160.94,1308.78C2102.18,1448.814 1985.766,1556.714 1841.788,1604.756L1841.63,1604.756C1740.184,1638.466 1627.87,1613.42 1550.524,1539.072C1519.492,1509.3 1494.762,1485.516 1494.762,1485.516C1432.224,1425.816 1390.952,1348.002 1375.83,1264.202C1370.632,1235.534 1368.426,1205.92 1369.528,1176.306L1381.974,856.7L1387.802,706.9L1387.644,707.058C1387.644,702.648 1387.802,698.394 1387.802,693.984C1387.802,294.516 1050.068,-26.191 644.756,1.69C302.456,25.318 25.37,302.708 1.742,644.68C-2.512,705.01 1.112,763.764 11.666,820.156C71.053,1143.07 353.966,1387.696 694.22,1387.696C709.814,1387.696 998.716,1408.488 1111.346,1472.442L1189.164,1516.546C1264.932,1559.548 1323.848,1626.652 1356.454,1707.144L1453.176,1945.47L1453.332,1945.312C1478.064,2045.5 1568.482,2120 1676.544,2120C1749.95,2120 1815.008,2085.66 1857.224,2032.42C1891.88,1988.63 2143.76,1733.922 2143.76,1733.922C2203.78,1673.12 2283.8,1636.418 2369.18,1630.59L2705.66,1607.75C2880.98,1594.046 3026.54,1473.544 3076.94,1311.142C3089.38,1271.448 3096,1229.39 3096,1185.442C3095.52,1173.628 3095.22,1161.656 3094.1,1149.528Z" fill="url(#pf_0_219_1228)"/>
<defs>
<linearGradient id="pf_0_219_1228" x1="185.296" y1="770.102" x2="2822.748" y2="1624.247" gradientUnits="userSpaceOnUse">
<stop offset="0" stop-color="#FC5252"/>
<stop offset="0.999" stop-color="#9D00C6"/>
</linearGradient>
</defs>
</svg>
