<svg width="20" height="28" viewBox="0 0 20 28" fill="none" xmlns="http://www.w3.org/2000/svg" xmlns:xlink="http://www.w3.org/1999/xlink">
<path d="M1.865,26.288C1.121,26.288 0.545,26.084 0.137,25.676C-0.247,25.244 -0.439,24.656 -0.439,23.912L-0.439,2.96C-0.439,2.192 -0.235,1.616 0.173,1.232C0.581,0.824 1.157,0.62 1.901,0.62L10.577,0.62C13.361,0.62 15.509,1.316 17.021,2.708C18.533,4.1 19.289,6.044 19.289,8.54C19.289,11.036 18.533,12.992 17.021,14.408C15.509,15.8 13.361,16.496 10.577,16.496L4.169,16.496L4.169,23.912C4.169,24.656 3.977,25.244 3.593,25.676C3.209,26.084 2.633,26.288 1.865,26.288ZM4.169,12.86L9.857,12.86C11.489,12.86 12.725,12.5 13.565,11.78C14.405,11.036 14.825,9.956 14.825,8.54C14.825,7.124 14.405,6.056 13.565,5.336C12.725,4.616 11.489,4.256 9.857,4.256L4.169,4.256L4.169,12.86Z" fill="#9E028F"/>
</svg>
