<svg width="62" height="42" viewBox="0 0 62 42" fill="none" xmlns="http://www.w3.org/2000/svg" xmlns:xlink="http://www.w3.org/1999/xlink">
<path d="M35.114,27.797C38.077,27.797 40.48,25.394 40.48,22.431C40.48,19.468 38.077,17.065 35.114,17.065C32.151,17.065 29.748,19.468 29.748,22.431C29.748,25.394 32.151,27.797 35.114,27.797ZM19.388,32.185C17.458,32.185 15.895,33.748 15.895,35.677C15.895,37.606 17.458,39.169 19.388,39.169C21.317,39.169 22.88,37.606 22.88,35.677C22.88,33.748 21.317,32.185 19.388,32.185ZM60.603,22.751C60.271,18.729 56.991,15.486 52.963,15.2C49.292,14.942 46.083,17.08 44.745,20.209L44.735,20.231C44.735,20.231 44.735,20.234 44.732,20.24L42.375,25.862C41.228,28.597 38.954,30.705 36.142,31.643L36.138,31.643C34.157,32.302 31.963,31.812 30.452,30.36C29.846,29.778 29.363,29.314 29.363,29.314C28.142,28.148 27.335,26.628 27.04,24.991C26.938,24.431 26.895,23.852 26.917,23.274L27.16,17.031L27.274,14.105L27.271,14.108C27.271,14.022 27.274,13.938 27.274,13.852C27.274,6.049 20.677,-0.215 12.76,0.329C6.074,0.791 0.662,6.209 0.2,12.889C0.117,14.068 0.188,15.215 0.394,16.317C1.554,22.625 7.08,27.403 13.726,27.403C14.031,27.403 19.674,27.809 21.874,29.058L23.394,29.92C24.874,30.76 26.025,32.071 26.662,33.643L28.551,38.298L28.554,38.295C29.037,40.252 30.803,41.708 32.914,41.708C34.348,41.708 35.618,41.037 36.443,39.997C37.12,39.142 42.04,34.166 42.04,34.166C43.212,32.978 44.775,32.262 46.443,32.148L53.015,31.702C56.44,31.434 59.283,29.08 60.268,25.908C60.511,25.132 60.64,24.311 60.64,23.452C60.631,23.222 60.625,22.988 60.603,22.751Z" fill="url(#pf_0_219_1191)"/>
<defs>
<linearGradient id="pf_0_219_1191" x1="3.785" y1="15.339" x2="55.303" y2="32.024" gradientUnits="userSpaceOnUse">
<stop offset="0" stop-color="#FC5252"/>
<stop offset="0.999" stop-color="#9D00C6"/>
</linearGradient>
</defs>
</svg>
