<svg width="26" height="26" viewBox="0 0 26 26" fill="none" xmlns="http://www.w3.org/2000/svg" xmlns:xlink="http://www.w3.org/1999/xlink">
<path d="M1.038,8.441L0.054,8.617L0.054,8.619L1.038,8.441ZM6.972,0.814L6.894,-0.183L6.893,-0.183L6.972,0.814ZM12.652,5.669L13.613,5.395L13.596,5.332L13.57,5.273L12.652,5.669ZM12.779,5.669L11.839,5.327L11.827,5.36L11.817,5.395L12.779,5.669ZM18.499,0.839L18.6,1.834L18.606,1.833L18.499,0.839ZM24.398,7.866L25.386,8.019L25.387,8.014L24.398,7.866ZM12.642,23.024L12.08,23.851L12.672,24.253L13.244,23.822L12.642,23.024ZM2.023,8.264C1.426,4.934 3.595,2.084 7.051,1.81L6.893,-0.183C2.264,0.183 -0.753,4.117 0.054,8.617L2.023,8.264ZM7.05,1.81C8.358,1.708 9.402,2.429 10.237,3.458C11.069,4.483 11.552,5.646 11.734,6.066L13.57,5.273C13.395,4.869 12.818,3.464 11.79,2.197C10.764,0.934 9.146,-0.36 6.894,-0.183L7.05,1.81ZM11.69,5.944C11.754,6.167 11.888,6.363 12.073,6.502L13.278,4.906C13.44,5.028 13.558,5.2 13.613,5.395L11.69,5.944ZM12.073,6.502C12.258,6.642 12.484,6.717 12.715,6.717L12.715,4.717C12.918,4.717 13.116,4.784 13.278,4.906L12.073,6.502ZM12.715,6.717C12.947,6.717 13.172,6.642 13.357,6.502L12.153,4.906C12.315,4.784 12.512,4.717 12.715,4.717L12.715,6.717ZM13.357,6.502C13.542,6.363 13.677,6.167 13.74,5.944L11.817,5.395C11.873,5.2 11.991,5.028 12.153,4.906L13.357,6.502ZM13.718,6.012C14.474,3.942 15.497,2.959 16.361,2.462C17.248,1.952 18.068,1.888 18.6,1.834L18.399,-0.156C17.873,-0.103 16.659,-0.017 15.363,0.729C14.045,1.487 12.737,2.867 11.839,5.327L13.718,6.012ZM18.606,1.833C19.754,1.71 21.125,2.099 22.115,3.039C23.07,3.945 23.749,5.441 23.409,7.718L25.387,8.014C25.814,5.16 24.968,2.99 23.493,1.589C22.054,0.223 20.092,-0.337 18.393,-0.155L18.606,1.833ZM23.409,7.714C23.165,9.295 22.376,10.994 21.262,12.688C20.154,14.374 18.763,15.997 17.389,17.42C16.016,18.84 14.675,20.045 13.676,20.895C13.177,21.319 12.765,21.654 12.479,21.882C12.336,21.996 12.224,22.083 12.15,22.141C12.112,22.17 12.084,22.192 12.065,22.206C12.056,22.213 12.049,22.218 12.045,22.221C12.043,22.223 12.041,22.224 12.04,22.225C12.04,22.225 12.039,22.225 12.039,22.226C12.039,22.226 12.039,22.226 12.039,22.226C12.039,22.226 12.039,22.225 12.642,23.024C13.244,23.822 13.244,23.822 13.244,23.822C13.244,23.822 13.245,23.822 13.245,23.821C13.245,23.821 13.246,23.82 13.247,23.82C13.249,23.819 13.251,23.817 13.254,23.814C13.26,23.81 13.268,23.804 13.279,23.795C13.301,23.779 13.333,23.754 13.374,23.723C13.455,23.659 13.574,23.567 13.725,23.447C14.026,23.207 14.455,22.858 14.972,22.418C16.006,21.538 17.398,20.288 18.827,18.809C20.254,17.332 21.734,15.611 22.933,13.787C24.126,11.972 25.081,9.997 25.386,8.019L23.409,7.714ZM12.642,23.024C13.203,22.196 13.203,22.196 13.203,22.196C13.203,22.196 13.203,22.196 13.203,22.196C13.203,22.196 13.203,22.196 13.203,22.196C13.202,22.195 13.201,22.195 13.199,22.193C13.195,22.191 13.188,22.186 13.18,22.18C13.162,22.168 13.136,22.15 13.1,22.125C13.029,22.075 12.923,22 12.787,21.901C12.514,21.704 12.12,21.411 11.642,21.035C10.683,20.282 9.393,19.202 8.063,17.89C5.363,15.228 2.658,11.767 2.022,8.262L0.054,8.619C0.807,12.766 3.903,16.598 6.658,19.314C8.055,20.691 9.405,21.822 10.406,22.608C10.907,23.001 11.322,23.31 11.613,23.521C11.759,23.626 11.874,23.708 11.953,23.763C11.993,23.791 12.024,23.812 12.045,23.827C12.056,23.834 12.064,23.84 12.07,23.844C12.073,23.846 12.075,23.848 12.077,23.849C12.078,23.85 12.078,23.85 12.079,23.85C12.079,23.851 12.08,23.851 12.08,23.851C12.08,23.851 12.08,23.851 12.642,23.024Z" fill="#9E028F"/>
</svg>
