<svg width="26" height="26" viewBox="0 0 26 26" fill="none" xmlns="http://www.w3.org/2000/svg" xmlns:xlink="http://www.w3.org/1999/xlink">
<path d="M0.905,8.441L-0.079,8.617L-0.079,8.619L0.905,8.441ZM6.839,0.814L6.761,-0.183L6.76,-0.183L6.839,0.814ZM12.519,5.669L13.481,5.395L13.463,5.332L13.437,5.273L12.519,5.669ZM12.646,5.669L11.707,5.327L11.694,5.36L11.685,5.395L12.646,5.669ZM18.366,0.839L18.467,1.834L18.473,1.833L18.366,0.839ZM24.265,7.866L25.253,8.019L25.254,8.014L24.265,7.866ZM12.509,23.024L11.947,23.851L12.54,24.253L13.111,23.822L12.509,23.024ZM1.89,8.264C1.293,4.934 3.462,2.084 6.918,1.81L6.76,-0.183C2.132,0.183 -0.885,4.117 -0.079,8.617L1.89,8.264ZM6.918,1.81C8.225,1.708 9.269,2.429 10.104,3.458C10.937,4.483 11.42,5.646 11.601,6.066L13.437,5.273C13.262,4.869 12.685,3.464 11.657,2.197C10.631,0.934 9.013,-0.36 6.761,-0.183L6.918,1.81ZM11.557,5.944C11.621,6.167 11.756,6.363 11.941,6.502L13.145,4.906C13.307,5.028 13.425,5.2 13.481,5.395L11.557,5.944ZM11.941,6.502C12.125,6.642 12.351,6.717 12.583,6.717L12.583,4.717C12.785,4.717 12.983,4.784 13.145,4.906L11.941,6.502ZM12.583,6.717C12.814,6.717 13.04,6.642 13.225,6.502L12.02,4.906C12.182,4.784 12.38,4.717 12.583,4.717L12.583,6.717ZM13.225,6.502C13.409,6.363 13.544,6.167 13.608,5.944L11.685,5.395C11.74,5.2 11.858,5.028 12.02,4.906L13.225,6.502ZM13.586,6.012C14.341,3.942 15.364,2.959 16.228,2.462C17.115,1.952 17.935,1.888 18.467,1.834L18.266,-0.156C17.74,-0.103 16.526,-0.017 15.231,0.729C13.912,1.487 12.604,2.867 11.707,5.327L13.586,6.012ZM18.473,1.833C19.621,1.71 20.992,2.099 21.983,3.039C22.937,3.945 23.616,5.441 23.276,7.718L25.254,8.014C25.681,5.16 24.835,2.99 23.36,1.589C21.921,0.223 19.959,-0.337 18.26,-0.155L18.473,1.833ZM23.276,7.714C23.032,9.295 22.243,10.994 21.129,12.688C20.021,14.374 18.63,15.997 17.256,17.42C15.883,18.84 14.542,20.045 13.543,20.895C13.044,21.319 12.632,21.654 12.346,21.882C12.203,21.996 12.092,22.083 12.017,22.141C11.979,22.17 11.951,22.192 11.932,22.206C11.923,22.213 11.916,22.218 11.912,22.221C11.91,22.223 11.908,22.224 11.907,22.225C11.907,22.225 11.907,22.225 11.907,22.226C11.906,22.226 11.906,22.226 11.906,22.226C11.907,22.226 11.907,22.225 12.509,23.024C13.111,23.822 13.111,23.822 13.111,23.822C13.112,23.822 13.112,23.822 13.112,23.821C13.113,23.821 13.113,23.82 13.114,23.82C13.116,23.819 13.118,23.817 13.121,23.814C13.127,23.81 13.135,23.804 13.146,23.795C13.168,23.779 13.2,23.754 13.241,23.723C13.323,23.659 13.441,23.567 13.592,23.447C13.893,23.207 14.322,22.858 14.839,22.418C15.873,21.538 17.265,20.288 18.694,18.809C20.121,17.332 21.601,15.611 22.8,13.787C23.993,11.972 24.948,9.997 25.253,8.019L23.276,7.714ZM12.509,23.024C13.07,22.196 13.07,22.196 13.07,22.196C13.07,22.196 13.071,22.196 13.071,22.196C13.07,22.196 13.07,22.196 13.07,22.196C13.069,22.195 13.068,22.195 13.066,22.193C13.062,22.191 13.056,22.186 13.047,22.18C13.029,22.168 13.003,22.15 12.967,22.125C12.896,22.075 12.79,22 12.654,21.901C12.381,21.704 11.987,21.411 11.509,21.035C10.551,20.282 9.26,19.202 7.93,17.89C5.23,15.228 2.525,11.767 1.889,8.262L-0.079,8.619C0.674,12.766 3.771,16.598 6.526,19.314C7.922,20.691 9.273,21.822 10.273,22.608C10.774,23.001 11.189,23.31 11.48,23.521C11.626,23.626 11.741,23.708 11.82,23.763C11.86,23.791 11.891,23.812 11.912,23.827C11.923,23.834 11.931,23.84 11.937,23.844C11.94,23.846 11.942,23.848 11.944,23.849C11.945,23.85 11.946,23.85 11.946,23.85C11.946,23.851 11.947,23.851 11.947,23.851C11.947,23.851 11.947,23.851 12.509,23.024Z" fill="#000000"/>
</svg>
