<svg width="16" height="20" viewBox="0 0 16 20" fill="none" xmlns="http://www.w3.org/2000/svg" xmlns:xlink="http://www.w3.org/1999/xlink">
<path d="M5.597,18.36C4.325,18.36 3.185,18.12 2.177,17.64C1.193,17.136 0.413,16.464 -0.163,15.624C-0.715,14.784 -0.991,13.836 -0.991,12.78C-0.991,11.484 -0.655,10.464 0.017,9.72C0.689,8.952 1.781,8.4 3.293,8.064C4.805,7.728 6.833,7.56 9.377,7.56L11.177,7.56L11.177,10.152L9.413,10.152C7.925,10.152 6.737,10.224 5.849,10.368C4.961,10.512 4.325,10.764 3.941,11.124C3.581,11.46 3.401,11.94 3.401,12.564C3.401,13.356 3.677,14.004 4.229,14.508C4.781,15.012 5.549,15.264 6.533,15.264C7.325,15.264 8.021,15.084 8.621,14.724C9.245,14.34 9.737,13.824 10.097,13.176C10.457,12.528 10.637,11.784 10.637,10.944L10.637,6.804C10.637,5.604 10.373,4.74 9.845,4.212C9.317,3.684 8.429,3.42 7.181,3.42C6.485,3.42 5.729,3.504 4.913,3.672C4.121,3.84 3.281,4.128 2.393,4.536C1.937,4.752 1.529,4.812 1.169,4.716C0.833,4.62 0.569,4.428 0.377,4.14C0.185,3.828 0.089,3.492 0.089,3.132C0.089,2.772 0.185,2.424 0.377,2.088C0.569,1.728 0.893,1.464 1.349,1.296C2.453,0.84 3.509,0.516 4.517,0.324C5.549,0.132 6.485,0.036 7.325,0.036C9.053,0.036 10.469,0.3 11.573,0.828C12.701,1.356 13.541,2.16 14.093,3.24C14.645,4.296 14.921,5.664 14.921,7.344L14.921,15.984C14.921,16.728 14.741,17.304 14.381,17.712C14.021,18.096 13.505,18.288 12.833,18.288C12.161,18.288 11.633,18.096 11.249,17.712C10.889,17.304 10.709,16.728 10.709,15.984L10.709,14.256L10.997,14.256C10.829,15.096 10.493,15.828 9.989,16.452C9.509,17.052 8.897,17.52 8.153,17.856C7.409,18.192 6.557,18.36 5.597,18.36Z" fill="#9E028F"/>
</svg>
