<svg width="18" height="26" viewBox="0 0 18 26" fill="none" xmlns="http://www.w3.org/2000/svg" xmlns:xlink="http://www.w3.org/1999/xlink">
<path d="M8.274,24.84C6.978,24.84 5.718,24.72 4.494,24.48C3.294,24.24 2.202,23.868 1.218,23.364C0.762,23.124 0.45,22.836 0.282,22.5C0.138,22.164 0.09,21.816 0.138,21.456C0.21,21.12 0.354,20.82 0.57,20.556C0.81,20.292 1.098,20.112 1.434,20.016C1.77,19.92 2.118,19.968 2.478,20.16C3.534,20.688 4.53,21.024 5.466,21.168C6.426,21.336 7.242,21.42 7.914,21.42C9.522,21.42 10.722,21.024 11.514,20.232C12.33,19.464 12.738,18.312 12.738,16.776L12.738,13.536L13.062,13.536C12.702,14.76 11.946,15.744 10.794,16.488C9.666,17.208 8.382,17.568 6.942,17.568C5.358,17.568 3.978,17.208 2.802,16.488C1.626,15.744 0.714,14.712 0.066,13.392C-0.582,12.072 -0.906,10.536 -0.906,8.784C-0.906,7.464 -0.726,6.276 -0.366,5.22C0.018,4.14 0.546,3.216 1.218,2.448C1.914,1.68 2.742,1.092 3.702,0.684C4.686,0.252 5.766,0.036 6.942,0.036C8.43,0.036 9.726,0.408 10.83,1.152C11.958,1.872 12.69,2.832 13.026,4.032L12.666,4.932L12.666,2.376C12.666,1.632 12.858,1.068 13.242,0.684C13.65,0.3 14.202,0.108 14.898,0.108C15.618,0.108 16.17,0.3 16.554,0.684C16.938,1.068 17.13,1.632 17.13,2.376L17.13,16.236C17.13,19.092 16.374,21.24 14.862,22.68C13.35,24.12 11.154,24.84 8.274,24.84ZM8.166,14.148C9.102,14.148 9.906,13.932 10.578,13.5C11.25,13.068 11.766,12.456 12.126,11.664C12.51,10.848 12.702,9.888 12.702,8.784C12.702,7.128 12.294,5.832 11.478,4.896C10.662,3.936 9.558,3.456 8.166,3.456C7.23,3.456 6.426,3.672 5.754,4.104C5.082,4.536 4.554,5.148 4.17,5.94C3.81,6.732 3.63,7.68 3.63,8.784C3.63,10.44 4.038,11.748 4.854,12.708C5.67,13.668 6.774,14.148 8.166,14.148Z" fill="#9E028F"/>
</svg>
