<svg width="32" height="34" viewBox="0 0 32 34" fill="none" xmlns="http://www.w3.org/2000/svg" xmlns:xlink="http://www.w3.org/1999/xlink">
<path d="M31.218,30.611L23.555,22.948C25.455,20.632 26.599,17.666 26.599,14.433C26.599,7.017 20.582,1 13.166,1C5.744,1 -0.267,7.017 -0.267,14.433C-0.267,21.849 5.744,27.866 13.166,27.866C16.399,27.866 19.359,26.728 21.675,24.828L29.338,32.485C29.859,33.005 30.698,33.005 31.218,32.485C31.739,31.971 31.739,31.125 31.218,30.611ZM13.166,25.192C7.227,25.192 2.4,20.366 2.4,14.433C2.4,8.5 7.227,3.667 13.166,3.667C19.099,3.667 23.932,8.5 23.932,14.433C23.932,20.366 19.099,25.192 13.166,25.192Z" fill="#242259"/>
</svg>
