<svg width="50" height="50" viewBox="0 0 50 50" fill="none" xmlns="http://www.w3.org/2000/svg" xmlns:xlink="http://www.w3.org/1999/xlink">
<path d="M24.569,-0.402C38.384,-0.402 49.607,10.791 49.607,24.636C49.607,30.77 47.403,36.426 43.685,40.774C43.236,41.311 42.762,41.844 42.255,42.352C37.729,46.908 31.476,49.704 24.569,49.704L3.223,49.704C1.168,49.704 -0.499,48.037 -0.499,45.981L-0.499,3.321C-0.499,1.265 1.168,-0.402 3.223,-0.402L24.569,-0.402ZM8.435,40.77L24.573,40.77C33.443,40.77 40.681,33.536 40.681,24.632C40.681,15.761 33.448,8.524 24.573,8.524L8.435,8.524L8.435,40.77Z" fill="#242259"/>
</svg>
