<svg width="36" height="36" viewBox="0 0 36 36" fill="none" xmlns="http://www.w3.org/2000/svg" xmlns:xlink="http://www.w3.org/1999/xlink">
<path d="M35.129,9.188C35.129,13.172 32.769,16.615 29.369,18.154C28.48,18.566 27.529,18.846 26.532,18.954C26.446,18.975 26.338,18.975 26.252,18.975L26.252,19.04L5.498,19.04L5.498,33.105C5.498,34.6 4.286,35.812 2.791,35.812L1.711,35.812C0.215,35.812 -0.997,34.6 -0.997,33.105L-0.997,2.052C-0.997,0.557 0.215,-0.655 1.711,-0.655L25.301,-0.665C28.031,-0.665 30.477,0.44 32.252,2.215C34.025,4.012 35.129,6.48 35.129,9.188ZM28.634,9.188C28.634,7.997 28.006,7.175 27.637,6.785C27.203,6.372 26.446,5.831 25.298,5.831L5.501,5.831L5.501,12.545L25.298,12.545C25.775,12.545 26.231,12.458 26.665,12.24C27.877,11.698 28.634,10.508 28.634,9.188Z" fill="#242259"/>
</svg>
