<svg width="50" height="50" viewBox="0 0 50 50" fill="none" xmlns="http://www.w3.org/2000/svg" xmlns:xlink="http://www.w3.org/1999/xlink">
<path d="M49.665,3.325L49.665,45.986C49.665,48.042 47.999,49.708 45.943,49.708L44.449,49.708C42.394,49.708 40.727,48.042 40.727,45.986L40.727,26.713L8.498,26.713L8.498,45.973C8.498,48.029 6.831,49.696 4.775,49.696L3.278,49.696C1.222,49.696 -0.445,48.029 -0.445,45.973L-0.445,3.312C-0.445,1.257 1.222,-0.41 3.278,-0.41L4.775,-0.41C6.831,-0.41 8.498,1.257 8.498,3.312L8.498,17.779L40.727,17.779L40.727,3.325C40.727,1.269 42.394,-0.397 44.449,-0.397L45.943,-0.397C47.999,-0.397 49.665,1.269 49.665,3.325Z" fill="#242259"/>
</svg>
