<svg width="12" height="7" viewBox="0 0 12 7" fill="none" xmlns="http://www.w3.org/2000/svg">
<g clip-path="url(#clip0_1_1499)">
<path d="M1.93051 1.07698L6.20442 5.35098L11.2104 1.14769L11.2811 1.07696C11.2811 1.07697 11.2811 1.07697 11.2811 1.07698C11.392 1.18776 11.4474 1.33319 11.4474 1.47826C11.4474 1.62335 11.3919 1.76878 11.2811 1.87959L6.60568 6.55486C6.60568 6.55486 6.60567 6.55487 6.60567 6.55487C6.49923 6.66134 6.35489 6.72111 6.20438 6.72111C6.05389 6.72111 5.90951 6.66134 5.80307 6.55487C5.80306 6.55486 5.80306 6.55486 5.80305 6.55486L1.12788 1.87956C0.906225 1.65794 0.906234 1.29857 1.12791 1.07694C1.34955 0.855337 1.70887 0.855337 1.93051 1.07698L1.93051 1.07698Z" fill="#9E028F" stroke="#9E028F" stroke-width="0.2"/>
</g>
<defs>
<clipPath id="clip0_1_1499">
<rect width="7" height="12" fill="white" transform="matrix(0 1 1 0 0 0)"/>
</clipPath>
</defs>
</svg>
