<svg width="13" height="8" viewBox="0 0 13 8" fill="none" xmlns="http://www.w3.org/2000/svg">
<g clip-path="url(#clip0_1_1759)">
<path d="M6.86657 5.59939L11.8648 0.601227L11.8648 0.601222C12.1169 0.349195 12.5256 0.349195 12.7776 0.601264C12.9037 0.727256 12.9667 0.892628 12.9667 1.05765C12.9667 1.22268 12.9037 1.38805 12.7776 1.51408L7.32293 6.96856C7.32292 6.96856 7.32292 6.96857 7.32291 6.96857C7.20186 7.08966 7.0377 7.15764 6.86653 7.15764C6.69537 7.15764 6.53116 7.08966 6.41011 6.96857C6.41011 6.96857 6.4101 6.96856 6.4101 6.96856L0.955723 1.51404C0.70364 1.262 0.703649 0.853289 0.955759 0.601222C1.20783 0.349195 1.61649 0.349195 1.86856 0.601264L1.86856 0.601265L6.86657 5.59939Z" fill="#242259" stroke="#242259" stroke-width="0.2"/>
</g>
<defs>
<clipPath id="clip0_1_1759">
<rect width="7" height="12" fill="white" transform="matrix(0 1 1 0 0.866669 0.5)"/>
</clipPath>
</defs>
</svg>
