<svg width="13" height="8" viewBox="0 0 13 8" fill="none" xmlns="http://www.w3.org/2000/svg">
<g clip-path="url(#clip0_1_1450)">
<path d="M1.99717 1.57698L6.27108 5.85098L11.2771 1.64769L11.3478 1.57696C11.3478 1.57697 11.3478 1.57697 11.3478 1.57698C11.4586 1.68776 11.514 1.83319 11.514 1.97826C11.514 2.12335 11.4586 2.26878 11.3478 2.37959L6.67235 7.05486C6.67234 7.05486 6.67234 7.05487 6.67234 7.05487C6.5659 7.16134 6.42155 7.22111 6.27105 7.22111C6.12055 7.22111 5.97617 7.16134 5.86973 7.05487C5.86973 7.05486 5.86972 7.05486 5.86972 7.05486L1.19454 2.37956C0.972891 2.15794 0.9729 1.79857 1.19457 1.57694C1.41621 1.35534 1.77553 1.35534 1.99717 1.57698L1.99717 1.57698Z" fill="#242259" stroke="#242259" stroke-width="0.2"/>
</g>
<defs>
<clipPath id="clip0_1_1450">
<rect width="7" height="12" fill="white" transform="matrix(0 1 1 0 0.0666656 0.5)"/>
</clipPath>
</defs>
</svg>
