<svg width="13" height="8" viewBox="0 0 13 8" fill="none" xmlns="http://www.w3.org/2000/svg">
<g clip-path="url(#clip0_1_599)">
<path d="M6.73324 6.09951L11.7315 1.10135L11.7315 1.10134C11.9836 0.849317 12.3922 0.849317 12.6443 1.10139C12.7703 1.22738 12.8333 1.39275 12.8333 1.55777C12.8333 1.7228 12.7703 1.88818 12.6443 2.0142L7.18959 7.46868C7.18959 7.46868 7.18959 7.46869 7.18958 7.46869C7.06853 7.58978 6.90437 7.65776 6.7332 7.65776C6.56204 7.65776 6.39783 7.58978 6.27678 7.46869C6.27677 7.46869 6.27677 7.46868 6.27677 7.46868L0.822392 2.01416C0.570309 1.76212 0.570318 1.35341 0.822428 1.10134C1.0745 0.849317 1.48315 0.849317 1.73522 1.10139L1.73523 1.10139L6.73324 6.09951Z" fill="black" stroke="black" stroke-width="0.2"/>
</g>
<defs>
<clipPath id="clip0_1_599">
<rect width="8" height="13" fill="white" transform="matrix(0 1 1 0 0 0)"/>
</clipPath>
</defs>
</svg>
