<svg width="40" height="40" viewBox="0 0 40 40" fill="none" xmlns="http://www.w3.org/2000/svg">
<rect width="40" height="40" rx="7" fill="#9E028F"/>
<path d="M10 24.667C10 26.95 11.8481 28.8136 14.1467 28.8136H14.566C16.849 28.8136 18.7127 26.9655 18.7127 24.667V20.101H10V24.667ZM10.8231 20.9396H17.8585V24.667C17.8585 26.4996 16.3676 27.975 14.5505 27.975H14.1311C12.2985 27.975 10.8231 26.484 10.8231 24.667V20.9396ZM29.5841 22.8654L21.7877 26.0337C22.4866 27.4314 23.8999 28.3788 25.5306 28.3788C27.8602 28.3788 29.7394 26.4374 29.7394 24.0302C29.7394 23.6419 29.6928 23.2381 29.5841 22.8654ZM25.5306 19.6972C23.201 19.6972 21.3218 21.6385 21.3218 24.0457C21.3218 24.4495 21.384 24.8378 21.4771 25.2105L29.2735 22.0423C28.5591 20.6445 27.1613 19.6972 25.5306 19.6972ZM14.5505 11H14.1311C11.8481 11 10 12.8481 10 15.1311V19.6816H18.6972V15.1311C18.6972 12.8481 16.849 11 14.5505 11Z" fill="white"/>
</svg>
