<svg width="12" height="7" viewBox="0 0 12 7" fill="none" xmlns="http://www.w3.org/2000/svg">
<g id="arrow down" clip-path="url(#clip0_1_7783)">
<path id="XMLID_222_" d="M1.93039 1.07673L6.20429 5.35073L11.2103 1.14744L11.281 1.07672C11.281 1.07672 11.281 1.07673 11.281 1.07673C11.3918 1.18751 11.4472 1.33294 11.4472 1.47802C11.4472 1.62311 11.3918 1.76854 11.281 1.87935L6.60556 6.55461C6.60556 6.55462 6.60555 6.55462 6.60555 6.55463C6.49911 6.66109 6.35476 6.72087 6.20426 6.72087C6.05376 6.72087 5.90939 6.6611 5.80294 6.55462C5.80294 6.55462 5.80294 6.55462 5.80293 6.55461L1.12776 1.87931C0.906103 1.6577 0.906112 1.29833 1.12779 1.07669C1.34943 0.855093 1.70875 0.855093 1.93039 1.07673L1.93039 1.07673Z" fill="#9E028F" stroke="#9E028F" stroke-width="0.2"/>
</g>
<defs>
<clipPath id="clip0_1_7783">
<rect width="7" height="12" fill="white" transform="matrix(0 1 1 0 0 0)"/>
</clipPath>
</defs>
</svg>
