<svg width="180" height="138" viewBox="0 0 180 138" fill="none" xmlns="http://www.w3.org/2000/svg">
<path d="M166.5 48C173.956 48 180.104 54.0775 178.989 61.4496C177.55 70.9703 174.588 80.2279 170.191 88.8591C163.743 101.514 154.391 112.463 142.901 120.812C131.41 129.16 118.107 134.67 104.079 136.892C90.051 139.114 75.6963 137.984 62.1885 133.595C48.6807 129.206 36.4034 121.683 26.3604 111.64C16.3174 101.597 8.79386 89.3193 4.40491 75.8115C0.0159637 62.3037 -1.11378 47.949 1.10805 33.9209C2.62345 24.3531 5.66862 15.1225 10.1006 6.57428C13.5324 -0.0448074 22.0783 -1.34801 28.1102 3.03442C34.1421 7.41686 35.3226 15.829 32.3231 22.6549C30.1567 27.5849 28.6238 32.7893 27.7756 38.1446C26.2204 47.9643 27.0112 58.0126 30.0834 67.4681C33.1557 76.9235 38.4222 85.5176 45.4523 92.5477C52.4824 99.5778 61.0765 104.844 70.5319 107.917C79.9874 110.989 90.0357 111.78 99.8554 110.224C109.675 108.669 118.987 104.812 127.03 98.9681C135.074 93.1243 141.62 85.4598 146.133 76.6014C148.595 71.7703 150.414 66.6588 151.559 61.397C153.145 54.1117 159.044 48 166.5 48Z" fill="#9E028F"/>
</svg>
