<svg width="40" height="40" viewBox="0 0 40 40" fill="none" xmlns="http://www.w3.org/2000/svg">
<rect x="0.5" y="0.5" width="39" height="39" rx="6.5" fill="white"/>
<rect x="0.5" y="0.5" width="39" height="39" rx="6.5" stroke="#BCC5D5"/>
<path d="M19.7778 9.81494C17.6167 9.81494 15.5442 10.6734 14.0161 12.2015C12.4881 13.7296 11.6296 15.8021 11.6296 17.9631V19.8983C11.3223 20.166 11.0734 20.494 10.8982 20.8619C10.723 21.2299 10.6253 21.6299 10.6111 22.0372C10.6343 22.6278 10.8353 23.1976 11.1879 23.6719C11.5405 24.1463 12.0282 24.503 12.587 24.6955C13.9111 27.8631 16.5694 30.1853 19.7778 30.1853H22.8333V28.1483H19.7778C17.4759 28.1483 15.3879 26.4168 14.3389 23.677L14.125 23.1168L13.524 23.0557C13.2793 23.0211 13.0555 22.8987 12.8944 22.7113C12.7332 22.5239 12.6457 22.2843 12.6481 22.0372C12.6492 21.8594 12.6968 21.685 12.7861 21.5314C12.8754 21.3777 13.0034 21.2501 13.1574 21.1612L13.6666 20.8659V18.9816C13.6666 18.7115 13.7739 18.4524 13.965 18.2614C14.156 18.0704 14.415 17.9631 14.6852 17.9631H24.8703C25.1405 17.9631 25.3995 18.0704 25.5905 18.2614C25.7816 18.4524 25.8889 18.7115 25.8889 18.9816V24.0742H21.7231C21.6307 23.8149 21.4699 23.5854 21.2577 23.41C21.0456 23.2346 20.79 23.1197 20.5179 23.0776C20.2459 23.0355 19.9675 23.0676 19.7123 23.1706C19.457 23.2737 19.2343 23.4438 19.0677 23.6629C18.9012 23.8821 18.7969 24.1422 18.766 24.4157C18.7351 24.6893 18.7786 24.9661 18.8921 25.2169C19.0055 25.4677 19.1846 25.6832 19.4104 25.8407C19.6362 25.9981 19.9004 26.0916 20.175 26.1112H27.9259C28.4662 26.1112 28.9843 25.8966 29.3663 25.5146C29.7483 25.1326 29.9629 24.6145 29.9629 24.0742V22.0372C29.9629 21.4969 29.7483 20.9788 29.3663 20.5968C28.9843 20.2147 28.4662 20.0001 27.9259 20.0001V17.9631C27.9259 15.8021 27.0674 13.7296 25.5394 12.2015C24.0113 10.6734 21.9388 9.81494 19.7778 9.81494Z" fill="#030229"/>
</svg>
