<svg width="21" height="21" viewBox="0 0 21 22" fill="none" xmlns="http://www.w3.org/2000/svg">
<g id="support-svgrepo-com 1">
<path id="Vector" d="M9.778 0.814697C7.61697 0.814697 5.54446 1.67316 4.01638 3.20123C2.48831 4.72931 1.62985 6.80182 1.62985 8.96285V10.898C1.32259 11.1657 1.07364 11.4937 0.898429 11.8617C0.723221 12.2296 0.625499 12.6296 0.611328 13.0369C0.634527 13.6275 0.835593 14.1973 1.18818 14.6717C1.54077 15.146 2.02842 15.5028 2.58725 15.6953C3.91133 18.8628 6.56966 21.1851 9.778 21.1851H12.8336V19.148H9.778C7.47614 19.148 5.38818 17.4165 4.33911 14.6767L4.12522 14.1166L3.52429 14.0554C3.27957 14.0208 3.05577 13.8984 2.89461 13.7111C2.73345 13.5237 2.64593 13.2841 2.64837 13.0369C2.64944 12.8592 2.69701 12.6848 2.78635 12.5311C2.87569 12.3775 3.00369 12.2499 3.15762 12.161L3.66688 11.8656V9.98136C3.66688 9.71124 3.77419 9.45217 3.9652 9.26116C4.15621 9.07015 4.41527 8.96285 4.6854 8.96285H14.8706C15.1407 8.96285 15.3998 9.07015 15.5908 9.26116C15.7818 9.45217 15.8891 9.71124 15.8891 9.98136V15.074H11.7234C11.6309 14.8147 11.4701 14.5852 11.258 14.4098C11.0458 14.2343 10.7902 14.1195 10.5182 14.0773C10.2462 14.0352 9.96778 14.0674 9.71251 14.1704C9.45724 14.2734 9.23456 14.4435 9.06799 14.6627C8.90142 14.8819 8.79717 15.142 8.76624 15.4155C8.73532 15.689 8.77887 15.9658 8.89231 16.2167C9.00574 16.4675 9.18483 16.683 9.41066 16.8404C9.63648 16.9978 9.90064 17.0913 10.1752 17.111H17.9261C18.4664 17.111 18.9845 16.8964 19.3665 16.5144C19.7486 16.1323 19.9632 15.6142 19.9632 15.074V13.0369C19.9632 12.4967 19.7486 11.9785 19.3665 11.5965C18.9845 11.2145 18.4664 10.9999 17.9261 10.9999V8.96285C17.9261 6.80182 17.0677 4.72931 15.5396 3.20123C14.0115 1.67316 11.939 0.814697 9.778 0.814697Z" fill="#030229"/>
</g>
</svg>
