<svg width="12" height="18" viewBox="0 0 12 18" fill="none" xmlns="http://www.w3.org/2000/svg">
<g clip-path="url(#clip0_1_1746)">
<path d="M1.50946 4.66557C1.7699 3.86305 2.24736 3.14831 2.88876 2.60016C3.53017 2.052 4.31035 1.69213 5.14361 1.55991C5.97698 1.42771 6.83117 1.5286 7.61079 1.85132C8.3903 2.17402 9.0647 2.70614 9.56082 3.38865C10.0568 4.07114 10.3546 4.87726 10.421 5.71836C10.4873 6.55947 10.3192 7.40245 9.93616 8.15416C9.55315 8.906 8.97047 9.53763 8.251 9.9785C7.53165 10.4194 6.70434 10.6528 5.86067 10.6528V11.796M5.91762 16.3708V16.4852L5.80372 16.4854V16.3708H5.91762Z" stroke="#242259" stroke-width="2" stroke-linecap="round" stroke-linejoin="round"/>
</g>
<defs>
<clipPath id="clip0_1_1746">
<rect width="11.6471" height="18" fill="white"/>
</clipPath>
</defs>
</svg>
