<svg width="12" height="18" viewBox="0 0 12 18" fill="none" xmlns="http://www.w3.org/2000/svg">
<g id="help-svgrepo-com 1" clip-path="url(#clip0_1_8030)">
<g id="Warning / Help">
<path id="Vector" d="M1.50928 4.66557C1.76972 3.86305 2.24718 3.14831 2.88858 2.60016C3.52998 2.052 4.31016 1.69213 5.14342 1.55991C5.9768 1.42771 6.83098 1.5286 7.61061 1.85132C8.39011 2.17402 9.06452 2.70614 9.56063 3.38865C10.0566 4.07114 10.3544 4.87726 10.4208 5.71836C10.4871 6.55947 10.319 7.40245 9.93598 8.15416C9.55297 8.906 8.97028 9.53763 8.25082 9.9785C7.53147 10.4194 6.70415 10.6528 5.86049 10.6528V11.796M5.91744 16.3708V16.4852L5.80353 16.4854V16.3708H5.91744Z" stroke="#242259" stroke-width="2" stroke-linecap="round" stroke-linejoin="round"/>
</g>
</g>
<defs>
<clipPath id="clip0_1_8030">
<rect width="11.6471" height="18" fill="white"/>
</clipPath>
</defs>
</svg>
