<svg width="40" height="40" viewBox="0 0 40 40" fill="none" xmlns="http://www.w3.org/2000/svg">
<g clip-path="url(#clip0_1_1657)">
<path d="M21.01 11C16.04 11 12.01 15.03 12.01 20H9.01001L12.9 23.89L12.97 24.03L17.01 20H14.01C14.01 16.13 17.14 13 21.01 13C24.88 13 28.01 16.13 28.01 20C28.01 23.87 24.88 27 21.01 27C19.08 27 17.33 26.21 16.07 24.94L14.65 26.36C16.28 27.99 18.52 29 21.01 29C25.98 29 30.01 24.97 30.01 20C30.01 15.03 25.98 11 21.01 11ZM20.01 16V21L24.29 23.54L25.01 22.33L21.51 20.25V16H20.01Z" fill="white"/>
</g>
<defs>
<clipPath id="clip0_1_1657">
<rect width="21.03" height="18" fill="white" transform="translate(9 11)"/>
</clipPath>
</defs>
</svg>
