<svg width="60" height="60" viewBox="0 0 60 60" fill="none" xmlns="http://www.w3.org/2000/svg">
<circle cx="30" cy="30" r="30" fill="#FFFDFD"/>
<path d="M35.6286 36.5711C38.2255 36.5711 40.3316 34.424 40.3316 31.7766C40.3316 29.1292 38.2255 26.9821 35.6286 26.9821C33.0318 26.9821 30.9257 29.1292 30.9257 31.7766C30.9257 34.424 33.0318 36.5711 35.6286 36.5711ZM21.8461 40.4914C20.1553 40.4914 18.7854 41.888 18.7854 43.6117C18.7854 45.3354 20.1553 46.732 21.8461 46.732C23.5369 46.732 24.9068 45.3354 24.9068 43.6117C24.9068 41.888 23.5369 40.4914 21.8461 40.4914ZM57.9676 32.0625C57.6764 28.4694 54.8018 25.5718 51.2719 25.3161C48.0548 25.0852 45.2422 26.9958 44.0692 29.7917L44.0611 29.811C44.0611 29.811 44.0611 29.8137 44.0584 29.8192L41.9927 34.8419C40.9869 37.2859 38.994 39.1691 36.5293 40.0075H36.5266C34.79 40.5959 32.8673 40.1587 31.5432 38.8612C31.012 38.3416 30.5886 37.9264 30.5886 37.9264C29.5181 36.8845 28.8115 35.5264 28.5526 34.0639C28.4637 33.5635 28.4259 33.0467 28.4448 32.5299L28.6578 26.9519L28.7576 24.3374L28.7549 24.3402C28.7549 24.2632 28.7576 24.189 28.7576 24.112C28.7576 17.1402 22.976 11.5429 16.0375 12.0295C10.1777 12.4419 5.43431 17.2831 5.02981 23.2515C4.957 24.3044 5.01903 25.3299 5.1997 26.3141C6.21634 31.9498 11.0595 36.2192 16.8843 36.2192C17.1512 36.2192 22.0969 36.5821 24.025 37.6983L25.3571 38.468C26.6542 39.2185 27.6628 40.3897 28.221 41.7945L29.8767 45.9539L29.8794 45.9512C30.3028 47.6997 31.8506 49 33.7005 49C34.9572 49 36.0709 48.4007 36.7936 47.4715C37.3868 46.7072 41.6988 42.2618 41.6988 42.2618C42.7262 41.2007 44.0961 40.5601 45.5577 40.4584L51.3177 40.0598C54.3191 39.8206 56.8108 37.7175 57.6737 34.8831C57.8868 34.1904 58 33.4563 58 32.6893C57.9919 32.4831 57.9865 32.2742 57.9676 32.0625Z" fill="url(#paint0_linear_151_654)"/>
<defs>
<linearGradient id="paint0_linear_151_654" x1="8.17205" y1="25.4405" x2="53.485" y2="39.8355" gradientUnits="userSpaceOnUse">
<stop offset="0.00030185" stop-color="#FC5252"/>
<stop offset="0.999" stop-color="#9D00C6"/>
</linearGradient>
</defs>
</svg>
