<svg width="182" height="40" viewBox="0 0 182 40" fill="none" xmlns="http://www.w3.org/2000/svg">
<g clip-path="url(#clip0_1_1774)">
<path d="M17.5569 13.8983C19.0385 13.8983 20.24 12.6968 20.24 11.2152C20.24 9.73369 19.0385 8.53215 17.5569 8.53215C16.0754 8.53215 14.8739 9.73369 14.8739 11.2152C14.8739 12.6968 16.0754 13.8983 17.5569 13.8983ZM9.69386 16.0921C8.72925 16.0921 7.94771 16.8737 7.94771 17.8383C7.94771 18.8029 8.72925 19.5845 9.69386 19.5845C10.6585 19.5845 11.44 18.8029 11.44 17.8383C11.44 16.8737 10.6585 16.0921 9.69386 16.0921ZM30.3015 11.3752C30.1354 9.36446 28.4954 7.74292 26.4816 7.59984C24.6462 7.47061 23.0416 8.53984 22.3723 10.1045L22.3677 10.1152C22.3677 10.1152 22.3677 10.1168 22.3662 10.1198L21.1877 12.9306C20.6139 14.2983 19.4769 15.3521 18.0708 15.8214H18.0692C17.0785 16.1506 15.9815 15.906 15.2262 15.1798C14.9231 14.8891 14.6816 14.6568 14.6816 14.6568C14.0708 14.0737 13.6677 13.3137 13.52 12.4952C13.4692 12.2152 13.4477 11.926 13.4585 11.6368L13.58 8.51522L13.6369 7.05215L13.6354 7.05369C13.6354 7.01061 13.6369 6.96907 13.6369 6.92599C13.6369 3.02445 10.3385 -0.107851 6.38001 0.164457C3.03693 0.395226 0.330786 3.10446 0.100017 6.44446C0.0584785 7.03369 0.0938639 7.60753 0.196941 8.1583C0.776941 11.3121 3.54001 13.7014 6.86309 13.7014C7.0154 13.7014 9.83693 13.9045 10.9369 14.5291L11.6969 14.9598C12.4369 15.3798 13.0123 16.0352 13.3308 16.8214L14.2754 19.1491L14.2769 19.1475C14.5185 20.126 15.4015 20.8537 16.4569 20.8537C17.1739 20.8537 17.8092 20.5183 18.2215 19.9983C18.56 19.5706 21.02 17.0829 21.02 17.0829C21.6062 16.4891 22.3877 16.1306 23.2215 16.0737L26.5077 15.8506C28.22 15.7168 29.6416 14.5398 30.1339 12.9537C30.2554 12.566 30.32 12.1552 30.32 11.726C30.3154 11.6106 30.3123 11.4937 30.3015 11.3752Z" fill="url(#paint0_linear_1_1774)"/>
<path d="M172.597 21.6753C177.622 21.6753 181.703 25.7461 181.703 30.7814C181.703 33.0122 180.902 35.0691 179.549 36.6507C179.386 36.8461 179.214 37.0399 179.029 37.2245C177.383 38.8814 175.109 39.8984 172.597 39.8984H164.834C164.086 39.8984 163.48 39.2922 163.48 38.5445V23.0291C163.48 22.2814 164.086 21.6753 164.834 21.6753H172.597ZM166.729 36.6491H172.599C175.825 36.6491 178.457 34.0184 178.457 30.7799C178.457 27.5538 175.826 24.9214 172.599 24.9214H166.729V36.6491Z" fill="#242259"/>
<path d="M143.858 26.5859V28.2859H157.275C158.023 28.2859 158.629 28.892 158.629 29.6397V30.1813C158.629 30.9289 158.023 31.5351 157.275 31.5351H143.858V34.9782C143.858 35.9013 144.614 36.6566 145.537 36.6566H157.48C158.228 36.6566 158.834 37.2628 158.834 38.0105V38.5505C158.834 39.2982 158.228 39.9043 157.48 39.9043H145.526C142.811 39.9043 140.611 37.7028 140.611 34.9889V26.5843C140.611 23.8689 142.812 21.6689 145.526 21.6689H157.48C158.228 21.6689 158.834 22.2751 158.834 23.0228V23.5643C158.834 24.312 158.228 24.9182 157.48 24.9182H145.526C144.605 24.9182 143.858 25.6643 143.858 26.5859Z" fill="#242259"/>
<path d="M86.437 23.0308V38.5462C86.437 39.2939 85.8308 39.9001 85.0831 39.9001H84.54C83.7923 39.9001 83.1862 39.2939 83.1862 38.5462V31.537H71.4647V38.5416C71.4647 39.2893 70.8585 39.8954 70.1108 39.8954H69.5662C68.8185 39.8954 68.2123 39.2893 68.2123 38.5416V23.0262C68.2123 22.2785 68.8185 21.6724 69.5662 21.6724H70.1108C70.8585 21.6724 71.4647 22.2785 71.4647 23.0262V28.2877H83.1862V23.0308C83.1862 22.2831 83.7923 21.677 84.54 21.677H85.0831C85.8308 21.677 86.437 22.2831 86.437 23.0308Z" fill="#242259"/>
<path d="M14.72 38.5446V23.0277C14.72 22.28 15.3262 21.6738 16.0739 21.6738H16.6185C17.3662 21.6738 17.9723 22.28 17.9723 23.0277V38.5446C17.9723 39.2923 17.3662 39.8984 16.6185 39.8984H16.0739C15.3262 39.8984 14.72 39.2923 14.72 38.5446Z" fill="#9E028F"/>
<path d="M135.962 22.866V38.5598C135.962 39.3075 135.355 39.9137 134.608 39.9137H134.057C133.309 39.9137 132.703 39.3075 132.703 38.5598V30.8121C132.703 30.3814 132.135 30.2275 131.917 30.5998L127.597 37.9783C126.874 38.8814 125.498 38.8814 124.775 37.9783L120.455 30.5998C120.238 30.2291 119.669 30.3829 119.669 30.8137V38.5614C119.669 39.3091 119.063 39.9152 118.315 39.9152H117.763C117.015 39.9152 116.409 39.3091 116.409 38.5614V22.866C116.409 21.7168 117.865 21.2198 118.568 22.1291L125.398 33.0768C126.025 33.9214 126.406 33.9706 127.011 33.0768L133.806 22.1275C134.508 21.2198 135.962 21.7168 135.962 22.866Z" fill="#242259"/>
<path d="M40.8538 23.0229V38.0598C40.8538 39.5598 39.1308 40.4075 37.9431 39.4921L37.5954 39.2244L25.88 26.4321V38.5506C25.88 39.2983 25.2738 39.9044 24.5262 39.9044H23.9738C23.2261 39.9044 22.62 39.2983 22.62 38.5506V23.4798C22.62 21.9798 24.3431 21.1321 25.5308 22.0475L25.8784 22.3152L37.5938 35.1075V23.0213C37.5938 22.2736 38.2 21.6675 38.9477 21.6675H39.4985C40.2477 21.669 40.8538 22.2752 40.8538 23.0229Z" fill="#9E028F"/>
<path d="M63.5647 26.5936C63.5647 28.5859 62.3847 30.3075 60.6847 31.0767C60.24 31.2829 59.7647 31.4229 59.2662 31.4767C59.2231 31.4875 59.1693 31.4875 59.1262 31.4875V31.5198H48.7493V38.5521C48.7493 39.2998 48.1431 39.9059 47.3954 39.9059H46.8554C46.1077 39.9059 45.5016 39.2998 45.5016 38.5521V23.0259C45.5016 22.2782 46.1077 21.6721 46.8554 21.6721L58.6508 21.6675C60.0154 21.6675 61.2385 22.2198 62.1262 23.1075C63.0123 24.0059 63.5647 25.2398 63.5647 26.5936ZM60.317 26.5936C60.317 25.9983 60.0031 25.5875 59.8185 25.3921C59.6016 25.1859 59.2231 24.9152 58.6493 24.9152H48.7508V28.2721H58.6493C58.8877 28.2721 59.1154 28.229 59.3324 28.1198C59.9385 27.849 60.317 27.2536 60.317 26.5936Z" fill="#242259"/>
<path d="M111.614 37.9536L102.631 22.3905C102.129 21.4043 100.72 21.4043 100.218 22.3905L91.2354 37.9536C90.7769 38.8536 91.4308 39.9213 92.4415 39.9213H93.0892C93.5985 39.9213 94.0108 39.769 94.5631 38.7336L101.425 26.6613L108.334 38.812C108.755 39.5197 109.248 39.9166 109.754 39.9182L110.409 39.9213C111.418 39.9213 112.072 38.8536 111.614 37.9536Z" fill="#242259"/>
<path d="M102.037 33.4307H100.809C100.062 33.4307 99.4554 34.0368 99.4554 34.7845V35.326C99.4554 36.0737 100.062 36.6799 100.809 36.6799H102.037C102.785 36.6799 103.391 36.0737 103.391 35.326V34.7845C103.391 34.0368 102.785 33.4307 102.037 33.4307Z" fill="#242259"/>
</g>
<defs>
<linearGradient id="paint0_linear_1_1774" x1="1.89269" y1="7.66943" x2="27.6513" y2="16.0117" gradientUnits="userSpaceOnUse">
<stop offset="0.00030185" stop-color="#FC5252"/>
<stop offset="0.999" stop-color="#9D00C6"/>
</linearGradient>
<clipPath id="clip0_1_1774">
<rect width="181.846" height="40" fill="white"/>
</clipPath>
</defs>
</svg>
