<svg width="21" height="20" viewBox="0 0 21 20" fill="none" xmlns="http://www.w3.org/2000/svg">
<path fill-rule="evenodd" clip-rule="evenodd" d="M7.74054 9.04902C7.31162 9.04902 6.97247 9.38235 6.97247 9.80392C6.97247 10.2157 7.31162 10.5588 7.74054 10.5588H13.7255V15.2451C13.7255 17.6471 11.7405 19.6078 9.28665 19.6078H4.42886C1.98501 19.6078 0 17.6569 0 15.2549V4.36275C0 1.95098 1.99498 0 4.43884 0H9.3066C11.7405 0 13.7255 1.95098 13.7255 4.35294V9.04902H7.74054ZM17.2845 6.41197L20.1473 9.26491C20.2944 9.41197 20.3728 9.59824 20.3728 9.80412C20.3728 10.0002 20.2944 10.1963 20.1473 10.3335L17.2845 13.1865C17.1375 13.3335 16.9414 13.412 16.7551 13.412C16.5591 13.412 16.363 13.3335 16.2159 13.1865C15.9218 12.8924 15.9218 12.412 16.2159 12.1178L17.7845 10.559H13.7257V9.04922H17.7845L16.2159 7.4904C15.9218 7.19628 15.9218 6.71589 16.2159 6.42177C16.51 6.11785 16.9904 6.11785 17.2845 6.41197Z" fill="white"/>
</svg>
