<svg width="18" height="18" viewBox="0 0 18 18" fill="none" xmlns="http://www.w3.org/2000/svg">
<g opacity="0.7" clip-path="url(#clip0_1_1762)">
<path d="M16.609 15.3056L12.7775 11.4741C13.7273 10.3162 14.2997 8.83304 14.2997 7.21652C14.2997 3.50861 11.2911 0.5 7.58319 0.5C3.87203 0.5 0.866669 3.50861 0.866669 7.21652C0.866669 10.9244 3.87203 13.933 7.58319 13.933C9.1997 13.933 10.6796 13.3638 11.8375 12.4141L15.669 16.2423C15.9292 16.5026 16.3488 16.5026 16.609 16.2423C16.8692 15.9854 16.8692 15.5626 16.609 15.3056ZM7.58319 12.5962C4.61361 12.5962 2.20021 10.1828 2.20021 7.21652C2.20021 4.25019 4.61361 1.83355 7.58319 1.83355C10.5495 1.83355 12.9662 4.25019 12.9662 7.21652C12.9662 10.1828 10.5495 12.5962 7.58319 12.5962Z" fill="#242259"/>
</g>
<defs>
<clipPath id="clip0_1_1762">
<rect width="17" height="17" fill="white" transform="translate(0.866669 0.5)"/>
</clipPath>
</defs>
</svg>
