<svg width="19" height="20" viewBox="0 0 19 20" fill="none" xmlns="http://www.w3.org/2000/svg">
<g id="002-notification-1" clip-path="url(#clip0_1_8023)">
<path id="Vector" d="M8.35352 20C6.6311 20 5.22852 18.5983 5.22852 16.875C5.22852 16.53 5.50851 16.25 5.85352 16.25C6.19852 16.25 6.47852 16.53 6.47852 16.875C6.47852 17.9092 7.32019 18.75 8.35352 18.75C9.38684 18.75 10.2285 17.9092 10.2285 16.875C10.2285 16.53 10.5085 16.25 10.8535 16.25C11.1985 16.25 11.4785 16.53 11.4785 16.875C11.4785 18.5983 10.0761 20 8.35352 20Z" fill="#030229"/>
<path id="Vector_2" d="M15.2288 17.5H1.47879C0.674652 17.5 0.0205078 16.8459 0.0205078 16.0417C0.0205078 15.6149 0.20636 15.2109 0.530457 14.9333C0.551361 14.915 0.573791 14.8984 0.597137 14.8833C1.82043 13.8158 2.52051 12.28 2.52051 10.6583V8.33328C2.52051 5.11673 5.138 2.5 8.35379 2.5C8.48715 2.5 8.63135 2.50244 8.76471 2.52502C9.10544 2.58163 9.33554 2.90421 9.27878 3.24417C9.22217 3.58414 8.8938 3.81424 8.55963 3.75748C8.49295 3.74664 8.41971 3.75 8.35379 3.75C5.82724 3.75 3.77051 5.80582 3.77051 8.33328V10.6583C3.77051 12.6717 2.88794 14.5767 1.35138 15.8841C1.33887 15.8942 1.32803 15.9033 1.31461 15.9125C1.29218 15.9409 1.27051 15.9842 1.27051 16.0417C1.27051 16.1549 1.36557 16.25 1.47879 16.25H15.2288C15.3422 16.25 15.4372 16.1549 15.4372 16.0417C15.4372 15.9833 15.4156 15.9409 15.3922 15.9125C15.3797 15.9033 15.3689 15.8942 15.3564 15.8841C13.8189 14.5758 12.9372 12.6717 12.9372 10.6583V9.75006C12.9372 9.40506 13.2172 9.12506 13.5622 9.12506C13.9072 9.12506 14.1872 9.40506 14.1872 9.75006V10.6583C14.1872 12.2809 14.8881 13.8174 16.113 14.8859C16.1355 14.9008 16.1571 14.9167 16.1771 14.9342C16.5014 15.2109 16.6872 15.6149 16.6872 16.0417C16.6872 16.8459 16.0331 17.5 15.2288 17.5Z" fill="#030229"/>
<path id="Vector_3" d="M14.1872 8.33328C11.8897 8.33328 10.0205 6.46423 10.0205 4.16672C10.0205 1.8692 11.8897 0 14.1872 0C16.4847 0 18.3538 1.8692 18.3538 4.16672C18.3538 6.46423 16.4847 8.33328 14.1872 8.33328ZM14.1872 1.25C12.5788 1.25 11.2705 2.55829 11.2705 4.16672C11.2705 5.77499 12.5788 7.08328 14.1872 7.08328C15.7955 7.08328 17.1038 5.77499 17.1038 4.16672C17.1038 2.55829 15.7955 1.25 14.1872 1.25Z" fill="#030229"/>
</g>
<defs>
<clipPath id="clip0_1_8023">
<rect width="18.4" height="20" fill="white"/>
</clipPath>
</defs>
</svg>
