<svg width="40" height="40" viewBox="0 0 40 40" fill="none" xmlns="http://www.w3.org/2000/svg">
<rect x="0.5" y="0.5" width="39" height="39" rx="6.5" fill="white"/>
<rect x="0.5" y="0.5" width="39" height="39" rx="6.5" stroke="#BCC5D5"/>
<g clip-path="url(#clip0_1_1738)">
<path d="M19.3536 30C17.6312 30 16.2286 28.5983 16.2286 26.875C16.2286 26.53 16.5086 26.25 16.8536 26.25C17.1986 26.25 17.4786 26.53 17.4786 26.875C17.4786 27.9092 18.3203 28.75 19.3536 28.75C20.3869 28.75 21.2286 27.9092 21.2286 26.875C21.2286 26.53 21.5086 26.25 21.8536 26.25C22.1986 26.25 22.4786 26.53 22.4786 26.875C22.4786 28.5983 21.0761 30 19.3536 30Z" fill="#030229"/>
<path d="M26.2286 27.5H12.4786C11.6745 27.5 11.0203 26.8459 11.0203 26.0417C11.0203 25.6149 11.2062 25.2109 11.5303 24.9333C11.5512 24.915 11.5736 24.8984 11.597 24.8833C12.8203 23.8158 13.5203 22.28 13.5203 20.6583V18.3333C13.5203 15.1167 16.1378 12.5 19.3536 12.5C19.487 12.5 19.6312 12.5024 19.7645 12.525C20.1053 12.5816 20.3354 12.9042 20.2786 13.2442C20.222 13.5841 19.8936 13.8142 19.5594 13.7575C19.4928 13.7466 19.4195 13.75 19.3536 13.75C16.8271 13.75 14.7703 15.8058 14.7703 18.3333V20.6583C14.7703 22.6717 13.8878 24.5767 12.3512 25.8841C12.3387 25.8942 12.3279 25.9033 12.3144 25.9125C12.292 25.9409 12.2703 25.9842 12.2703 26.0417C12.2703 26.1549 12.3654 26.25 12.4786 26.25H26.2286C26.342 26.25 26.437 26.1549 26.437 26.0417C26.437 25.9833 26.4154 25.9409 26.392 25.9125C26.3795 25.9033 26.3687 25.8942 26.3562 25.8841C24.8187 24.5758 23.937 22.6717 23.937 20.6583V19.7501C23.937 19.4051 24.217 19.1251 24.562 19.1251C24.907 19.1251 25.187 19.4051 25.187 19.7501V20.6583C25.187 22.2809 25.8879 23.8174 27.1129 24.8859C27.1353 24.9008 27.157 24.9167 27.1769 24.9342C27.5012 25.2109 27.687 25.6149 27.687 26.0417C27.687 26.8459 27.0329 27.5 26.2286 27.5Z" fill="#030229"/>
<path d="M25.187 18.3333C22.8895 18.3333 21.0203 16.4642 21.0203 14.1667C21.0203 11.8692 22.8895 10 25.187 10C27.4846 10 29.3536 11.8692 29.3536 14.1667C29.3536 16.4642 27.4846 18.3333 25.187 18.3333ZM25.187 11.25C23.5786 11.25 22.2703 12.5583 22.2703 14.1667C22.2703 15.775 23.5786 17.0833 25.187 17.0833C26.7953 17.0833 28.1036 15.775 28.1036 14.1667C28.1036 12.5583 26.7953 11.25 25.187 11.25Z" fill="#030229"/>
</g>
<defs>
<clipPath id="clip0_1_1738">
<rect width="18.4" height="20" fill="white" transform="translate(11 10)"/>
</clipPath>
</defs>
</svg>
