<svg width="14" height="14" viewBox="0 0 14 14" fill="none" xmlns="http://www.w3.org/2000/svg">
<g clip-path="url(#clip0_1_1444)">
<path fill-rule="evenodd" clip-rule="evenodd" d="M11.2684 10.197C10.4864 9.93686 9.64565 9.74251 8.76079 9.61674C8.88125 8.9091 8.94536 8.16756 8.96578 7.40846H12.2345C12.1614 8.43787 11.8155 9.3905 11.2684 10.197ZM7.93555 12.5367C8.2075 11.8797 8.43004 11.1696 8.60113 10.4216C9.33531 10.5302 10.0393 10.6907 10.7061 10.9014C9.96946 11.6866 9.01314 12.2644 7.93555 12.5367ZM6.92982 12.6968C6.79834 12.7062 6.66727 12.7168 6.53333 12.7168C6.3994 12.7168 6.26874 12.7062 6.13684 12.6968C5.78935 11.9732 5.50801 11.168 5.29976 10.3134C5.70564 10.2778 6.11683 10.257 6.53333 10.257C6.94983 10.257 7.36103 10.2778 7.76732 10.3134C7.55866 11.168 7.27731 11.9732 6.92982 12.6968ZM2.36058 10.9014C3.02739 10.6907 3.73135 10.5302 4.46554 10.4216C4.63663 11.1696 4.85916 11.8797 5.13111 12.5367C4.05352 12.2644 3.09762 11.6866 2.36058 10.9014ZM1.7983 10.197C1.25114 9.3905 0.905273 8.43787 0.832181 7.40846H4.10089C4.12131 8.16756 4.18542 8.9091 4.30587 9.61674C3.42102 9.74251 2.58026 9.93686 1.7983 10.197ZM1.7983 3.8033C2.58026 4.06341 3.42102 4.25816 4.30587 4.38352C4.18542 5.09116 4.12131 5.83271 4.10089 6.5918H0.832181C0.905273 5.56239 1.25114 4.60976 1.7983 3.8033ZM5.13111 1.46353C4.85916 2.12054 4.63663 2.83063 4.46554 3.57869C3.73135 3.47049 3.02739 3.30961 2.36058 3.09891C3.09762 2.31368 4.05352 1.73589 5.13111 1.46353ZM6.13684 1.30348C6.26874 1.29449 6.3994 1.28346 6.53333 1.28346C6.66727 1.28346 6.79834 1.29449 6.92982 1.30348C7.27731 2.02704 7.55866 2.83267 7.76732 3.68691C7.36103 3.72243 6.94983 3.74326 6.53333 3.74326C6.11683 3.74326 5.70564 3.72243 5.29976 3.68691C5.50801 2.83267 5.78935 2.02704 6.13684 1.30348ZM8.14788 7.40846C8.12583 8.12754 8.0605 8.83477 7.93759 9.51383C7.47781 9.47382 7.01027 9.45013 6.53333 9.45013C6.0564 9.45013 5.58886 9.47382 5.12948 9.51383C5.00617 8.83477 4.94083 8.12754 4.91919 7.40846H8.14788ZM4.91919 6.5918C4.94083 5.87272 5.00617 5.16549 5.12948 4.48643C5.58886 4.52644 6.0564 4.55013 6.53333 4.55013C7.01027 4.55013 7.47781 4.52644 7.93718 4.48643C8.0605 5.16549 8.12583 5.87272 8.14788 6.5918H4.91919ZM10.7061 3.09891C10.0393 3.30961 9.33531 3.47049 8.60113 3.57869C8.43004 2.83063 8.2075 2.12054 7.93555 1.46353C9.01314 1.73589 9.96946 2.31368 10.7061 3.09891ZM11.2684 3.8033C11.8155 4.60976 12.1614 5.56239 12.2345 6.5918H8.96578C8.94536 5.83271 8.88125 5.09116 8.76079 4.38352C9.64565 4.25816 10.4864 4.06341 11.2684 3.8033ZM6.53333 0.466797C2.9253 0.466797 0 3.39169 0 7.00013C0 10.6086 2.9253 13.5335 6.53333 13.5335C10.1414 13.5335 13.0667 10.6086 13.0667 7.00013C13.0667 3.39169 10.1414 0.466797 6.53333 0.466797Z" fill="#242259"/>
</g>
<defs>
<clipPath id="clip0_1_1444">
<rect width="13.0667" height="14" fill="white"/>
</clipPath>
</defs>
</svg>
