<svg width="16" height="18" viewBox="0 0 16 18" fill="none" xmlns="http://www.w3.org/2000/svg">
<g clip-path="url(#clip0_1_1753)">
<path fill-rule="evenodd" clip-rule="evenodd" d="M13.683 12.8821C12.7335 12.5663 11.7126 12.3303 10.6381 12.1775C10.7844 11.3183 10.8622 10.4178 10.887 9.49606H14.8562C14.7674 10.7461 14.3474 11.9028 13.683 12.8821ZM9.63603 15.7232C9.96625 14.9254 10.2365 14.0632 10.4442 13.1548C11.3357 13.2867 12.1906 13.4816 13.0003 13.7374C12.1058 14.6909 10.9445 15.3925 9.63603 15.7232ZM8.41478 15.9176C8.25513 15.929 8.09597 15.9419 7.93333 15.9419C7.7707 15.9419 7.61204 15.929 7.45188 15.9176C7.02993 15.039 6.6883 14.0612 6.43542 13.0234C6.92828 12.9803 7.42758 12.955 7.93333 12.955C8.43908 12.955 8.93839 12.9803 9.43174 13.0234C9.17837 14.0612 8.83674 15.039 8.41478 15.9176ZM2.86642 13.7374C3.67611 13.4816 4.53093 13.2867 5.42244 13.1548C5.63019 14.0632 5.90041 14.9254 6.23064 15.7232C4.92213 15.3925 3.76139 14.6909 2.86642 13.7374ZM2.18365 12.8821C1.51924 11.9028 1.09926 10.7461 1.01051 9.49606H4.97965C5.00445 10.4178 5.08229 11.3183 5.22856 12.1775C4.15409 12.3303 3.13317 12.5663 2.18365 12.8821ZM2.18365 5.11836C3.13317 5.4342 4.15409 5.6707 5.22856 5.82292C5.08229 6.6822 5.00445 7.58264 4.97965 8.50439H1.01051C1.09926 7.2544 1.51924 6.09763 2.18365 5.11836ZM6.23064 2.27721C5.90041 3.07501 5.63019 3.93726 5.42244 4.84563C4.53093 4.71423 3.67611 4.51888 2.86642 4.26303C3.76139 3.30954 4.92213 2.60793 6.23064 2.27721ZM7.45188 2.08286C7.61204 2.07195 7.7707 2.05856 7.93333 2.05856C8.09597 2.05856 8.25513 2.07195 8.41478 2.08286C8.83674 2.96148 9.17837 3.93975 9.43174 4.97703C8.93839 5.02017 8.43908 5.04545 7.93333 5.04545C7.42758 5.04545 6.92828 5.02017 6.43542 4.97703C6.6883 3.93975 7.02993 2.96148 7.45188 2.08286ZM9.89386 9.49606C9.86708 10.3692 9.78775 11.228 9.6385 12.0526C9.08019 12.004 8.51247 11.9752 7.93333 11.9752C7.3542 11.9752 6.78647 12.004 6.22866 12.0526C6.07892 11.228 5.99958 10.3692 5.9733 9.49606H9.89386ZM5.9733 8.50439C5.99958 7.63123 6.07892 6.77245 6.22866 5.94788C6.78647 5.99647 7.3542 6.02523 7.93333 6.02523C8.51247 6.02523 9.0802 5.99647 9.63801 5.94788C9.78775 6.77245 9.86708 7.63123 9.89386 8.50439H5.9733ZM13.0003 4.26303C12.1906 4.51888 11.3357 4.71423 10.4442 4.84563C10.2365 3.93726 9.96625 3.07501 9.63603 2.27721C10.9445 2.60793 12.1058 3.30954 13.0003 4.26303ZM13.683 5.11836C14.3474 6.09763 14.7674 7.2544 14.8562 8.50439H10.887C10.8622 7.58264 10.7844 6.6822 10.6381 5.82292C11.7126 5.6707 12.7335 5.4342 13.683 5.11836ZM7.93333 1.06689C3.55215 1.06689 0 4.61855 0 9.00023C0 13.3819 3.55215 16.9336 7.93333 16.9336C12.3145 16.9336 15.8667 13.3819 15.8667 9.00023C15.8667 4.61855 12.3145 1.06689 7.93333 1.06689Z" fill="#9E028F"/>
</g>
<defs>
<clipPath id="clip0_1_1753">
<rect width="15.8667" height="17" fill="white" transform="translate(0 0.5)"/>
</clipPath>
</defs>
</svg>
