<svg width="14" height="14" viewBox="0 0 14 14" fill="none" xmlns="http://www.w3.org/2000/svg">
<g clip-path="url(#clip0_1_1457)">
<path d="M1.45253 5.22046C1.10168 3.26283 2.39829 1.56707 4.41948 1.4069C6.19914 1.26707 7.08134 3.423 7.25931 3.83486C7.26128 3.84177 7.26545 3.84785 7.27118 3.85217C7.27692 3.8565 7.28391 3.85884 7.29109 3.85884C7.29827 3.85884 7.30526 3.8565 7.31099 3.85217C7.31673 3.84785 7.3209 3.84177 7.32287 3.83486C8.14914 1.56961 9.65422 1.473 10.183 1.41961C11.6068 1.26707 13.5161 2.36791 13.1322 4.93317C12.583 8.49249 7.25422 12.512 7.25422 12.512C7.25422 12.512 2.1466 9.04673 1.45253 5.22046Z" stroke="#9E028F"/>
</g>
<defs>
<clipPath id="clip0_1_1457">
<rect width="14" height="14" fill="white"/>
</clipPath>
</defs>
</svg>
